<svg width="260" height="110" viewBox="0 0 260 110" fill="none" xmlns="http://www.w3.org/2000/svg">
<mask id="mask0_59_102" style="mask-type:luminance" maskUnits="userSpaceOnUse" x="25" y="43" width="71" height="67">
<path d="M95.7618 43.8843H25.7988V110H95.7618V43.8843Z" fill="white"/>
</mask>
<g mask="url(#mask0_59_102)">
<path d="M93.5755 81.8471C94.8094 81.7564 95.7618 80.7817 95.7618 79.6135V74.2707C95.7618 73.1003 94.8094 72.1278 93.5755 72.035L86.0834 71.4821C85.6073 71.4478 85.1974 71.1655 85.0138 70.7477L82.5499 65.1283C82.3663 64.7126 82.4431 64.2365 82.7548 63.8955L87.64 58.4961C88.4428 57.6063 88.3912 56.2826 87.5141 55.4554L83.5171 51.6783C82.6417 50.8511 81.2389 50.7986 80.2995 51.5592L74.5859 56.1758C74.2249 56.4683 73.7189 56.543 73.2813 56.3715L67.333 54.0411C66.8931 53.8696 66.5921 53.4761 66.5537 53.0302L65.9707 45.952C65.8747 44.7842 64.8455 43.8843 63.6073 43.8843H57.9536C56.7151 43.8843 55.686 44.7842 55.5899 45.9525L55.005 53.0306C54.9686 53.4786 54.6676 53.87 54.2277 54.0415L48.2793 56.3719C47.8395 56.5434 47.3357 56.4687 46.9726 56.1761L41.2612 51.5597C40.3217 50.7989 38.9211 50.8515 38.0436 51.6787L34.0467 55.4559C33.1714 56.283 33.1179 57.6067 33.9207 58.4965L38.8058 63.8959C39.1132 64.2369 39.1944 64.713 39.0107 65.1288L36.5469 70.7481C36.3674 71.1657 35.9512 71.4482 35.4793 71.4826L27.9852 72.0351C26.7511 72.1279 25.7988 73.1005 25.7988 74.2708V79.6116C25.7988 80.7819 26.7511 81.7564 27.9852 81.8473L35.4794 82.3981C35.9512 82.4344 36.3676 82.719 36.5471 83.1347L39.0109 88.7537C39.1946 89.1694 39.1134 89.6479 38.8059 89.9884L33.9208 95.3884C33.118 96.276 33.1714 97.5992 34.0469 98.4289L38.0437 102.206C38.9213 103.033 40.3219 103.083 41.2613 102.323L46.9728 97.7066C47.3357 97.4157 47.8396 97.3389 48.2795 97.5124L54.2279 99.8413C54.6677 100.015 54.9688 100.404 55.0051 100.854L55.5901 107.932C55.6861 109.098 56.7152 110 57.9536 110H63.6074C64.8458 110 65.8749 109.098 65.971 107.932L66.5539 100.854C66.5923 100.404 66.8933 100.015 67.3332 99.8413L73.2816 97.5124C73.7193 97.3389 74.2274 97.4157 74.5861 97.7066L80.2997 102.323C81.2392 103.083 82.642 103.033 83.5173 102.206L87.5141 98.4289C88.3921 97.5992 88.4428 96.276 87.64 95.3884L82.7551 89.9884C82.4477 89.6479 82.3665 89.1694 82.5502 88.7537L85.014 83.1347C85.1977 82.719 85.6077 82.4344 86.0837 82.3981L93.5755 81.8471ZM60.7803 88.1141C57.6225 88.1141 54.6525 86.9521 52.4192 84.8438C50.1858 82.7314 48.9561 79.9264 48.9561 76.9402C48.9561 73.9561 50.1858 71.1494 52.4192 69.0409C54.6525 66.9284 57.6225 65.7682 60.7803 65.7682C63.9403 65.7682 66.9081 66.9283 69.1414 69.0409C71.3748 71.1494 72.6046 73.9561 72.6046 76.9402C72.6046 79.9264 71.3748 82.7314 69.1414 84.8438C66.9081 86.9521 63.9403 88.1141 60.7803 88.1141Z" fill="#E7342C"/>
</g>
<mask id="mask1_59_102" style="mask-type:luminance" maskUnits="userSpaceOnUse" x="0" y="18" width="70" height="67">
<path d="M69.963 18.0166H0V84.1323H69.963V18.0166Z" fill="white"/>
</mask>
<g mask="url(#mask1_59_102)">
<path fill-rule="evenodd" clip-rule="evenodd" d="M5.79074 44.7362C-0.460839 41.7338 0.256554 38.3872 6.53659 38.7369L7.94291 41.2281L10.8409 32.7108C11.9797 29.3587 13.8757 26.3187 17.5936 26.3187H54.6589C58.3768 26.3187 60.5176 29.2996 61.4172 32.7053L63.5921 40.9644L64.8447 38.7369C71.3012 38.3818 71.8763 41.9276 65.044 44.9891L66.1542 46.5978C70.6465 50.9614 70.2252 58.6771 69.5249 69.4543V73.834C69.5249 74.9316 68.5741 75.8301 67.4125 75.8301H58.3995C57.2381 75.8301 56.2873 74.9316 56.2873 73.834V71.3912H13.6877V73.834C13.6877 74.9316 12.7369 75.8301 11.5754 75.8301H2.56246C1.40096 75.8301 0.450137 74.9316 0.450137 73.834V68.3943C0.450137 68.2867 0.461523 68.1844 0.472911 68.0822C-0.210321 59.8124 -1.17254 48.9976 5.79074 44.7362ZM17.2975 57.9023L9.29229 56.95C7.40202 56.7509 6.89529 57.5042 7.53866 59.0429L8.4041 61.0284C8.68308 61.5395 9.05319 61.9108 9.48591 62.169C9.99262 62.465 10.6018 62.6102 11.2793 62.6371L18.4191 62.691C20.1443 62.6856 20.8901 62.0345 20.3492 60.5387C19.9051 59.1344 18.8917 58.252 17.2975 57.9023ZM30.9621 54.7224H39.1609C39.6448 54.7224 40.0434 55.0991 40.0434 55.5564C40.0434 56.0138 39.6448 56.3904 39.1609 56.3904H30.9621C30.4782 56.3904 30.0796 56.0138 30.0796 55.5564C30.0739 55.0991 30.4725 54.7224 30.9621 54.7224ZM51.2199 65.6771H59.4187C59.9027 65.6771 60.3012 66.0538 60.3012 66.5111C60.3012 66.9685 59.9027 67.3451 59.4187 67.3451H51.2199C50.736 67.3451 50.3374 66.9685 50.3374 66.5111C50.3374 66.0538 50.7303 65.6771 51.2199 65.6771ZM52.6662 57.9023L60.6713 56.95C62.5616 56.7509 63.0683 57.5042 62.4249 59.0429L61.5595 61.0284C61.2805 61.5395 60.9104 61.9108 60.4777 62.169C59.971 62.465 59.3618 62.6102 58.6843 62.6371L51.5445 62.691C49.8193 62.6856 49.0735 62.0345 49.6144 60.5387C50.0585 59.1344 51.0719 58.252 52.6662 57.9023ZM10.4823 65.6771H18.6811C19.165 65.6771 19.5636 66.0538 19.5636 66.5111C19.5636 66.9685 19.165 67.3451 18.6811 67.3451H10.4823C9.99831 67.3451 9.59978 66.9685 9.59978 66.5111C9.59978 66.0538 9.99831 65.6771 10.4823 65.6771ZM10.9491 43.1059H60.381L58.2003 34.5401C57.6025 31.9305 55.883 29.6708 53.0476 29.6708H18.8233C15.9937 29.6708 14.5418 31.9898 13.6707 34.5401L10.9491 43.1059Z" fill="#E7342C"/>
</g>
<path d="M81.7692 84.1323C112.681 84.1323 137.74 76.4915 137.74 67.0661C137.74 57.6408 112.681 50 81.7692 50C50.8576 50 25.7988 57.6408 25.7988 67.0661C25.7988 76.4915 50.8576 84.1323 81.7692 84.1323Z" fill="#E7342C"/>
<path d="M207.79 43.8843H43.8145V89.5041H207.79V43.8843Z" fill="#E7342C"/>
<path d="M60.6982 84.7313L65.8965 57.6484H58.9434L60.4569 49.9682H83.005L81.4477 57.6484H74.4727L69.2743 84.7313H60.6982ZM78.3357 84.7313L85.1134 49.9682H104.152L102.726 57.5058H92.2641L91.233 62.9746H100.972L99.3925 70.512H89.6536L88.4039 77.0747H98.866L97.3749 84.7313H78.3357ZM100.909 84.7313L107.687 49.9682H118.368C120.664 49.9682 122.52 50.2932 123.939 50.9431C125.357 51.593 126.396 52.4887 127.054 53.63C127.712 54.7713 128.041 56.0791 128.041 57.5533C128.041 59.1226 127.785 60.5017 127.274 61.6906C126.776 62.8637 126.038 63.8464 125.057 64.6391C124.093 65.4315 122.916 66.0577 121.526 66.5175V66.7077C122.813 67.1673 123.837 67.9758 124.597 69.1329C125.357 70.2901 125.738 71.6929 125.738 73.3415C125.738 76.0522 125.161 78.2477 124.005 79.928C122.864 81.5924 121.321 82.8131 119.377 83.59C117.446 84.3503 115.29 84.7313 112.907 84.7313H100.909ZM110.91 77.4789H112.709C113.586 77.4789 114.354 77.2967 115.012 76.932C115.67 76.5675 116.182 76.0839 116.547 75.4815C116.928 74.8634 117.118 74.1816 117.118 73.4367C117.118 72.3429 116.876 71.5266 116.394 70.9877C115.912 70.4486 115.063 70.1791 113.849 70.1791H112.358L110.91 77.4789ZM113.652 63.3074H115.231C116.24 63.3074 117.022 63.1489 117.578 62.832C118.149 62.4991 118.551 62.0473 118.784 61.4766C119.019 60.9059 119.136 60.2481 119.136 59.503C119.136 58.7263 118.909 58.1319 118.456 57.7197C118.003 57.2917 117.3 57.0777 116.35 57.0777H114.968L113.652 63.3074ZM140.568 85.2065C137.834 85.2065 135.552 84.6519 133.724 83.542C131.911 82.4325 130.544 80.8791 129.623 78.8818C128.702 76.8686 128.241 74.5147 128.241 71.8199C128.241 70.0128 128.395 68.2135 128.702 66.4223C129.009 64.631 129.477 62.9033 130.105 61.2388C130.734 59.5586 131.524 58.0051 132.474 56.5784C133.425 55.1518 134.544 53.9074 135.83 52.8454C137.117 51.7674 138.572 50.9273 140.195 50.3249C141.833 49.7225 143.646 49.4214 145.634 49.4214C149.583 49.4214 152.573 50.642 154.605 53.0831C156.653 55.5243 157.676 58.7659 157.676 62.8081C157.676 64.6152 157.523 66.4223 157.216 68.2294C156.924 70.0206 156.47 71.7564 155.856 73.4367C155.256 75.101 154.489 76.6466 153.553 78.0733C152.617 79.4999 151.513 80.7522 150.241 81.8301C148.983 82.8924 147.551 83.7247 145.941 84.3272C144.333 84.9131 142.542 85.2065 140.568 85.2065ZM141.313 77.5264C142.031 77.5264 142.717 77.3521 143.376 77.0034C144.033 76.6546 144.648 76.1631 145.218 75.5291C145.802 74.8792 146.322 74.1103 146.775 73.2226C147.243 72.3191 147.645 71.3283 147.982 70.2505C148.318 69.1567 148.574 67.9917 148.75 66.7551C148.924 65.5187 149.013 64.2347 149.013 62.9033C149.013 61.112 148.661 59.7012 147.96 58.6709C147.258 57.6405 146.241 57.1253 144.911 57.1253C144.107 57.1253 143.354 57.3234 142.651 57.7197C141.95 58.116 141.299 58.663 140.699 59.3604C140.114 60.0578 139.588 60.8742 139.12 61.8095C138.652 62.7448 138.25 63.7592 137.914 64.853C137.592 65.9468 137.344 67.0801 137.168 68.2533C137.007 69.4262 136.927 70.5991 136.927 71.7723C136.927 73.0245 137.088 74.0787 137.409 74.9347C137.745 75.7906 138.236 76.4405 138.879 76.8844C139.537 77.3124 140.349 77.5264 141.313 77.5264ZM157.108 84.7313L163.886 49.9682H172.463L165.685 84.7313H157.108ZM170.294 84.7313L177.071 49.9682H185.648L180.361 77.146H190.824L189.332 84.7313H170.294Z" fill="white"/>
<path d="M92.091 99.1917L92.1059 99.0438C92.1706 98.4975 92.3123 97.9843 92.5318 97.5041C92.7504 97.0239 93.0425 96.6024 93.4063 96.2405C93.7693 95.8776 94.1978 95.595 94.691 95.3925C95.1843 95.19 95.7378 95.0958 96.35 95.1099C96.9377 95.1198 97.4458 95.2305 97.8743 95.4421C98.3081 95.6495 98.6614 95.9322 98.936 96.2892C99.2098 96.6471 99.4039 97.057 99.5185 97.5181C99.633 97.9801 99.6654 98.4694 99.6155 98.9876L99.6007 99.1429C99.536 99.6843 99.3917 100.193 99.1678 100.668C98.943 101.144 98.6492 101.56 98.2854 101.918C97.9216 102.276 97.4939 102.556 97.0007 102.759C96.5074 102.956 95.9565 103.048 95.3487 103.034C94.7662 103.025 94.2581 102.916 93.8244 102.709C93.3958 102.502 93.0452 102.221 92.7705 101.869C92.4968 101.516 92.3027 101.111 92.1881 100.654C92.0735 100.197 92.0412 99.7099 92.091 99.1917ZM94.3849 99.0438L94.3701 99.1917C94.3552 99.4041 94.3473 99.6322 94.3473 99.8768C94.3526 100.117 94.3876 100.348 94.4523 100.569C94.5222 100.79 94.6368 100.972 94.796 101.113C94.9604 101.25 95.1895 101.322 95.4834 101.332C95.8026 101.341 96.071 101.28 96.2906 101.148C96.5101 101.016 96.6893 100.84 96.8284 100.619C96.9727 100.393 97.0829 100.15 97.1572 99.8909C97.2368 99.6322 97.2893 99.3801 97.3146 99.1355L97.3295 98.9876C97.3487 98.7801 97.3566 98.5545 97.3514 98.3091C97.3514 98.0595 97.3164 97.8248 97.2473 97.6033C97.1826 97.3768 97.068 97.1933 96.9036 97.052C96.7392 96.9066 96.5101 96.8289 96.2153 96.819C95.897 96.8099 95.625 96.8735 95.4011 97.0099C95.1816 97.1462 95.0024 97.3281 94.8633 97.5537C94.7234 97.7793 94.6167 98.0248 94.5415 98.2884C94.4671 98.5471 94.4147 98.7991 94.3849 99.0438ZM110.765 99.0652L110.75 99.2132C110.691 99.6603 110.583 100.112 110.429 100.569C110.274 101.021 110.06 101.438 109.786 101.819C109.517 102.196 109.179 102.497 108.77 102.723C108.366 102.949 107.885 103.055 107.327 103.04C106.859 103.026 106.471 102.909 106.161 102.688C105.858 102.466 105.618 102.184 105.444 101.84C105.27 101.492 105.148 101.12 105.078 100.725C105.013 100.324 104.986 99.9405 104.996 99.5735L105.093 98.8603C105.168 98.4644 105.288 98.0479 105.452 97.6099C105.617 97.1677 105.833 96.7553 106.102 96.3743C106.376 95.9884 106.702 95.6776 107.081 95.4421C107.459 95.2024 107.9 95.0892 108.404 95.1033C108.847 95.1124 109.218 95.2024 109.517 95.3719C109.816 95.5413 110.055 95.7669 110.234 96.0495C110.419 96.3272 110.556 96.638 110.645 96.9818C110.735 97.3206 110.788 97.671 110.803 98.0338C110.817 98.3917 110.805 98.7355 110.765 99.0652ZM108.471 99.2132L108.493 99.0578C108.503 98.9305 108.516 98.7752 108.531 98.5917C108.545 98.4033 108.548 98.2107 108.538 98.0124C108.533 97.8107 108.503 97.6223 108.448 97.4479C108.399 97.2686 108.314 97.1231 108.195 97.0099C108.075 96.8925 107.911 96.8289 107.702 96.819C107.323 96.7958 107.006 96.871 106.752 97.0454C106.503 97.2148 106.307 97.4405 106.161 97.7231C106.022 98.0057 105.925 98.2975 105.87 98.5991L105.676 99.8066C105.656 100.084 105.679 100.339 105.743 100.569C105.808 100.795 105.93 100.978 106.11 101.12C106.294 101.256 106.555 101.327 106.894 101.332C107.178 101.336 107.415 101.271 107.604 101.134C107.799 100.993 107.955 100.814 108.075 100.597C108.195 100.376 108.284 100.145 108.343 99.9049C108.409 99.6603 108.451 99.4297 108.471 99.2132ZM100.752 99.3049L100.773 99.157C100.819 98.7991 100.893 98.4297 100.998 98.0479C101.108 97.6619 101.252 97.2925 101.431 96.9396C101.611 96.5818 101.83 96.2636 102.089 95.9859C102.353 95.7082 102.662 95.4892 103.016 95.3289C103.369 95.1694 103.776 95.0958 104.234 95.1099C104.717 95.1247 105.11 95.2562 105.415 95.5057C105.723 95.7504 105.96 96.0636 106.125 96.4446C106.289 96.8214 106.398 97.2214 106.454 97.6454C106.513 98.0694 106.536 98.4619 106.521 98.8248L106.423 99.5099C106.349 99.8958 106.226 100.301 106.057 100.725C105.888 101.144 105.666 101.53 105.392 101.883C105.123 102.236 104.802 102.521 104.428 102.737C104.055 102.954 103.624 103.055 103.136 103.04C102.607 103.026 102.176 102.904 101.842 102.674C101.509 102.438 101.254 102.135 101.08 101.763C100.911 101.391 100.801 100.991 100.752 100.562C100.707 100.129 100.707 99.7099 100.752 99.3049ZM103.053 99.1495L103.038 99.3049C103.023 99.4652 103.008 99.6578 102.993 99.8843C102.983 100.11 102.996 100.331 103.031 100.548C103.071 100.759 103.15 100.939 103.269 101.084C103.394 101.231 103.586 101.311 103.845 101.325C104.199 101.344 104.501 101.285 104.749 101.148C104.998 101.012 105.195 100.823 105.339 100.583C105.489 100.339 105.591 100.065 105.646 99.7644L105.833 98.5991C105.858 98.3215 105.847 98.0479 105.803 97.7793C105.764 97.5066 105.656 97.2785 105.482 97.095C105.312 96.9107 105.048 96.8173 104.69 96.8124C104.386 96.8074 104.134 96.8851 103.935 97.0454C103.735 97.2008 103.576 97.4033 103.457 97.6529C103.342 97.8975 103.253 98.1537 103.187 98.4223C103.128 98.6909 103.083 98.933 103.053 99.1495ZM103.389 105.831L105.915 92.0454H108.202L105.668 105.831H103.389ZM114.404 99.7289L117.55 95.2512H119.889L118.485 102.893H116.205L117.042 98.4008L113.881 102.893H111.542L112.947 95.2512H115.226L114.404 99.7289ZM120.218 102.893L121.622 95.2512H123.901L122.811 101.177H125.187L126.278 95.2512H128.564L127.16 102.893H120.218ZM128.714 101.191L127.847 105.159H125.703L126.121 102.893H125.269L125.583 101.191H128.714ZM132.473 99.7289L135.618 95.2512H137.958L136.553 102.893H134.273L135.11 98.4008L131.95 102.893H129.61L131.016 95.2512H133.295L132.473 99.7289ZM142.822 101.07L143.368 97.7652C143.388 97.5776 143.38 97.4008 143.346 97.2363C143.315 97.071 143.241 96.9372 143.121 96.833C143.001 96.7248 142.825 96.6686 142.59 96.6636C142.387 96.6595 142.205 96.6942 142.045 96.7702C141.891 96.8405 141.764 96.9438 141.664 97.081C141.57 97.2173 141.502 97.3768 141.462 97.5611L139.175 97.5752C139.201 97.1421 139.325 96.7677 139.55 96.452C139.779 96.1363 140.07 95.8801 140.423 95.6826C140.777 95.4801 141.163 95.3314 141.582 95.2371C142 95.1429 142.411 95.1008 142.815 95.1099C143.378 95.1198 143.886 95.233 144.339 95.4495C144.792 95.6611 145.139 95.9669 145.378 96.3669C145.622 96.7628 145.717 97.2429 145.662 97.8082L145.117 101.014C145.071 101.292 145.032 101.586 144.997 101.897C144.967 102.202 145.014 102.49 145.139 102.759L145.132 102.893L142.897 102.9C142.798 102.607 142.748 102.307 142.748 101.996C142.748 101.68 142.772 101.372 142.822 101.07ZM143.622 98.2314L143.412 99.4462L142.396 99.4396C142.197 99.4438 142 99.4719 141.806 99.5239C141.612 99.571 141.438 99.6462 141.283 99.7504C141.129 99.8487 140.999 99.976 140.895 100.131C140.79 100.282 140.725 100.461 140.7 100.668C140.675 100.819 140.687 100.953 140.737 101.07C140.792 101.183 140.874 101.273 140.984 101.339C141.094 101.405 141.228 101.44 141.388 101.445C141.621 101.45 141.849 101.41 142.067 101.325C142.292 101.236 142.486 101.111 142.651 100.95C142.815 100.786 142.927 100.597 142.986 100.386L143.428 101.317C143.303 101.577 143.153 101.812 142.979 102.024C142.805 102.236 142.608 102.419 142.389 102.574C142.17 102.726 141.926 102.843 141.656 102.928C141.392 103.012 141.104 103.053 140.79 103.048C140.341 103.039 139.93 102.94 139.557 102.751C139.188 102.559 138.894 102.295 138.675 101.96C138.455 101.626 138.356 101.24 138.376 100.802C138.396 100.293 138.528 99.8743 138.772 99.5454C139.016 99.2107 139.333 98.9471 139.721 98.7545C140.11 98.5611 140.533 98.4248 140.992 98.3446C141.45 98.2644 141.906 98.2248 142.359 98.2248L143.622 98.2314ZM153.254 95.2512L152.94 96.9677H149.055L149.376 95.2512H153.254ZM154.868 95.2512L153.463 102.893H151.176L152.582 95.2512H154.868ZM148.8 95.2512H151.05L150.123 99.1429C150.048 99.5049 149.957 99.8677 149.846 100.231C149.742 100.593 149.605 100.936 149.435 101.261C149.271 101.581 149.067 101.866 148.823 102.116C148.583 102.36 148.295 102.554 147.956 102.695C147.617 102.831 147.216 102.897 146.753 102.893H145.938L146.17 101.183L146.409 101.169C146.663 101.146 146.877 101.07 147.051 100.944C147.231 100.812 147.378 100.65 147.493 100.456C147.612 100.259 147.709 100.045 147.784 99.8132C147.858 99.5826 147.919 99.3545 147.963 99.1289C148.008 98.9024 148.048 98.695 148.083 98.5074L148.8 95.2512ZM157.775 97.4338L159.897 97.4405C160.47 97.4545 161.001 97.5611 161.489 97.7586C161.982 97.9562 162.373 98.2529 162.662 98.6487C162.951 99.0388 163.075 99.533 163.036 100.131C163.006 100.612 162.874 101.028 162.64 101.381C162.406 101.73 162.104 102.016 161.736 102.243C161.367 102.469 160.958 102.636 160.51 102.745C160.067 102.848 159.616 102.897 159.158 102.893H155.384L156.781 95.2512H159.067L157.977 101.191L159.225 101.197C159.469 101.193 159.698 101.153 159.912 101.078C160.132 101.002 160.318 100.887 160.473 100.731C160.627 100.576 160.726 100.376 160.772 100.131C160.806 99.9198 160.789 99.7429 160.719 99.6016C160.655 99.4603 160.545 99.352 160.391 99.2768C160.236 99.2016 160.051 99.1595 159.837 99.1495L157.461 99.1429L157.775 97.4338ZM170.143 98.2884L169.821 99.99H165.853L166.174 98.2884H170.143ZM167.534 95.2512L166.129 102.893H163.85L165.255 95.2512H167.534ZM172.182 95.2512L170.777 102.893H168.491L169.896 95.2512H172.182ZM177.062 101.07L177.608 97.7652C177.627 97.5776 177.62 97.4008 177.585 97.2363C177.555 97.071 177.48 96.9372 177.361 96.833C177.241 96.7248 177.065 96.6686 176.83 96.6636C176.625 96.6595 176.444 96.6942 176.284 96.7702C176.131 96.8405 176.003 96.9438 175.903 97.081C175.809 97.2173 175.741 97.3768 175.702 97.5611L173.415 97.5752C173.44 97.1421 173.565 96.7677 173.788 96.452C174.018 96.1363 174.309 95.8801 174.663 95.6826C175.016 95.4801 175.403 95.3314 175.821 95.2371C176.24 95.1429 176.651 95.1008 177.054 95.1099C177.617 95.1198 178.125 95.233 178.578 95.4495C179.032 95.6611 179.379 95.9669 179.617 96.3669C179.861 96.7628 179.957 97.2429 179.902 97.8082L179.356 101.014C179.311 101.292 179.271 101.586 179.236 101.897C179.206 102.202 179.253 102.49 179.379 102.759L179.371 102.893L177.136 102.9C177.037 102.607 176.987 102.307 176.987 101.996C176.987 101.68 177.012 101.372 177.062 101.07ZM177.861 98.2314L177.652 99.4462L176.636 99.4396C176.437 99.4438 176.24 99.4719 176.046 99.5239C175.852 99.571 175.677 99.6462 175.523 99.7504C175.368 99.8487 175.238 99.976 175.134 100.131C175.029 100.282 174.965 100.461 174.939 100.668C174.915 100.819 174.927 100.953 174.977 101.07C175.031 101.183 175.113 101.273 175.224 101.339C175.333 101.405 175.468 101.44 175.627 101.445C175.861 101.45 176.088 101.41 176.307 101.325C176.531 101.236 176.725 101.111 176.89 100.95C177.054 100.786 177.166 100.597 177.226 100.386L177.667 101.317C177.543 101.577 177.393 101.812 177.218 102.024C177.044 102.236 176.848 102.419 176.628 102.574C176.409 102.726 176.165 102.843 175.896 102.928C175.632 103.012 175.343 103.053 175.029 103.048C174.581 103.039 174.17 102.94 173.796 102.751C173.427 102.559 173.133 102.295 172.914 101.96C172.695 101.626 172.596 101.24 172.616 100.802C172.635 100.293 172.767 99.8743 173.011 99.5454C173.256 99.2107 173.572 98.9471 173.961 98.7545C174.349 98.5611 174.772 98.4248 175.231 98.3446C175.689 98.2644 176.145 98.2248 176.598 98.2248L177.861 98.2314ZM183.152 99.0438H185.566L182.696 102.893H180.29L183.152 99.0438ZM185.259 95.2446L188.876 95.2512L187.472 102.893H185.199L186.29 96.9537L185.192 96.9462C184.973 96.9512 184.759 96.9933 184.55 97.0735C184.345 97.1537 184.166 97.2686 184.011 97.4198C183.861 97.5653 183.767 97.7471 183.728 97.9636C183.693 98.1471 183.712 98.3024 183.787 98.4297C183.861 98.552 183.972 98.6462 184.116 98.7115C184.265 98.7777 184.427 98.8157 184.601 98.8248L186.836 98.8322L186.559 100.293L184.579 100.287C184.201 100.282 183.822 100.232 183.443 100.138C183.07 100.04 182.728 99.8958 182.419 99.7074C182.116 99.5148 181.876 99.2694 181.702 98.9735C181.528 98.6719 181.453 98.3115 181.478 97.8925C181.503 97.4264 181.63 97.0264 181.859 96.6925C182.088 96.3578 182.384 96.0851 182.748 95.8727C183.117 95.6562 183.518 95.4983 183.951 95.4C184.39 95.2967 184.826 95.2446 185.259 95.2446ZM199.12 95.2512L197.716 102.893H195.429L196.834 95.2512H199.12ZM201.632 95.2512L201.318 96.9537H194.062L194.375 95.2512H201.632ZM201.646 99.1917L201.661 99.0438C201.726 98.4975 201.868 97.9843 202.087 97.5041C202.306 97.0239 202.598 96.6024 202.961 96.2405C203.325 95.8776 203.754 95.595 204.247 95.3925C204.74 95.19 205.293 95.0958 205.906 95.1099C206.494 95.1198 207.002 95.2305 207.43 95.4421C207.864 95.6495 208.217 95.9322 208.491 96.2892C208.766 96.6471 208.96 97.057 209.074 97.5181C209.189 97.9801 209.221 98.4694 209.171 98.9876L209.157 99.1429C209.092 99.6843 208.948 100.193 208.723 100.668C208.499 101.144 208.205 101.56 207.841 101.918C207.477 102.276 207.049 102.556 206.556 102.759C206.062 102.956 205.512 103.048 204.905 103.034C204.321 103.025 203.813 102.916 203.38 102.709C202.952 102.502 202.6 102.221 202.326 101.869C202.053 101.516 201.858 101.111 201.743 100.654C201.629 100.197 201.596 99.7099 201.646 99.1917ZM203.941 99.0438L203.925 99.1917C203.91 99.4041 203.903 99.6322 203.903 99.8768C203.908 100.117 203.943 100.348 204.007 100.569C204.077 100.79 204.192 100.972 204.352 101.113C204.516 101.25 204.745 101.322 205.039 101.332C205.358 101.341 205.627 101.28 205.846 101.148C206.065 101.016 206.244 100.84 206.384 100.619C206.529 100.393 206.638 100.15 206.713 99.8909C206.793 99.6322 206.845 99.3801 206.87 99.1355L206.884 98.9876C206.905 98.7801 206.912 98.5545 206.907 98.3091C206.907 98.0595 206.872 97.8248 206.802 97.6033C206.738 97.3768 206.623 97.1933 206.459 97.052C206.294 96.9066 206.065 96.8289 205.771 96.819C205.452 96.8099 205.181 96.8735 204.957 97.0099C204.738 97.1462 204.558 97.3281 204.418 97.5537C204.279 97.7793 204.172 98.0248 204.097 98.2884C204.023 98.5471 203.971 98.7991 203.941 99.0438ZM218.146 95.2512L216.741 102.893H214.454L215.859 95.2512H218.146ZM216.375 98.4644L216.203 100.195C216.009 100.298 215.792 100.383 215.553 100.449C215.319 100.511 215.077 100.555 214.828 100.583C214.584 100.607 214.35 100.616 214.126 100.612C213.473 100.607 212.878 100.503 212.34 100.301C211.806 100.093 211.395 99.776 211.107 99.3471C210.817 98.919 210.713 98.3611 210.793 97.6735L211.204 95.2512H213.483L213.065 97.6809C213.019 97.9776 213.032 98.2132 213.102 98.3867C213.172 98.5611 213.298 98.6884 213.483 98.7686C213.667 98.8487 213.914 98.8884 214.223 98.8884C214.467 98.8934 214.708 98.8768 214.948 98.8388C215.192 98.7967 215.43 98.7421 215.665 98.6768C215.904 98.6057 216.141 98.5355 216.375 98.4644ZM222.323 95.2512L220.925 102.893H218.646L220.044 95.2512H222.323ZM227.487 95.2512L223.294 100.124H221.09L221.195 98.076H222.472L224.46 95.2512H227.487ZM223.242 102.893L222.099 99.6578L224.228 98.719L226.216 102.893H223.242ZM231.754 101.07L232.299 97.7652C232.319 97.5776 232.312 97.4008 232.277 97.2363C232.247 97.071 232.172 96.9372 232.053 96.833C231.933 96.7248 231.756 96.6686 231.522 96.6636C231.317 96.6595 231.135 96.6942 230.976 96.7702C230.821 96.8405 230.695 96.9438 230.595 97.081C230.5 97.2173 230.433 97.3768 230.394 97.5611L228.107 97.5752C228.131 97.1421 228.256 96.7677 228.48 96.452C228.709 96.1363 229.001 95.8801 229.355 95.6826C229.708 95.4801 230.095 95.3314 230.513 95.2371C230.932 95.1429 231.343 95.1008 231.746 95.1099C232.309 95.1198 232.817 95.233 233.27 95.4495C233.724 95.6611 234.07 95.9669 234.309 96.3669C234.553 96.7628 234.648 97.2429 234.593 97.8082L234.048 101.014C234.003 101.292 233.963 101.586 233.928 101.897C233.898 102.202 233.945 102.49 234.07 102.759L234.062 102.893L231.828 102.9C231.728 102.607 231.678 102.307 231.678 101.996C231.678 101.68 231.704 101.372 231.754 101.07ZM232.553 98.2314L232.344 99.4462L231.328 99.4396C231.128 99.4438 230.932 99.4719 230.737 99.5239C230.542 99.571 230.368 99.6462 230.214 99.7504C230.06 99.8487 229.93 99.976 229.825 100.131C229.721 100.282 229.656 100.461 229.631 100.668C229.606 100.819 229.619 100.953 229.669 101.07C229.723 101.183 229.805 101.273 229.915 101.339C230.025 101.405 230.159 101.44 230.319 101.445C230.553 101.45 230.779 101.41 230.999 101.325C231.223 101.236 231.417 101.111 231.581 100.95C231.746 100.786 231.858 100.597 231.918 100.386L232.359 101.317C232.234 101.577 232.085 101.812 231.91 102.024C231.736 102.236 231.539 102.419 231.32 102.574C231.1 102.726 230.856 102.843 230.588 102.928C230.324 103.012 230.034 103.053 229.721 103.048C229.273 103.039 228.862 102.94 228.488 102.751C228.119 102.559 227.825 102.295 227.606 101.96C227.387 101.626 227.287 101.24 227.308 100.802C227.327 100.293 227.459 99.8743 227.703 99.5454C227.948 99.2107 228.263 98.9471 228.653 98.7545C229.041 98.5611 229.464 98.4248 229.922 98.3446C230.381 98.2644 230.837 98.2248 231.29 98.2248L232.553 98.2314Z" fill="#E7342C"/>
<path d="M58.3249 5.32483L57.7631 8.37749H49.7832L47.1148 22.8926H43.0801L46.2976 5.32483H58.3249ZM47.7404 11.5508L51.5707 11.5629C52.7283 11.587 53.7966 11.8081 54.7754 12.2264C55.7629 12.6367 56.5374 13.248 57.0992 14.0605C57.6695 14.8648 57.9078 15.8663 57.8142 17.0648C57.7291 18.0381 57.4525 18.8908 56.9843 19.6228C56.5247 20.3547 55.9246 20.9661 55.184 21.4567C54.4435 21.9394 53.6221 22.3014 52.7198 22.5427C51.8176 22.784 50.8898 22.9006 49.9364 22.8926H43.0928L46.3104 5.32483H50.3833L47.7149 19.852L50.0769 19.8641C50.6898 19.8641 51.2558 19.7514 51.775 19.5262C52.3028 19.301 52.7411 18.9793 53.0901 18.5609C53.4476 18.1427 53.6732 17.6359 53.7668 17.0407C53.8434 16.5259 53.7924 16.0915 53.6136 15.7376C53.4349 15.3837 53.1582 15.1102 52.7837 14.9172C52.4091 14.7241 51.9623 14.6195 51.443 14.6034L47.1786 14.5914L47.7404 11.5508ZM65.5643 23.1339C64.611 23.1178 63.747 22.9489 62.9725 22.6271C62.2064 22.3054 61.5595 21.863 61.0317 21.3C60.504 20.7288 60.1167 20.0652 59.8699 19.309C59.623 18.5529 59.5336 17.7285 59.6017 16.8356L59.6528 16.365C59.755 15.4319 59.989 14.5552 60.3551 13.7347C60.7295 12.9142 61.2275 12.1902 61.8489 11.5629C62.4702 10.9274 63.2023 10.4367 64.045 10.0908C64.8962 9.73691 65.8452 9.57195 66.8922 9.59609C67.854 9.6122 68.6797 9.79724 69.3692 10.1511C70.0671 10.497 70.6289 10.9676 71.0545 11.5629C71.4886 12.1581 71.7866 12.8338 71.9483 13.5899C72.11 14.346 72.1441 15.1464 72.0504 15.991L71.8206 17.5354H61.0062L61.4147 15.1102L68.3222 15.1223L68.3988 14.7965C68.4584 14.3862 68.4371 14.0122 68.3349 13.6743C68.2328 13.3285 68.0413 13.051 67.7604 12.8418C67.4795 12.6327 67.1007 12.52 66.6241 12.5039C66.0708 12.4959 65.6069 12.6086 65.2324 12.8418C64.8579 13.0751 64.5556 13.3888 64.3258 13.7829C64.0961 14.1691 63.9173 14.5914 63.7896 15.0499C63.6704 15.5003 63.5811 15.9387 63.5215 16.365L63.4704 16.8235C63.4363 17.2418 63.4491 17.648 63.5087 18.0422C63.5768 18.4363 63.7045 18.7943 63.8918 19.116C64.0875 19.4297 64.3513 19.6871 64.6833 19.8882C65.0239 20.0813 65.4451 20.1858 65.9474 20.2019C66.6028 20.2181 67.2114 20.0974 67.7731 19.84C68.3435 19.5825 68.8542 19.2366 69.3053 18.8023L70.9907 20.8173C70.5991 21.3642 70.1054 21.8107 69.5096 22.1566C68.9138 22.4944 68.2711 22.7438 67.5816 22.9047C66.9007 23.0656 66.2283 23.1419 65.5643 23.1339ZM78.8046 20.214C79.2303 20.222 79.6048 20.1496 79.9282 19.9968C80.2516 19.8359 80.5113 19.6107 80.707 19.3211C80.9113 19.0315 81.0476 18.6977 81.1156 18.3196L84.78 18.3076C84.712 19.3131 84.3842 20.1819 83.7969 20.9138C83.2181 21.6377 82.4775 22.1968 81.5753 22.5909C80.6815 22.9771 79.7197 23.158 78.6897 23.1339C77.6938 23.1178 76.8384 22.9328 76.1234 22.5789C75.4084 22.2169 74.8253 21.7342 74.3741 21.131C73.9315 20.5196 73.6209 19.8199 73.4422 19.0315C73.2634 18.2433 73.2165 17.4187 73.3017 16.5581L73.3528 16.2323C73.4549 15.3153 73.6848 14.4546 74.0422 13.6502C74.3997 12.8378 74.8764 12.1259 75.4722 11.5146C76.0766 10.8952 76.7915 10.4166 77.6172 10.0787C78.4428 9.73286 79.3707 9.57195 80.4007 9.59609C81.4902 9.6122 82.418 9.84551 83.1841 10.2959C83.9501 10.7383 84.5332 11.3457 84.9332 12.1178C85.3333 12.882 85.5248 13.7629 85.5078 14.7603L81.8434 14.7482C81.8519 14.3781 81.8051 14.0243 81.7029 13.6864C81.6094 13.3486 81.4306 13.0751 81.1667 12.8659C80.9113 12.6487 80.5538 12.5321 80.0942 12.516C79.5664 12.5 79.1281 12.6086 78.7791 12.8418C78.4301 13.0671 78.1493 13.3727 77.9364 13.7588C77.7236 14.1369 77.5619 14.5471 77.4512 14.9895C77.3491 15.4238 77.2767 15.8381 77.2342 16.2323L77.2087 16.546C77.1746 16.8758 77.1449 17.2498 77.1193 17.6681C77.1023 18.0784 77.1321 18.4765 77.2087 18.8626C77.2938 19.2487 77.4555 19.5665 77.6938 19.8158C77.9407 20.0652 78.311 20.1979 78.8046 20.214ZM97.3306 9.83741L96.7945 12.7694H90.3596L90.9088 9.83741H97.3306ZM92.1087 9.83741L89.7081 22.8926H85.8142L88.2144 9.83741H92.1087ZM100.076 9.83741L97.676 22.8926H93.7686L96.1692 9.83741H100.076ZM111.631 9.83741L111.095 12.7694H104.455L105.005 9.83741H111.631ZM114.388 9.83741L111.989 22.8926H108.081L110.482 9.83741H114.388ZM104.022 9.83741H107.864L106.281 16.4857C106.154 17.1051 105.996 17.7244 105.808 18.3438C105.63 18.9632 105.396 19.5504 105.106 20.1054C104.825 20.6523 104.476 21.139 104.059 21.5653C103.651 21.9837 103.158 22.3134 102.579 22.5547C102 22.788 101.314 22.9006 100.523 22.8926H99.1312L99.5265 19.9727L99.9358 19.9485C100.37 19.9083 100.736 19.7796 101.033 19.5624C101.34 19.3372 101.591 19.0597 101.787 18.7299C101.991 18.392 102.157 18.0261 102.285 17.6319C102.412 17.2377 102.515 16.8476 102.591 16.4615C102.668 16.0754 102.736 15.7215 102.796 15.3997L104.022 9.83741ZM122.19 19.7796L123.122 14.1329C123.156 13.8111 123.143 13.5095 123.084 13.2279C123.032 12.9464 122.905 12.7172 122.701 12.5401C122.496 12.3552 122.195 12.2586 121.794 12.2505C121.445 12.2425 121.135 12.3029 120.862 12.4315C120.598 12.5522 120.381 12.7292 120.211 12.9624C120.049 13.1957 119.935 13.4692 119.866 13.7829L115.959 13.8071C116.002 13.0671 116.214 12.4276 116.597 11.8886C116.989 11.3496 117.487 10.9113 118.091 10.5734C118.695 10.2276 119.356 9.97418 120.07 9.81328C120.786 9.65245 121.488 9.58005 122.177 9.59609C123.139 9.6122 124.007 9.80526 124.781 10.1753C125.556 10.5372 126.148 11.0601 126.557 11.7439C126.974 12.4195 127.136 13.24 127.042 14.2053L126.11 19.6831C126.033 20.1577 125.965 20.6604 125.905 21.1914C125.854 21.7142 125.935 22.2048 126.148 22.6633L126.135 22.8926L122.318 22.9047C122.147 22.4059 122.062 21.8911 122.062 21.3602C122.062 20.8213 122.104 20.2944 122.19 19.7796ZM123.556 14.9292L123.198 17.0045L121.463 16.9924C121.121 17.0005 120.786 17.0487 120.453 17.1372C120.122 17.2176 119.824 17.3463 119.56 17.5233C119.296 17.6923 119.074 17.9095 118.896 18.1749C118.717 18.4323 118.606 18.738 118.563 19.0919C118.521 19.3493 118.542 19.5785 118.627 19.7796C118.722 19.9727 118.862 20.1255 119.049 20.2381C119.236 20.3507 119.466 20.411 119.739 20.4191C120.138 20.4271 120.526 20.3588 120.9 20.214C121.283 20.0612 121.616 19.848 121.896 19.5745C122.177 19.2929 122.369 18.9712 122.471 18.6092L123.224 20.2019C123.011 20.6443 122.756 21.0466 122.458 21.4085C122.16 21.7704 121.824 22.0842 121.449 22.3496C121.075 22.6071 120.658 22.8081 120.198 22.9529C119.747 23.0977 119.253 23.1661 118.717 23.158C117.951 23.1419 117.249 22.973 116.611 22.6513C115.98 22.3215 115.478 21.871 115.104 21.3C114.729 20.7288 114.559 20.0692 114.593 19.3211C114.627 18.4524 114.853 17.7365 115.27 17.1734C115.687 16.6023 116.228 16.1519 116.891 15.822C117.555 15.4923 118.278 15.259 119.062 15.1223C119.845 14.9855 120.624 14.9172 121.399 14.9172L123.556 14.9292ZM137.397 9.83741L134.996 22.8926H131.089L133.489 9.83741H137.397ZM141.686 9.83741L141.15 12.7453H128.753L129.289 9.83741H141.686ZM151.645 15.0257L151.096 17.9336H144.317L144.866 15.0257H151.645ZM147.19 9.83741L144.789 22.8926H140.895L143.295 9.83741H147.19ZM155.131 9.83741L152.731 22.8926H148.824L151.224 9.83741H155.131ZM162.945 19.7796L163.878 14.1329C163.911 13.8111 163.899 13.5095 163.839 13.2279C163.787 12.9464 163.66 12.7172 163.456 12.5401C163.251 12.3552 162.95 12.2586 162.549 12.2505C162.2 12.2425 161.89 12.3029 161.617 12.4315C161.354 12.5522 161.136 12.7292 160.966 12.9624C160.804 13.1957 160.689 13.4692 160.622 13.7829L156.714 13.8071C156.757 13.0671 156.97 12.4276 157.353 11.8886C157.744 11.3496 158.242 10.9113 158.846 10.5734C159.451 10.2276 160.111 9.97418 160.825 9.81328C161.541 9.65245 162.243 9.58005 162.932 9.59609C163.894 9.6122 164.763 9.80526 165.537 10.1753C166.311 10.5372 166.903 11.0601 167.312 11.7439C167.729 12.4195 167.891 13.24 167.797 14.2053L166.865 19.6831C166.788 20.1577 166.72 20.6604 166.66 21.1914C166.61 21.7142 166.69 22.2048 166.903 22.6633L166.89 22.8926L163.073 22.9047C162.902 22.4059 162.818 21.8911 162.818 21.3602C162.818 20.8213 162.86 20.2944 162.945 19.7796ZM164.311 14.9292L163.954 17.0045L162.218 16.9924C161.877 17.0005 161.541 17.0487 161.208 17.1372C160.877 17.2176 160.579 17.3463 160.315 17.5233C160.051 17.6923 159.829 17.9095 159.651 18.1749C159.473 18.4323 159.361 18.738 159.319 19.0919C159.277 19.3493 159.298 19.5785 159.382 19.7796C159.477 19.9727 159.617 20.1255 159.804 20.2381C159.991 20.3507 160.221 20.411 160.494 20.4191C160.894 20.4271 161.281 20.3588 161.655 20.214C162.038 20.0612 162.371 19.848 162.651 19.5745C162.932 19.2929 163.124 18.9712 163.226 18.6092L163.979 20.2019C163.766 20.6443 163.511 21.0466 163.213 21.4085C162.916 21.7704 162.579 22.0842 162.205 22.3496C161.83 22.6071 161.413 22.8081 160.953 22.9529C160.502 23.0977 160.009 23.1661 159.473 23.158C158.706 23.1419 158.004 22.973 157.366 22.6513C156.735 22.3215 156.233 21.871 155.859 21.3C155.485 20.7288 155.314 20.0692 155.348 19.3211C155.382 18.4524 155.608 17.7365 156.025 17.1734C156.442 16.6023 156.983 16.1519 157.646 15.822C158.31 15.4923 159.033 15.259 159.817 15.1223C160.6 14.9855 161.379 14.9172 162.154 14.9172L164.311 14.9292ZM172.828 16.3167H176.952L172.048 22.8926H167.937L172.828 16.3167ZM176.428 9.82534L182.608 9.83741L180.207 22.8926H176.326L178.19 12.7453L176.313 12.7332C175.938 12.7413 175.573 12.8137 175.215 12.9504C174.866 13.0872 174.56 13.2842 174.296 13.5416C174.041 13.791 173.879 14.1007 173.811 14.4707C173.751 14.7844 173.785 15.0499 173.913 15.267C174.041 15.4762 174.228 15.6371 174.474 15.7496C174.73 15.8623 175.006 15.9267 175.304 15.9427L179.122 15.9548L178.649 18.4524L175.266 18.4403C174.619 18.4323 173.972 18.3478 173.325 18.187C172.687 18.0181 172.104 17.7727 171.576 17.4509C171.057 17.1211 170.648 16.7029 170.351 16.1961C170.053 15.6813 169.925 15.0659 169.968 14.35C170.01 13.5537 170.227 12.87 170.618 12.2988C171.01 11.7277 171.517 11.2612 172.138 10.8992C172.768 10.5292 173.453 10.2597 174.194 10.0908C174.942 9.91385 175.687 9.82534 176.428 9.82534Z" fill="#E7342C"/>
<path d="M84.6023 39.7603L84.1504 42.2314H75.4663L75.9183 39.7603H84.6023ZM85.6891 33.1402L76.9835 42.2314H74.6484L75.0036 40.2688L83.6769 31.2283H86.0335L85.6891 33.1402ZM84.9251 31.2283L84.4732 33.6995H76.4025L76.8545 31.2283H84.9251ZM92.4365 39.6078L93.2218 34.8486C93.2507 34.5774 93.2393 34.3232 93.1895 34.0859C93.1466 33.8486 93.0391 33.6554 92.8668 33.5063C92.6945 33.3503 92.44 33.269 92.1024 33.2622C91.8086 33.2555 91.5462 33.3063 91.3171 33.4147C91.095 33.5164 90.9122 33.6656 90.7679 33.8621C90.6323 34.0588 90.5353 34.2893 90.4775 34.5537L87.1849 34.574C87.2208 33.9503 87.4001 33.4113 87.7228 32.9571C88.0533 32.5029 88.4722 32.1334 88.9821 31.8487C89.4911 31.5572 90.0473 31.3436 90.6498 31.208C91.2524 31.0725 91.8444 31.0114 92.4251 31.025C93.2358 31.0385 93.9678 31.2012 94.6211 31.5131C95.2735 31.8182 95.772 32.2588 96.1166 32.8351C96.4681 33.4045 96.6045 34.096 96.525 34.9096L95.7396 39.5264C95.6749 39.9264 95.6181 40.3501 95.5674 40.7975C95.5245 41.2382 95.5927 41.6517 95.772 42.0382L95.7615 42.2314L92.5441 42.2416C92.4006 41.8212 92.3289 41.3873 92.3289 40.9399C92.3289 40.4857 92.3648 40.0416 92.4365 39.6078ZM93.5874 35.5197L93.2866 37.2688L91.8226 37.2587C91.5357 37.2654 91.2524 37.3061 90.9725 37.3807C90.6927 37.4485 90.4417 37.5569 90.2196 37.7061C89.9974 37.8485 89.8103 38.0316 89.6599 38.2553C89.5094 38.4722 89.4159 38.7298 89.38 39.0281C89.3441 39.245 89.3625 39.4383 89.4342 39.6078C89.5129 39.7705 89.631 39.8992 89.7893 39.9942C89.9467 40.0891 90.1408 40.1399 90.37 40.1467C90.7075 40.1535 91.0338 40.0959 91.3495 39.9739C91.6722 39.845 91.952 39.6654 92.189 39.4349C92.4251 39.1976 92.5869 38.9264 92.6726 38.6213L93.3076 39.9637C93.1283 40.3365 92.9131 40.6755 92.6621 40.9806C92.4112 41.2857 92.1278 41.5501 91.8121 41.7738C91.4964 41.9907 91.1448 42.1602 90.7574 42.2822C90.377 42.4043 89.9616 42.4619 89.5094 42.4551C88.864 42.4416 88.272 42.2992 87.7341 42.028C87.2028 41.7501 86.7796 41.3704 86.464 40.8891C86.1482 40.4078 86.0048 39.8518 86.0335 39.2213C86.0622 38.4892 86.2523 37.8858 86.6038 37.4112C86.9554 36.9299 87.4109 36.5502 87.9703 36.2723C88.53 35.9943 89.1395 35.7977 89.7998 35.6825C90.4601 35.5672 91.116 35.5096 91.7692 35.5096L93.5874 35.5197ZM102.207 33.7097L100.647 42.2314H97.354L99.3768 31.2283H102.454L102.207 33.7097ZM101.324 36.3435L100.55 36.374C100.621 35.7096 100.773 35.0554 101.002 34.4113C101.239 33.7673 101.558 33.1876 101.959 32.6724C102.369 32.1504 102.871 31.7402 103.466 31.4419C104.069 31.1369 104.768 30.9945 105.564 31.0148C106.16 31.0283 106.651 31.147 107.039 31.3707C107.433 31.5877 107.742 31.8758 107.964 32.2351C108.194 32.5945 108.344 33.0045 108.416 33.4656C108.488 33.9198 108.498 34.3944 108.448 34.8893L107.146 42.2314H103.864L105.091 35.2655C105.134 34.9469 105.137 34.6554 105.102 34.391C105.066 34.1266 104.958 33.9097 104.779 33.7402C104.607 33.5707 104.33 33.4826 103.951 33.4758C103.527 33.4622 103.164 33.5436 102.864 33.7198C102.562 33.8893 102.307 34.1164 102.099 34.4012C101.891 34.6859 101.723 34.9978 101.594 35.3367C101.472 35.6757 101.382 36.0112 101.324 36.3435ZM107.953 36.1807L106.942 36.2723C107.013 35.6147 107.161 34.974 107.383 34.3503C107.612 33.7198 107.928 33.1503 108.33 32.6419C108.732 32.1334 109.227 31.7335 109.815 31.4419C110.403 31.1436 111.092 31.0012 111.881 31.0148C112.519 31.0351 113.047 31.164 113.463 31.4012C113.886 31.6385 114.209 31.9572 114.431 32.3571C114.661 32.7571 114.812 33.2079 114.883 33.7097C114.955 34.2045 114.958 34.7197 114.895 35.2554L113.668 42.2314H110.364L111.601 35.2452C111.645 34.9333 111.648 34.6452 111.612 34.3808C111.577 34.1164 111.473 33.9029 111.3 33.7402C111.128 33.5707 110.852 33.4826 110.471 33.4758C110.07 33.4622 109.722 33.5368 109.428 33.6995C109.133 33.8554 108.886 34.0655 108.685 34.33C108.484 34.5944 108.327 34.8893 108.211 35.2147C108.097 35.5333 108.011 35.8554 107.953 36.1807ZM121.437 42.4348C120.633 42.4212 119.905 42.2788 119.252 42.0077C118.607 41.7365 118.061 41.3636 117.617 40.8891C117.172 40.4078 116.846 39.8484 116.638 39.2111C116.429 38.5739 116.354 37.879 116.412 37.1264L116.455 36.7299C116.54 35.9435 116.738 35.2045 117.047 34.513C117.362 33.8215 117.781 33.2113 118.305 32.6826C118.829 32.147 119.446 31.7335 120.157 31.4419C120.874 31.1436 121.674 31.0046 122.556 31.025C123.366 31.0385 124.062 31.1945 124.644 31.4927C125.232 31.7843 125.706 32.1809 126.064 32.6826C126.43 33.1842 126.681 33.7537 126.817 34.391C126.954 35.0283 126.982 35.7028 126.904 36.4146L126.71 37.7163H117.595L117.94 35.6723L123.762 35.6825L123.825 35.4079C123.876 35.0621 123.858 34.7469 123.772 34.4621C123.685 34.1707 123.525 33.9368 123.288 33.7605C123.051 33.5842 122.731 33.4893 122.33 33.4758C121.864 33.469 121.473 33.5639 121.157 33.7605C120.841 33.9571 120.587 34.2215 120.393 34.5537C120.2 34.8791 120.049 35.235 119.941 35.6215C119.841 36.0011 119.765 36.3706 119.715 36.7299L119.672 37.1163C119.643 37.4688 119.654 37.8112 119.705 38.1434C119.761 38.4756 119.869 38.7773 120.027 39.0484C120.193 39.3129 120.415 39.5298 120.695 39.6992C120.981 39.862 121.336 39.9501 121.76 39.9637C122.312 39.9773 122.825 39.8755 123.299 39.6586C123.779 39.4416 124.209 39.1502 124.59 38.784L126.01 40.4823C125.68 40.9433 125.264 41.3196 124.762 41.6111C124.26 41.8958 123.718 42.1059 123.137 42.2416C122.563 42.3772 121.997 42.4416 121.437 42.4348ZM132.197 33.7503L130.627 42.2314H127.345L129.367 31.2283H132.434L132.197 33.7503ZM131.304 36.3435L130.562 36.374C130.634 35.7164 130.784 35.0655 131.014 34.4215C131.243 33.7774 131.559 33.1978 131.961 32.6826C132.37 32.1606 132.872 31.7504 133.467 31.4521C134.063 31.147 134.762 31.0012 135.566 31.0148C136.211 31.0351 136.742 31.1674 137.159 31.4114C137.582 31.6487 137.905 31.9674 138.127 32.3674C138.357 32.7605 138.504 33.2079 138.568 33.7097C138.633 34.2045 138.633 34.7197 138.568 35.2554L137.341 42.2314H134.038L135.286 35.2249C135.322 34.8926 135.312 34.5944 135.254 34.33C135.196 34.0655 135.064 33.8621 134.856 33.7198C134.655 33.5707 134.354 33.4893 133.952 33.4758C133.521 33.469 133.152 33.5503 132.844 33.7198C132.535 33.8826 132.277 34.1063 132.069 34.391C131.861 34.6689 131.695 34.9808 131.574 35.3265C131.459 35.6655 131.369 36.0045 131.304 36.3435ZM145.94 39.6078L146.725 34.8486C146.754 34.5774 146.743 34.3232 146.693 34.0859C146.65 33.8486 146.542 33.6554 146.37 33.5063C146.198 33.3503 145.943 33.269 145.606 33.2622C145.312 33.2555 145.049 33.3063 144.82 33.4147C144.598 33.5164 144.415 33.6656 144.271 33.8621C144.135 34.0588 144.039 34.2893 143.981 34.5537L140.688 34.574C140.724 33.9503 140.903 33.4113 141.226 32.9571C141.556 32.5029 141.976 32.1334 142.485 31.8487C142.994 31.5572 143.551 31.3436 144.153 31.208C144.756 31.0725 145.348 31.0114 145.928 31.025C146.739 31.0385 147.471 31.2012 148.123 31.5131C148.777 31.8182 149.275 32.2588 149.62 32.8351C149.971 33.4045 150.108 34.096 150.028 34.9096L149.243 39.5264C149.178 39.9264 149.121 40.3501 149.071 40.7975C149.028 41.2382 149.096 41.6517 149.275 42.0382L149.265 42.2314L146.047 42.2416C145.904 41.8212 145.832 41.3873 145.832 40.9399C145.832 40.4857 145.868 40.0416 145.94 39.6078ZM147.091 35.5197L146.79 37.2688L145.326 37.2587C145.039 37.2654 144.756 37.3061 144.476 37.3807C144.196 37.4485 143.945 37.5569 143.723 37.7061C143.501 37.8485 143.314 38.0316 143.163 38.2553C143.013 38.4722 142.919 38.7298 142.883 39.0281C142.847 39.245 142.866 39.4383 142.937 39.6078C143.016 39.7705 143.134 39.8992 143.293 39.9942C143.45 40.0891 143.644 40.1399 143.873 40.1467C144.211 40.1535 144.537 40.0959 144.853 39.9739C145.175 39.845 145.455 39.6654 145.692 39.4349C145.928 39.1976 146.09 38.9264 146.176 38.6213L146.811 39.9637C146.632 40.3365 146.416 40.6755 146.165 40.9806C145.914 41.2857 145.631 41.5501 145.315 41.7738C145 41.9907 144.648 42.1602 144.261 42.2822C143.88 42.4043 143.465 42.4619 143.013 42.4551C142.366 42.4416 141.775 42.2992 141.237 42.028C140.706 41.7501 140.282 41.3704 139.967 40.8891C139.652 40.4078 139.508 39.8518 139.536 39.2213C139.565 38.4892 139.755 37.8858 140.107 37.4112C140.458 36.9299 140.914 36.5502 141.474 36.2723C142.033 35.9943 142.643 35.7977 143.303 35.6825C143.963 35.5672 144.619 35.5096 145.273 35.5096L147.091 35.5197ZM155.71 33.7097L154.15 42.2314H150.857L152.88 31.2283H155.958L155.71 33.7097ZM154.828 36.3435L154.053 36.374C154.125 35.7096 154.276 35.0554 154.505 34.4113C154.742 33.7673 155.061 33.1876 155.463 32.6724C155.872 32.1504 156.374 31.7402 156.969 31.4419C157.572 31.1369 158.272 30.9945 159.067 31.0148C159.663 31.0283 160.154 31.147 160.542 31.3707C160.936 31.5877 161.245 31.8758 161.467 32.2351C161.697 32.5945 161.848 33.0045 161.919 33.4656C161.991 33.9198 162.002 34.3944 161.952 34.8893L160.649 42.2314H157.367L158.594 35.2655C158.637 34.9469 158.641 34.6554 158.605 34.391C158.569 34.1266 158.461 33.9097 158.282 33.7402C158.11 33.5707 157.833 33.4826 157.454 33.4758C157.031 33.4622 156.668 33.5436 156.367 33.7198C156.065 33.8893 155.811 34.1164 155.603 34.4012C155.394 34.6859 155.226 34.9978 155.097 35.3367C154.975 35.6757 154.885 36.0112 154.828 36.3435ZM161.457 36.1807L160.445 36.2723C160.517 35.6147 160.663 34.974 160.886 34.3503C161.116 33.7198 161.431 33.1503 161.834 32.6419C162.235 32.1334 162.73 31.7335 163.319 31.4419C163.906 31.1436 164.595 31.0012 165.384 31.0148C166.023 31.0351 166.55 31.164 166.966 31.4012C167.39 31.6385 167.712 31.9572 167.934 32.3571C168.164 32.7571 168.315 33.2079 168.387 33.7097C168.458 34.2045 168.462 34.7197 168.397 35.2554L167.171 42.2314H163.867L165.104 35.2452C165.147 34.9333 165.152 34.6452 165.116 34.3808C165.08 34.1164 164.976 33.9029 164.804 33.7402C164.631 33.5707 164.355 33.4826 163.974 33.4758C163.573 33.4622 163.225 33.5368 162.931 33.6995C162.636 33.8554 162.389 34.0655 162.189 34.33C161.988 34.5944 161.83 34.8893 161.715 35.2147C161.6 35.5333 161.514 35.8554 161.457 36.1807ZM175.811 39.6078L176.598 34.8486C176.626 34.5774 176.615 34.3232 176.565 34.0859C176.522 33.8486 176.414 33.6554 176.242 33.5063C176.07 33.3503 175.816 33.269 175.478 33.2622C175.184 33.2555 174.922 33.3063 174.693 33.4147C174.47 33.5164 174.287 33.6656 174.144 33.8621C174.007 34.0588 173.911 34.2893 173.853 34.5537L170.561 34.574C170.596 33.9503 170.776 33.4113 171.098 32.9571C171.428 32.5029 171.848 32.1334 172.358 31.8487C172.867 31.5572 173.423 31.3436 174.026 31.208C174.628 31.0725 175.22 31.0114 175.801 31.025C176.612 31.0385 177.344 31.2012 177.996 31.5131C178.649 31.8182 179.148 32.2588 179.492 32.8351C179.844 33.4045 179.979 34.096 179.901 34.9096L179.115 39.5264C179.051 39.9264 178.993 40.3501 178.943 40.7975C178.9 41.2382 178.968 41.6517 179.148 42.0382L179.137 42.2314L175.919 42.2416C175.775 41.8212 175.704 41.3873 175.704 40.9399C175.704 40.4857 175.74 40.0416 175.811 39.6078ZM176.963 35.5197L176.661 37.2688L175.198 37.2587C174.911 37.2654 174.628 37.3061 174.348 37.3807C174.068 37.4485 173.817 37.5569 173.595 37.7061C173.372 37.8485 173.186 38.0316 173.036 38.2553C172.885 38.4722 172.792 38.7298 172.756 39.0281C172.72 39.245 172.737 39.4383 172.809 39.6078C172.889 39.7705 173.007 39.8992 173.164 39.9942C173.322 40.0891 173.516 40.1399 173.746 40.1467C174.082 40.1535 174.409 40.0959 174.725 39.9739C175.048 39.845 175.328 39.6654 175.564 39.4349C175.801 39.1976 175.963 38.9264 176.048 38.6213L176.683 39.9637C176.504 40.3365 176.289 40.6755 176.038 40.9806C175.787 41.2857 175.503 41.5501 175.188 41.7738C174.872 41.9907 174.521 42.1602 174.133 42.2822C173.753 42.4043 173.336 42.4619 172.885 42.4551C172.239 42.4416 171.647 42.2992 171.109 42.028C170.578 41.7501 170.155 41.3704 169.839 40.8891C169.523 40.4078 169.38 39.8518 169.409 39.2213C169.438 38.4892 169.627 37.8858 169.979 37.4112C170.331 36.9299 170.786 36.5502 171.346 36.2723C171.906 35.9943 172.515 35.7977 173.175 35.6825C173.835 35.5672 174.492 35.5096 175.145 35.5096L176.963 35.5197ZM187.38 39.1095C187.444 38.8044 187.358 38.5671 187.122 38.3976C186.892 38.2282 186.612 38.1027 186.282 38.0214C185.959 37.9332 185.69 37.8621 185.475 37.8078C185.038 37.7061 184.6 37.5706 184.162 37.4011C183.732 37.2316 183.341 37.018 182.99 36.7604C182.645 36.5028 182.369 36.1909 182.16 35.8248C181.952 35.4588 181.86 35.0283 181.881 34.5334C181.909 33.93 182.071 33.4079 182.365 32.9673C182.666 32.5266 183.058 32.1606 183.538 31.869C184.019 31.5775 184.543 31.3606 185.109 31.2182C185.683 31.0759 186.253 31.0114 186.82 31.025C187.595 31.0317 188.323 31.1674 189.005 31.4317C189.693 31.6893 190.249 32.0826 190.672 32.6114C191.103 33.1334 191.318 33.7944 191.318 34.5944L188.057 34.5842C188.064 34.2994 188.022 34.052 187.928 33.8418C187.835 33.6316 187.688 33.4724 187.487 33.3639C187.286 33.2487 187.025 33.191 186.702 33.191C186.451 33.1842 186.2 33.2283 185.948 33.3232C185.705 33.4181 185.493 33.5537 185.313 33.73C185.142 33.9063 185.034 34.1232 184.99 34.3808C184.948 34.591 184.976 34.7673 185.077 34.9096C185.185 35.052 185.328 35.1672 185.507 35.2554C185.694 35.3367 185.888 35.4045 186.088 35.4588C186.296 35.513 186.483 35.557 186.648 35.5909C187.286 35.7401 187.907 35.9367 188.51 36.1807C189.119 36.4248 189.618 36.7706 190.005 37.218C190.392 37.6655 190.575 38.2553 190.554 38.9874C190.525 39.6111 190.346 40.1433 190.016 40.584C189.686 41.0246 189.263 41.384 188.747 41.6619C188.237 41.9331 187.681 42.1297 187.078 42.2517C186.483 42.3806 185.905 42.4416 185.346 42.4348C184.564 42.4212 183.825 42.2721 183.129 41.9873C182.433 41.6959 181.87 41.2755 181.44 40.7264C181.01 40.1773 180.787 39.5026 180.773 38.7027L183.828 38.7129C183.836 39.0518 183.904 39.3366 184.033 39.5671C184.162 39.7908 184.352 39.9637 184.603 40.0857C184.854 40.201 185.156 40.262 185.507 40.2688C185.78 40.2688 186.049 40.2315 186.314 40.1569C186.579 40.0755 186.809 39.9501 187.003 39.7807C187.197 39.6044 187.322 39.3807 187.38 39.1095ZM198.033 26.6116L195.171 42.2314H191.877L194.74 26.6116H198.033ZM203.962 39.6078L204.748 34.8486C204.777 34.5774 204.765 34.3232 204.716 34.0859C204.673 33.8486 204.565 33.6554 204.393 33.5063C204.221 33.3503 203.966 33.269 203.629 33.2622C203.335 33.2555 203.072 33.3063 202.843 33.4147C202.62 33.5164 202.437 33.6656 202.294 33.8621C202.158 34.0588 202.061 34.2893 202.004 34.5537L198.711 34.574C198.747 33.9503 198.926 33.4113 199.249 32.9571C199.579 32.5029 199.998 32.1334 200.508 31.8487C201.017 31.5572 201.573 31.3436 202.176 31.208C202.779 31.0725 203.371 31.0114 203.951 31.025C204.762 31.0385 205.494 31.2012 206.146 31.5131C206.8 31.8182 207.298 32.2588 207.643 32.8351C207.994 33.4045 208.13 34.096 208.051 34.9096L207.266 39.5264C207.201 39.9264 207.144 40.3501 207.093 40.7975C207.051 41.2382 207.119 41.6517 207.298 42.0382L207.288 42.2314L204.07 42.2416C203.926 41.8212 203.854 41.3873 203.854 40.9399C203.854 40.4857 203.89 40.0416 203.962 39.6078ZM205.114 35.5197L204.813 37.2688L203.349 37.2587C203.062 37.2654 202.779 37.3061 202.499 37.3807C202.219 37.4485 201.968 37.5569 201.746 37.7061C201.523 37.8485 201.336 38.0316 201.186 38.2553C201.036 38.4722 200.942 38.7298 200.906 39.0281C200.87 39.245 200.888 39.4383 200.959 39.6078C201.039 39.7705 201.157 39.8992 201.315 39.9942C201.473 40.0891 201.666 40.1399 201.896 40.1467C202.234 40.1535 202.56 40.0959 202.876 39.9739C203.198 39.845 203.478 39.6654 203.714 39.4349C203.951 39.1976 204.113 38.9264 204.199 38.6213L204.834 39.9637C204.654 40.3365 204.439 40.6755 204.188 40.9806C203.937 41.2857 203.654 41.5501 203.338 41.7738C203.023 41.9907 202.671 42.1602 202.284 42.2822C201.903 42.4043 201.487 42.4619 201.036 42.4551C200.389 42.4416 199.798 42.2992 199.259 42.028C198.729 41.7501 198.305 41.3704 197.99 40.8891C197.674 40.4078 197.53 39.8518 197.559 39.2213C197.588 38.4892 197.778 37.8858 198.129 37.4112C198.481 36.9299 198.937 36.5502 199.496 36.2723C200.056 35.9943 200.666 35.7977 201.326 35.6825C201.985 35.5672 202.642 35.5096 203.295 35.5096L205.114 35.5197ZM213.077 35.5401L210.408 34.9197L212.538 27.4251H221.287L220.867 29.9369H214.852L213.862 33.069C214.185 32.8792 214.54 32.7402 214.928 32.6521C215.322 32.5639 215.709 32.5164 216.09 32.5097C216.836 32.5097 217.478 32.6419 218.016 32.9063C218.561 33.1707 218.999 33.53 219.329 33.9842C219.666 34.4384 219.899 34.9604 220.028 35.5502C220.164 36.1401 220.204 36.757 220.147 37.4011C220.082 38.14 219.892 38.8213 219.577 39.445C219.261 40.0688 218.841 40.6078 218.317 41.062C217.8 41.5162 217.201 41.8653 216.52 42.1093C215.839 42.3467 215.103 42.4585 214.315 42.4449C213.632 42.4314 213.001 42.3195 212.42 42.1093C211.847 41.8924 211.34 41.5941 210.903 41.2145C210.466 40.8281 210.125 40.3704 209.881 39.8416C209.637 39.3061 209.515 38.7129 209.515 38.0621H212.786C212.801 38.3942 212.865 38.7027 212.98 38.9874C213.095 39.2721 213.27 39.5026 213.507 39.6789C213.751 39.8552 214.071 39.9501 214.465 39.9637C214.873 39.9705 215.221 39.8925 215.508 39.7297C215.803 39.5671 216.043 39.3502 216.23 39.0789C216.423 38.8078 216.57 38.5095 216.671 38.184C216.771 37.8519 216.839 37.5264 216.875 37.2078C216.911 36.8892 216.908 36.5841 216.865 36.2926C216.822 36.0011 216.732 35.7435 216.595 35.5197C216.467 35.2893 216.276 35.1062 216.025 34.9707C215.781 34.835 215.469 34.7639 215.089 34.7571C214.702 34.7571 214.336 34.8215 213.991 34.9502C213.647 35.0791 213.342 35.2757 213.077 35.5401ZM233.092 33.5063L232.661 36.1299C232.54 36.9367 232.332 37.7231 232.037 38.4892C231.75 39.2484 231.359 39.9297 230.864 40.5331C230.376 41.1365 229.774 41.6111 229.057 41.9569C228.339 42.2958 227.489 42.4551 226.506 42.4348C225.753 42.4212 225.111 42.2924 224.58 42.0483C224.049 41.8043 223.612 41.4755 223.267 41.062C222.923 40.6484 222.661 40.1739 222.482 39.6383C222.303 39.1027 222.195 38.5366 222.159 37.94C222.123 37.3434 222.144 36.7435 222.224 36.1401L222.643 33.5063C222.772 32.6927 222.984 31.9063 223.278 31.147C223.572 30.3877 223.963 29.7098 224.451 29.1132C224.946 28.5098 225.552 28.0387 226.269 27.6997C226.994 27.3607 227.844 27.2014 228.82 27.2217C229.573 27.2353 230.215 27.3641 230.746 27.6082C231.277 27.8522 231.711 28.181 232.048 28.5945C232.392 29.0013 232.654 29.4725 232.834 30.0081C233.013 30.5369 233.121 31.0996 233.156 31.6961C233.192 32.2927 233.17 32.8961 233.092 33.5063ZM229.336 36.5469L229.885 33.069C229.907 32.8385 229.932 32.5809 229.961 32.2961C229.989 32.0114 229.997 31.7199 229.982 31.4216C229.968 31.1233 229.917 30.8454 229.831 30.5877C229.753 30.3233 229.613 30.1098 229.412 29.947C229.218 29.7776 228.949 29.686 228.604 29.6725C228.124 29.6454 227.726 29.7402 227.41 29.9572C227.094 30.1741 226.843 30.4623 226.657 30.8216C226.471 31.1741 226.327 31.5538 226.227 31.9606C226.126 32.3605 226.047 32.7334 225.99 33.0792L225.452 36.5469C225.423 36.7706 225.394 37.0282 225.365 37.3197C225.337 37.6045 225.326 37.8993 225.334 38.2044C225.348 38.5095 225.398 38.7942 225.484 39.0586C225.57 39.3163 225.71 39.5298 225.904 39.6992C226.104 39.8688 226.377 39.9637 226.722 39.984C227.202 40.0044 227.6 39.906 227.916 39.6891C228.232 39.4654 228.483 39.1773 228.669 38.8247C228.863 38.4654 229.01 38.0824 229.111 37.6756C229.211 37.2621 229.286 36.8858 229.336 36.5469ZM234.017 40.7772C234.003 40.2891 234.175 39.8857 234.534 39.5671C234.899 39.2484 235.334 39.0892 235.836 39.0892C236.331 39.0823 236.754 39.2247 237.106 39.5162C237.464 39.8078 237.647 40.1908 237.654 40.6654C237.669 41.1602 237.493 41.567 237.128 41.8856C236.768 42.1975 236.334 42.3535 235.826 42.3535C235.345 42.3602 234.925 42.2178 234.566 41.9264C234.208 41.6348 234.025 41.2517 234.017 40.7772ZM244.703 33.9639L243.186 42.2314H239.903L241.926 31.2283H244.993L244.703 33.9639ZM248.502 31.1369L248.093 34.096C247.906 34.0689 247.724 34.0452 247.543 34.0249C247.364 34.0045 247.181 33.9944 246.995 33.9944C246.586 33.9876 246.217 34.035 245.887 34.1368C245.563 34.2316 245.28 34.3774 245.036 34.574C244.8 34.7707 244.602 35.0147 244.445 35.3062C244.287 35.5909 244.169 35.9164 244.09 36.2825L243.487 35.9977C243.566 35.4757 243.688 34.9265 243.853 34.3503C244.018 33.7673 244.247 33.2215 244.541 32.7131C244.843 32.1978 245.227 31.7843 245.693 31.4724C246.166 31.1538 246.748 30.9945 247.436 30.9945C247.615 30.9945 247.791 31.008 247.963 31.0351C248.142 31.0623 248.322 31.0962 248.502 31.1369ZM255.001 39.4145L256.507 31.2283H259.8L257.777 42.2314H254.71L255.001 39.4145ZM255.679 37.3197L256.583 37.2993C256.504 37.9298 256.354 38.5569 256.131 39.1807C255.915 39.7976 255.615 40.3535 255.227 40.8484C254.847 41.3433 254.37 41.7365 253.795 42.028C253.229 42.3195 252.558 42.4585 251.783 42.4449C251.145 42.4314 250.607 42.3161 250.17 42.0992C249.732 41.8822 249.38 41.584 249.115 41.2043C248.857 40.8247 248.681 40.3908 248.588 39.9026C248.502 39.4145 248.487 38.8959 248.545 38.3468L249.803 31.2283H253.085L251.805 38.3874C251.783 38.5976 251.783 38.7976 251.805 38.9874C251.834 39.1773 251.892 39.3434 251.977 39.4857C252.063 39.6281 252.185 39.7434 252.343 39.8315C252.508 39.9128 252.72 39.9569 252.978 39.9637C253.559 39.9908 254.032 39.8823 254.399 39.6383C254.771 39.3874 255.058 39.0586 255.259 38.6519C255.468 38.2383 255.608 37.7943 255.679 37.3197Z" fill="#E7342C"/>
</svg>
