<svg width="100" height="100" viewBox="0 0 100 100" fill="none" xmlns="http://www.w3.org/2000/svg">
<g clip-path="url(#clip0_95_120)">
<path d="M90.9888 55.8867C94.2436 52.629 94.2393 47.3532 90.9784 44.1016C89.8212 42.9476 88.3493 42.1593 86.7476 41.8334V16.5001C91.2625 15.584 94.1805 11.1852 93.2627 6.67502C92.4729 2.78804 89.0497 -0.00366559 85.0786 3.68426e-06H14.9963C10.3878 -0.00427714 6.64931 3.72248 6.64441 8.32497C6.64074 12.2908 9.43573 15.7106 13.3273 16.5001V41.8334C8.81183 42.7488 5.89439 47.1483 6.81095 51.6578C7.4777 54.9375 10.0443 57.5005 13.3273 58.1665V83.4997C8.81183 84.4152 5.89439 88.8147 6.81095 93.3248C7.60138 97.2112 11.0252 100.004 14.9963 99.9998H85.0786C89.6859 100.005 93.4256 96.2768 93.4305 91.6749C93.4342 87.709 90.6386 84.2892 86.7476 83.4997V58.1665C88.353 57.8356 89.8273 57.0425 90.9888 55.8867ZM90.0845 49.9999C90.09 52.7555 87.8583 54.9944 85.0982 55.0005C85.0921 55.0005 85.0853 55.0005 85.0786 55.0005H68.2603C68.245 54.9051 68.2101 54.792 68.1936 54.6954C68.1115 54.2196 68.0038 53.7218 67.8599 53.1952C67.8152 53.0283 67.7742 52.862 67.7246 52.695C67.5293 52.0284 67.3009 51.3282 67.0168 50.587C66.9856 50.5069 66.947 50.4207 66.9151 50.3406C66.65 49.6648 66.3445 48.9572 66.0059 48.2216C65.9037 48.0002 65.7978 47.7733 65.6882 47.5446C65.3551 46.8285 64.9743 46.0866 64.5653 45.3149C64.5077 45.2066 64.4655 45.1094 64.3994 44.9999H85.0786C87.843 44.9999 90.0845 47.2388 90.0845 49.9999ZM83.4096 83.3334H16.6647V58.3334H31.7571C31.7571 58.3701 31.7687 58.4056 31.7724 58.4417C31.7963 58.6771 31.8373 58.9034 31.8697 59.1352C31.9175 59.4984 31.964 59.8605 32.0363 60.2152C32.084 60.4586 32.1495 60.6971 32.2028 60.9368C32.283 61.2701 32.3699 61.6034 32.4599 61.9367C32.5334 62.1801 32.6265 62.4167 32.7049 62.6571C32.812 62.9683 32.9204 63.2784 33.0391 63.5836C33.1377 63.8221 33.2461 64.052 33.3545 64.285C33.4879 64.5785 33.6232 64.8703 33.7733 65.1534C33.8939 65.3839 34.0237 65.6053 34.1516 65.8285C34.3194 66.1031 34.4743 66.3759 34.6531 66.6407C34.7945 66.8584 34.9433 67.07 35.0927 67.2797C35.2764 67.5372 35.4631 67.7806 35.659 68.035C35.8207 68.2386 35.9878 68.4374 36.1592 68.6319C36.365 68.8698 36.575 69.1003 36.7917 69.3266C36.9705 69.5149 37.1523 69.6984 37.3409 69.8782C37.5662 70.0953 37.7989 70.3051 38.0365 70.5099C38.2318 70.6763 38.4283 70.8432 38.6304 71.0096C38.8777 71.2065 39.1312 71.3918 39.3877 71.5752C39.5977 71.7269 39.8071 71.8767 40.0233 72.0186C40.2908 72.1856 40.5645 72.3519 40.84 72.5188C41.0617 72.6485 41.2821 72.78 41.5074 72.9004C41.7939 73.0497 42.0884 73.1848 42.3835 73.3218C42.6137 73.4282 42.8421 73.5383 43.0772 73.6349C43.3864 73.7633 43.7036 73.8704 44.0207 73.9798C44.2546 74.0618 44.4861 74.1462 44.7267 74.2232C45.0604 74.3247 45.4069 74.4048 45.751 74.488C45.9812 74.5431 46.2059 74.6085 46.4398 74.655C46.8267 74.7314 47.2229 74.7834 47.6184 74.8354C47.8162 74.8617 48.0115 74.9014 48.2135 74.9216C48.8148 74.9803 49.4215 75.0127 50.0375 75.0127C50.6528 75.0127 51.2601 74.9803 51.8614 74.9216C52.0628 74.9014 52.2588 74.8617 52.4571 74.8354C52.852 74.7834 53.2476 74.7314 53.6351 74.655C53.869 74.6085 54.0943 74.5431 54.3239 74.488C54.668 74.4048 55.0127 74.3217 55.3482 74.2232C55.5889 74.1517 55.8209 74.0569 56.0542 73.9798C56.3713 73.8704 56.6891 73.7633 56.9977 73.6349C57.2328 73.5383 57.4612 73.4282 57.692 73.3218C57.9865 73.1848 58.281 73.0497 58.5669 72.9004C58.7965 72.78 59.0163 72.6485 59.2349 72.5188C59.5104 72.3519 59.7841 72.1972 60.051 72.0186C60.2684 71.8773 60.4766 71.7269 60.6866 71.5752C60.9437 71.3918 61.1972 71.2065 61.4446 71.0096C61.646 70.8432 61.8431 70.6763 62.0378 70.5099C62.2754 70.3051 62.5093 70.0953 62.734 69.8782C62.9226 69.6984 63.1044 69.5149 63.2832 69.3266C63.4999 69.1003 63.7099 68.8698 63.9157 68.6319C64.0859 68.4374 64.2524 68.238 64.4165 68.035C64.6112 67.7885 64.7985 67.5354 64.9816 67.2797C65.1322 67.07 65.2804 66.8584 65.4224 66.6407C65.589 66.3753 65.7561 66.1031 65.9227 65.8285C66.0512 65.6053 66.1817 65.3839 66.3017 65.1534C66.4523 64.8703 66.5876 64.5785 66.7204 64.285C66.8288 64.052 66.9372 63.8221 67.0358 63.5836C67.1594 63.279 67.2678 62.9683 67.3695 62.6571C67.4533 62.4167 67.5366 62.1801 67.6156 61.9367C67.7135 61.6034 67.7919 61.2701 67.8721 60.9368C67.9284 60.6971 67.994 60.4586 68.0387 60.2152C68.1091 59.8605 68.1556 59.4984 68.2058 59.1352C68.237 58.9034 68.2793 58.6771 68.3025 58.4417C68.3025 58.4056 68.3142 58.3701 68.3172 58.3334H83.4102V83.3334H83.4096ZM16.6647 16.6664H83.4096V41.6664H62.5203C62.4536 41.5533 62.3832 41.4414 62.3152 41.3331C62.1481 41.05 61.9815 40.7699 61.8027 40.4886L61.3674 39.7853C61.2003 39.515 61.0337 39.249 60.8666 38.9799C60.7154 38.7414 60.5629 38.5035 60.4092 38.2668C60.2421 38.0063 60.0755 37.7482 59.9084 37.4914L59.4431 36.785L58.9545 36.0494L58.4769 35.3461C58.319 35.1137 58.1598 34.8801 58.0018 34.6514C57.8432 34.4233 57.6895 34.1994 57.5346 33.9768C57.3791 33.753 57.2261 33.5329 57.0736 33.3096L56.6218 32.67L56.1711 32.0352C56.0297 31.8364 55.8907 31.6468 55.7523 31.4542C55.614 31.2628 55.4597 31.05 55.317 30.8549C55.1731 30.6592 55.0568 30.4959 54.9258 30.3198L54.5156 29.7615L54.1666 29.2948C54.0355 29.1163 53.9015 28.9365 53.7747 28.7695C53.6847 28.6484 53.6082 28.5402 53.5145 28.4246L53.1043 27.8816L52.9371 27.6565L52.552 27.1569L52.353 26.8982L52.0763 26.5435L51.9943 26.4365C51.6324 25.9748 51.3985 25.6818 51.352 25.625C50.7281 24.907 49.6395 24.8306 48.9207 25.4537C48.8595 25.5063 48.8025 25.5638 48.7486 25.625C48.7021 25.6818 48.4682 25.9748 48.1064 26.4365L48.0249 26.5435L47.7292 26.9233L47.551 27.1532L47.1935 27.6198L46.9853 27.8913L46.6094 28.391L46.313 28.7848L45.9524 29.2685L45.5734 29.7682L45.1944 30.2831C45.0524 30.4751 44.914 30.6647 44.7677 30.8671L44.3789 31.4035L43.9081 32.0547L43.5126 32.6119C43.3454 32.8498 43.1789 33.0876 43.0019 33.3353C42.8691 33.5237 42.7368 33.7151 42.6015 33.9065L42.0707 34.6746L41.6537 35.2849L41.118 36.0781C40.9765 36.2866 40.8363 36.4982 40.6955 36.7117C40.5137 36.985 40.3318 37.2584 40.15 37.5366C40.0104 37.7531 39.8702 37.9684 39.73 38.1867C39.55 38.4668 39.3694 38.7469 39.1912 39.0294C39.0473 39.2545 38.9053 39.4813 38.7614 39.7082L38.2428 40.5418C38.0995 40.7784 37.9556 41.0133 37.8142 41.2499C37.7328 41.3863 37.6471 41.5196 37.5668 41.6566H16.6647V16.6664ZM39.9486 44.1664C43.0185 39.0441 46.3871 34.1071 50.0375 29.3798C50.3081 29.7315 50.6136 30.1333 50.9461 30.5779C54.2553 34.9363 57.3191 39.4746 60.1239 44.1719C64.1991 51.1778 65.0551 54.833 65.0551 56.6664C65.0551 64.9504 58.3312 71.667 50.0375 71.667C41.7431 71.667 35.0198 64.9504 35.0198 56.6664C35.0272 56.0805 35.0939 55.4977 35.2164 54.9247C36.2266 51.1154 37.8228 47.4859 39.9486 44.1664ZM9.99044 8.33353C9.99044 5.57179 12.2313 3.33354 14.9963 3.33354H85.0786C87.843 3.33354 90.0845 5.57179 90.0845 8.33353C90.0845 11.0947 87.843 13.3329 85.0786 13.3329H14.9963C12.2313 13.3329 9.99044 11.0947 9.99044 8.33353ZM9.99044 49.9999C9.98493 47.2443 12.2166 45.006 14.9755 44.9999C14.9828 44.9999 14.9896 44.9999 14.9957 44.9999H35.6621C35.5972 45.1216 35.5507 45.2262 35.487 45.3467C35.0859 46.105 34.718 46.8352 34.3825 47.5366C34.271 47.7702 34.1633 48.0002 34.0586 48.2283C33.7249 48.9585 33.4175 49.6636 33.1561 50.3351C33.1224 50.4164 33.0826 50.5014 33.0502 50.587C32.7673 51.3282 32.5377 52.0247 32.343 52.695C32.2928 52.8607 32.253 53.0283 32.2077 53.2044C32.0712 53.7224 31.9597 54.219 31.874 54.6941C31.8575 54.7914 31.822 54.9039 31.8079 54.9993H14.9963C12.2313 55.0005 9.99044 52.761 9.99044 49.9999ZM90.0845 91.6663C90.0845 94.4281 87.843 96.6669 85.0786 96.6669H14.9963C12.2313 96.6669 9.99044 94.4281 9.99044 91.6663C9.99044 88.9052 12.2313 86.6669 14.9963 86.6669H85.0786C87.843 86.6669 90.0845 88.9052 90.0845 91.6663Z" fill="white"/>
<path d="M50.0382 68.3333C56.4859 68.326 61.711 63.1065 61.719 56.6663C61.719 55.9349 61.3963 52.9885 57.2421 45.8493C56.8276 45.0274 55.8247 44.6953 55.0018 45.1081C54.1783 45.5215 53.8459 46.5232 54.2591 47.3457C54.2891 47.4044 54.3216 47.4613 54.3583 47.5164C58.2578 54.2281 58.3815 56.6553 58.3815 56.6663C58.3754 61.2663 54.643 64.9937 50.0382 64.9998C49.1161 64.9998 48.3691 65.7465 48.3691 66.6663C48.3691 67.5873 49.1161 68.3333 50.0382 68.3333Z" fill="white"/>
</g>
<defs>
<clipPath id="clip0_95_120">
<rect width="100" height="100" fill="white"/>
</clipPath>
</defs>
</svg>
