<svg width="100" height="100" viewBox="0 0 100 100" fill="none" xmlns="http://www.w3.org/2000/svg">
<path d="M25.676 34.9458C25.4985 34.9489 25.3222 34.917 25.157 34.852C24.9919 34.7869 24.8412 34.69 24.7135 34.5667C24.4556 34.3177 24.3073 33.9765 24.301 33.6181C24.2947 33.2597 24.4311 32.9135 24.6801 32.6556C24.9291 32.3977 25.2703 32.2494 25.6287 32.2431C32.2594 32.169 38.8758 31.6089 45.4246 30.5674C45.541 30.5431 45.6601 30.535 45.7787 30.5431C47.4202 30.6299 49.0127 31.1321 50.4071 32.0025C50.6373 32.1698 50.8089 32.4055 50.8973 32.676C50.9857 32.9466 50.9864 33.2381 50.8994 33.509C50.8124 33.78 50.642 34.0166 50.4126 34.185C50.1832 34.3535 49.9065 34.4452 49.6219 34.4471C49.3037 34.4471 48.9951 34.3378 48.7476 34.1377C47.8366 33.6156 46.8163 33.3134 45.7679 33.2552C39.1314 34.2979 32.4285 34.8629 25.7111 34.9458H25.676Z" fill="white"/>
<path d="M75.1077 67.0943C73.9547 67.0958 72.831 66.7314 71.8982 66.0538L71.6077 65.8524C71.5698 65.8267 71.5063 65.7754 71.4469 65.7173L55.5401 54.2619C55.3916 54.1605 55.2648 54.0305 55.1672 53.8795C55.0695 53.7286 55.003 53.5596 54.9715 53.3826C54.94 53.2056 54.9441 53.024 54.9836 52.8486C55.0232 52.6732 55.0973 52.5075 55.2017 52.3611C55.3061 52.2147 55.4386 52.0906 55.5916 51.9961C55.7446 51.9016 55.9149 51.8386 56.0925 51.8107C56.2701 51.7828 56.4515 51.7907 56.6261 51.8338C56.8006 51.877 56.9648 51.9545 57.109 52.0619L58.1901 52.8321L73.0752 63.5659C73.1198 63.5978 73.1622 63.6326 73.2023 63.67L73.4604 63.8497C74.0465 64.2698 74.7716 64.449 75.4859 64.3501C76.2003 64.2513 76.8495 63.8821 77.2996 63.3186C77.5757 62.9701 77.7639 62.5603 77.8483 62.1238C77.9328 61.6873 77.9109 61.2368 77.7847 60.8105C77.6329 60.2735 77.3191 59.7963 76.8861 59.4443L55.6104 42.1105C47.4631 46.4348 41.6915 44.2105 38.9361 42.4497C38.4807 42.1533 38.111 41.7428 37.8638 41.2589C37.6166 40.7751 37.5005 40.2349 37.5272 39.6923C37.5538 39.1496 37.7223 38.6234 38.0157 38.1661C38.3092 37.7089 38.7174 37.3365 39.1996 37.0862L51.378 30.6186C52.1553 30.212 53.0054 29.9632 53.8793 29.8867C54.7532 29.8101 55.6337 29.9073 56.4698 30.1727L63.6739 32.5105C65.7948 33.2081 68.0952 33.1252 70.1604 32.2767L73.2982 30.9916C73.4625 30.9243 73.6384 30.8899 73.8159 30.8905C73.9934 30.8912 74.169 30.9268 74.3328 30.9953C74.4965 31.0638 74.6452 31.1639 74.7703 31.2899C74.8954 31.4158 74.9944 31.5652 75.0617 31.7294C75.1291 31.8937 75.1634 32.0696 75.1628 32.2471C75.1622 32.4246 75.1266 32.6003 75.0581 32.764C74.9895 32.9278 74.8894 33.0764 74.7635 33.2015C74.6375 33.3266 74.4881 33.4256 74.3239 33.493L71.1888 34.7767C68.5294 35.8714 65.5663 35.9788 62.8347 35.0794L55.6374 32.743C55.1444 32.5881 54.6257 32.5322 54.1111 32.5786C53.5965 32.625 53.0961 32.7727 52.6388 33.0132L40.4577 39.4821C40.3899 39.5141 40.3322 39.5642 40.2912 39.627C40.2502 39.6897 40.2273 39.7626 40.2252 39.8375C40.2196 39.9053 40.2328 39.9733 40.2633 40.0341C40.2939 40.0949 40.3405 40.1461 40.3982 40.1821C43.2361 41.9957 48.1077 43.3254 55.082 39.3186C55.3192 39.1824 55.5922 39.1213 55.8648 39.1435C56.1375 39.1657 56.397 39.2701 56.609 39.443L78.582 57.3484C79.4437 58.0435 80.0703 58.9872 80.3766 60.0511C80.6193 60.8884 80.6601 61.7714 80.4957 62.6276C80.3312 63.4838 79.9663 64.2888 79.4307 64.9767C78.9204 65.6372 78.2652 66.1717 77.5157 66.5388C76.7662 66.906 75.9423 67.096 75.1077 67.0943Z" fill="white"/>
<path d="M69.5168 73.3577C68.3716 73.3589 67.2545 73.0032 66.3208 72.3401L51.7127 61.9753C51.4272 61.7653 51.2357 61.4516 51.1793 61.1017C51.1229 60.7519 51.2062 60.3939 51.4113 60.1048C51.6163 59.8158 51.9267 59.6189 52.2755 59.5565C52.6243 59.4941 52.9837 59.5712 53.2762 59.7712L67.8843 70.1347C68.4972 70.535 69.2411 70.683 69.9605 70.5478C70.68 70.4125 71.3193 70.0045 71.745 69.4089C72.1706 68.8133 72.3497 68.0763 72.2447 67.3518C72.1397 66.6273 71.7588 65.9715 71.1816 65.5212L56.6222 55.028C56.3538 54.8109 56.1787 54.4993 56.1327 54.1572C56.0868 53.8151 56.1735 53.4684 56.375 53.1882C56.5766 52.908 56.8777 52.7156 57.2167 52.6503C57.5556 52.5851 57.9067 52.652 58.1978 52.8374L72.7613 63.332C73.7093 64.0183 74.4156 64.9872 74.779 66.0997C75.1423 67.2122 75.144 68.4112 74.7839 69.5248C74.4238 70.6383 73.7203 71.6092 72.7743 72.2983C71.8283 72.9873 70.6884 73.3591 69.5181 73.3604L69.5168 73.3577Z" fill="white"/>
<path d="M63.2089 78.7732C62.1212 78.7728 61.0596 78.4394 60.167 77.8178L47.0765 68.7502C46.7817 68.5461 46.5801 68.2333 46.5159 67.8805C46.4518 67.5277 46.5305 67.1639 46.7346 66.8691C46.9387 66.5744 47.2515 66.3727 47.6043 66.3086C47.9571 66.2445 48.3209 66.3231 48.6157 66.5272L61.7062 75.5948C61.9937 75.7936 62.3175 75.9339 62.6592 76.0076C63.0008 76.0812 63.3537 76.0868 63.6975 76.0241C64.0414 75.9613 64.3695 75.8315 64.6631 75.6419C64.9568 75.4523 65.2102 75.2067 65.4089 74.9191C65.8044 74.3426 65.958 73.634 65.8367 72.9454C65.7154 72.2569 65.3289 71.6434 64.7603 71.2367L51.7332 61.9962C51.5851 61.8949 51.4587 61.7651 51.3612 61.6145C51.2638 61.4638 51.1973 61.2952 51.1657 61.1186C51.1341 60.942 51.138 60.7609 51.1772 60.5858C51.2163 60.4107 51.29 60.2451 51.3938 60.0988C51.4976 59.9524 51.6295 59.8282 51.7818 59.7334C51.9342 59.6386 52.1038 59.5751 52.281 59.5465C52.4581 59.518 52.6392 59.525 52.8136 59.5671C52.988 59.6093 53.1522 59.6858 53.2967 59.7921L66.3238 69.0326C67.4704 69.8521 68.2499 71.0887 68.4948 72.4767C68.7396 73.8646 68.4303 75.2932 67.6332 76.4556C67.235 77.0365 66.7255 77.5327 66.1342 77.9155C65.543 78.2982 64.8817 78.5599 64.1886 78.6854C63.8654 78.7443 63.5375 78.7737 63.2089 78.7732Z" fill="white"/>
<path d="M55.488 83.2159C54.5425 83.2113 53.6148 82.9587 52.7974 82.4835L45.5312 78.2943C45.2234 78.1138 44.9994 77.8189 44.9082 77.4739C44.817 77.1289 44.8659 76.7619 45.0443 76.4528C45.2228 76.1438 45.5162 75.9179 45.8606 75.8244C46.205 75.7309 46.5723 75.7774 46.8825 75.9538L54.1474 80.1429C54.7616 80.4896 55.4869 80.5824 56.1686 80.4017C56.8503 80.2209 57.4344 79.7808 57.7961 79.1754C58.1397 78.595 58.2489 77.9054 58.1015 77.2472C57.9541 76.589 57.5612 76.0119 57.0028 75.6335L47.719 69.2024C47.5732 69.1013 47.4486 68.9725 47.3525 68.8233C47.2564 68.6741 47.1907 68.5075 47.159 68.3329C47.1273 68.1583 47.1303 67.9791 47.1679 67.8057C47.2054 67.6322 47.2768 67.4679 47.3778 67.322C47.4789 67.1761 47.6077 67.0516 47.7569 66.9555C47.9061 66.8594 48.0727 66.7936 48.2474 66.7619C48.422 66.7303 48.6011 66.7333 48.7746 66.7708C48.948 66.8084 49.1123 66.8797 49.2582 66.9808L58.5407 73.4105C59.483 74.0629 60.1924 74.999 60.5656 76.0827C60.9388 77.1663 60.9562 78.3408 60.6154 79.435C60.2746 80.5293 59.5933 81.4861 58.6708 82.1662C57.7483 82.8463 56.634 83.214 55.488 83.2159Z" fill="white"/>
<path d="M40.1868 82.4093C39.0813 82.411 38.0015 82.0754 37.0918 81.4472C36.182 80.819 35.4856 79.9282 35.0955 78.8938C34.7054 77.8593 34.6402 76.7305 34.9086 75.658C35.177 74.5856 35.7663 73.6205 36.5976 72.8918L40.2071 69.7296C40.7435 69.2587 41.3673 68.8981 42.0431 68.6683C42.7188 68.4385 43.4332 68.3441 44.1455 68.3904C44.8577 68.4367 45.5539 68.6228 46.1942 68.9381C46.8345 69.2535 47.4064 69.6919 47.8773 70.2283C48.3482 70.7647 48.7087 71.3887 48.9384 72.0645C49.1681 72.7403 49.2624 73.4547 49.2159 74.1669C49.1695 74.8792 48.9832 75.5753 48.6678 76.2156C48.3523 76.8559 47.9138 77.4277 47.3773 77.8985L43.7679 81.0674C42.7772 81.9355 41.504 82.4126 40.1868 82.4093ZM43.7909 71.0809C43.1281 71.0792 42.4876 71.3195 41.9895 71.7566L38.3787 74.9228C38.109 75.1595 37.8885 75.4469 37.7298 75.7688C37.5712 76.0907 37.4775 76.4406 37.4541 76.7987C37.4307 77.1568 37.478 77.5159 37.5934 77.8557C37.7088 78.1955 37.89 78.5092 38.1267 78.7789C38.6046 79.3237 39.2794 79.6563 40.0025 79.7036C40.3606 79.727 40.7198 79.6796 41.0595 79.5642C41.3993 79.4488 41.713 79.2676 41.9827 79.031L45.5922 75.862C46.0086 75.4955 46.3035 75.0109 46.4376 74.4727C46.5718 73.9345 46.539 73.3682 46.3434 72.8491C46.1478 72.3301 45.7988 71.8828 45.3429 71.567C44.8869 71.2511 44.3455 71.0816 43.7909 71.0809Z" fill="white"/>
<path d="M32.0057 78.728C31.8854 78.728 31.7651 78.728 31.6449 78.7171C30.9322 78.6725 30.2354 78.4872 29.5948 78.1717C28.9541 77.8563 28.3823 77.417 27.9124 76.8793C27.4351 76.3428 27.0684 75.7173 26.8335 75.0387C26.5985 74.3602 26.4998 73.6418 26.5431 72.925C26.5865 72.2082 26.7709 71.507 27.0859 70.8617C27.4009 70.2164 27.8402 69.6396 28.3787 69.1644L34.4084 63.8712C34.9448 63.4003 35.5686 63.0397 36.2444 62.8099C36.9202 62.5801 37.6345 62.4857 38.3468 62.532C39.0591 62.5783 39.7552 62.7644 40.3955 63.0797C41.0358 63.3951 41.6078 63.8335 42.0787 64.3699L41.1016 65.3063L42.1165 64.4144C42.5876 64.9507 42.9483 65.5746 43.1782 66.2504C43.4081 66.9261 43.5026 67.6406 43.4563 68.3529C43.41 69.0652 43.2238 69.7614 42.9084 70.4017C42.5929 71.042 42.1544 71.6139 41.6179 72.0847L35.5827 77.378C34.5953 78.2498 33.3229 78.73 32.0057 78.728ZM37.9854 65.2226C37.3235 65.2208 36.6838 65.4611 36.1868 65.8982L30.157 71.1915C29.7533 71.556 29.4658 72.0311 29.33 72.5578C29.1943 73.0845 29.2165 73.6394 29.3938 74.1536C29.5711 74.6678 29.8957 75.1185 30.3272 75.4496C30.7587 75.7807 31.278 75.9776 31.8206 76.0158C32.1789 76.0404 32.5385 75.9933 32.8784 75.8773C33.2184 75.7612 33.5317 75.5786 33.8003 75.3401L39.83 70.0469C40.0998 69.8102 40.3203 69.5226 40.479 69.2007C40.6376 68.8788 40.7313 68.5287 40.7547 68.1706C40.778 67.8124 40.7305 67.4532 40.615 67.1134C40.4995 66.7736 40.3182 66.4598 40.0814 66.1901L40.0422 66.1455C39.8063 65.8768 39.5197 65.6574 39.1987 65.4999C38.8777 65.3424 38.5288 65.25 38.1719 65.228C38.1084 65.2253 38.0449 65.2239 37.9841 65.2239L37.9854 65.2226Z" fill="white"/>
<path d="M25.1864 73.7675C25.0675 73.7675 24.9472 73.7675 24.8256 73.7567C24.1129 73.7121 23.4161 73.5267 22.7755 73.2113C22.1348 72.8958 21.563 72.4566 21.0931 71.9189L20.9458 71.7432C19.996 70.6597 19.5152 69.2434 19.6092 67.8056C19.7033 66.3678 20.3643 65.0262 21.4472 64.0756L28.4377 57.9391C28.974 57.4681 29.5979 57.1073 30.2737 56.8774C30.9494 56.6475 31.6639 56.553 32.3762 56.5993C33.0885 56.6456 33.7847 56.8318 34.425 57.1473C35.0653 57.4627 35.6372 57.9013 36.108 58.4378L36.2607 58.6121C37.2109 59.6954 37.6919 61.1118 37.5979 62.5497C37.5038 63.9876 36.8425 65.3293 35.7594 66.2797L28.7688 72.4162C27.7801 73.2895 26.5056 73.7703 25.1864 73.7675ZM32.0148 59.2918C31.3529 59.2902 30.7132 59.5305 30.2161 59.9675L23.2256 66.104C22.6803 66.5823 22.3474 67.2576 22.3 67.9814C22.2526 68.7052 22.4946 69.4181 22.9729 69.9635L23.1256 70.1378C23.6041 70.6816 24.279 71.0132 25.0018 71.0598C25.7247 71.1064 26.4365 70.8642 26.981 70.3864L33.9715 64.2499C34.2413 64.0133 34.4618 63.7257 34.6205 63.4038C34.7791 63.0818 34.8728 62.7318 34.8962 62.3736C34.9195 62.0155 34.8721 61.6563 34.7565 61.3164C34.641 60.9766 34.4597 60.6629 34.2229 60.3932L34.0729 60.2216C33.8369 59.9517 33.5497 59.7313 33.228 59.5731C32.9063 59.4149 32.5564 59.3221 32.1985 59.3C32.135 59.2945 32.0756 59.2918 32.0148 59.2918Z" fill="white"/>
<path d="M19.3112 67.7524C19.1923 67.7524 19.0707 67.7524 18.9504 67.7403C17.8709 67.6722 16.8359 67.2857 15.976 66.6296C15.1161 65.9734 14.4701 65.0771 14.1195 64.0539C13.769 63.0306 13.7296 61.9264 14.0064 60.8809C14.2832 59.8353 14.8638 58.8952 15.6747 58.1795L20.0518 54.3376C20.5881 53.8665 21.2119 53.5057 21.8877 53.2758C22.5635 53.046 23.2779 52.9515 23.9902 52.9978C24.7025 53.0441 25.3987 53.2303 26.039 53.5457C26.6793 53.8612 27.2512 54.2997 27.722 54.8362L27.7693 54.8903C28.2404 55.4266 28.6012 56.0504 28.8311 56.7262C29.061 57.402 29.1554 58.1164 29.1091 58.8287C29.0628 59.541 28.8766 60.2372 28.5612 60.8775C28.2457 61.5179 27.8072 62.0898 27.2707 62.5606L22.8937 66.4024C21.9048 67.2754 20.6303 67.7557 19.3112 67.7524ZM23.6355 55.6889C22.9737 55.6873 22.334 55.9276 21.8369 56.3646L17.4599 60.2065C17.1901 60.4432 16.9696 60.7307 16.8109 61.0527C16.6522 61.3746 16.5586 61.7247 16.5352 62.0828C16.5119 62.441 16.5593 62.8002 16.6749 63.14C16.7904 63.4798 16.9717 63.7935 17.2085 64.0633C17.4434 64.3415 17.7312 64.5703 18.0553 64.7365C18.3793 64.9026 18.7331 65.0028 19.0961 65.0312C19.4591 65.0596 19.8242 65.0157 20.1701 64.902C20.516 64.7882 20.8359 64.607 21.1112 64.3687L25.4883 60.5268C25.758 60.2901 25.9786 60.0025 26.1372 59.6806C26.2959 59.3587 26.3896 59.0086 26.4129 58.6505C26.4362 58.2923 26.3888 57.9331 26.2733 57.5933C26.1577 57.2534 25.9764 56.9397 25.7396 56.67L25.6923 56.616C25.4563 56.3457 25.1689 56.1249 24.847 55.9665C24.525 55.8081 24.1748 55.7151 23.8166 55.693C23.7504 55.6916 23.6896 55.6889 23.6288 55.6889H23.6355Z" fill="white"/>
<path d="M16.8601 60.2862C16.5676 60.2868 16.2829 60.1919 16.0493 60.0159L11.4317 56.5024C11.2905 56.3949 11.1717 56.2607 11.0824 56.1074C10.993 55.954 10.9347 55.7846 10.9108 55.6087C10.8868 55.4329 10.8978 55.254 10.943 55.0824C10.9882 54.9108 11.0668 54.7497 11.1743 54.6085C11.3913 54.3232 11.7127 54.1358 12.0679 54.0875C12.2438 54.0636 12.4226 54.0746 12.5943 54.1198C12.7659 54.165 12.9269 54.2436 13.0682 54.351L17.6858 57.8645C17.9132 58.0351 18.0811 58.2731 18.1655 58.5446C18.2498 58.8162 18.2464 59.1074 18.1557 59.3768C18.065 59.6463 17.8916 59.8803 17.6602 60.0455C17.4288 60.2107 17.1512 60.2987 16.8668 60.297L16.8601 60.2862Z" fill="white"/>
<path d="M79.0796 61.7839C78.8123 61.7839 78.5511 61.7046 78.329 61.5561C78.1068 61.4076 77.9336 61.1966 77.8314 60.9497C77.7291 60.7028 77.7023 60.4311 77.7545 60.169C77.8066 59.9069 77.9352 59.6662 78.1242 59.4772L85.7066 51.892C85.9615 51.6459 86.3028 51.5097 86.6572 51.5127C87.0115 51.5158 87.3504 51.6579 87.601 51.9085C87.8515 52.159 87.9936 52.498 87.9967 52.8523C87.9998 53.2066 87.8636 53.548 87.6174 53.8028L80.035 61.3853C79.9098 61.5113 79.7609 61.6113 79.597 61.6797C79.433 61.7481 79.2572 61.7835 79.0796 61.7839Z" fill="white"/>
<path d="M89.4189 58.9797C89.1878 58.98 88.9605 58.921 88.7587 58.8084C88.5568 58.6958 88.3873 58.5333 88.2662 58.3364L71.7662 31.4986C71.5919 31.2147 71.5285 30.8764 71.5884 30.5487C71.6483 30.2209 71.8271 29.9269 72.0905 29.7229L88.4324 17.0662C88.6118 16.9272 88.8233 16.8357 89.0473 16.8C89.2714 16.7643 89.5009 16.7856 89.7145 16.862C89.9282 16.9383 90.1192 17.0672 90.2699 17.2368C90.4207 17.4064 90.5263 17.6112 90.577 17.8324L98.6135 52.8959C98.6802 53.1812 98.6523 53.4805 98.5341 53.7486C98.4159 54.0167 98.2137 54.2392 97.9581 54.3824L90.0783 58.8108C89.8767 58.9228 89.6496 58.9809 89.4189 58.9797ZM74.704 31.1148L89.8878 55.8108L95.754 52.5135L88.4162 20.4972L74.704 31.1148Z" fill="white"/>
<path d="M10.581 59.4592C10.3496 59.4591 10.122 59.3996 9.92021 59.2863L2.04048 54.8647C1.78484 54.7214 1.58268 54.499 1.46446 54.2309C1.34625 53.9628 1.31838 53.6635 1.38507 53.3782L9.42291 18.3187C9.47364 18.0976 9.57925 17.8927 9.72998 17.7232C9.88071 17.5536 10.0717 17.4247 10.2854 17.3483C10.499 17.272 10.7285 17.2507 10.9526 17.2863C11.1766 17.322 11.3881 17.4136 11.5675 17.5525L27.9107 30.2079C28.1742 30.4118 28.353 30.7059 28.4129 31.0336C28.4727 31.3614 28.4094 31.6997 28.2351 31.9836L11.7337 58.8214C11.612 59.0172 11.4421 59.1787 11.2404 59.2903C11.0386 59.402 10.8116 59.4601 10.581 59.4592ZM4.24588 53.0025L10.1121 56.2984L25.2959 31.6011L11.5837 20.9836L4.24588 53.0025Z" fill="white"/>
</svg>
