<svg width="100" height="100" viewBox="0 0 100 100" fill="none" xmlns="http://www.w3.org/2000/svg">
<path d="M57.5841 57.0928H26.707V60.7018H57.5841V57.0928Z" fill="white"/>
<path d="M64.8021 47.9531H26.707V51.5621H64.8021V47.9531Z" fill="white"/>
<path d="M45.7562 67.6475H26.707V71.2565H45.7562V67.6475Z" fill="white"/>
<path d="M57.5841 38.332H26.707V41.941H57.5841V38.332Z" fill="white"/>
<path d="M49.5095 20.2871H26.707V32.7149H49.5095V20.2871Z" fill="white"/>
<path d="M72.3152 74.5123C72.3152 68.9368 67.7984 64.4199 62.2228 64.4199C56.6666 64.4199 52.1465 68.9272 52.1465 74.5123C52.1465 80.0686 56.6602 84.5822 62.2228 84.5822C67.7984 84.579 72.3152 80.0686 72.3152 74.5123Z" fill="white"/>
<path d="M76.9855 78.0186L62.2383 89.67L70.4027 99.9998L74.294 89.7663L85.1467 88.3483L76.9855 78.0186Z" fill="white"/>
<path d="M36.3008 82.6708L46.5343 86.5589L47.9491 97.4148L58.2788 89.2472L46.6274 74.5L36.3008 82.6708Z" fill="white"/>
<path d="M37.9954 86.6098H19.328V4.47517H57.8433L57.7695 20.1142H74.3998V75.8277L77.4507 73.6655L78.8686 75.4395V15.639H78.8333L78.9039 15.5653L62.3345 0.125112V0H14.8496V91.0914H43.5741L43.2629 88.6854L37.9954 86.6098ZM62.3121 6.21712L72.4173 15.639H62.2608L62.3121 6.21712Z" fill="white"/>
</svg>
