<svg width="17" height="17" viewBox="0 0 17 17" fill="none" xmlns="http://www.w3.org/2000/svg">
<g clip-path="url(#clip0_26_164)">
<path d="M13.859 11.738C15.56 10.22 16.5 8.5 16.5 8.5C16.5 8.5 13.5 3 8.49996 3C7.53955 3.00331 6.59002 3.20342 5.70996 3.588L6.47996 4.359C7.1274 4.12315 7.81091 4.00168 8.49996 4C10.62 4 12.379 5.168 13.668 6.457C14.2883 7.08069 14.8444 7.76513 15.328 8.5C15.27 8.587 15.206 8.683 15.133 8.788C14.798 9.268 14.303 9.908 13.668 10.543C13.503 10.708 13.331 10.871 13.151 11.029L13.859 11.738Z" fill="white"/>
<path d="M11.7971 9.67599C12.0203 9.05183 12.0616 8.37714 11.9163 7.73041C11.771 7.08368 11.445 6.49151 10.9763 6.02281C10.5076 5.5541 9.91542 5.22813 9.26869 5.08282C8.62196 4.93751 7.94727 4.97883 7.32311 5.20199L8.14611 6.02499C8.53042 5.96998 8.92226 6.00523 9.29058 6.12795C9.6589 6.25067 9.99358 6.45748 10.2681 6.732C10.5426 7.00652 10.7494 7.3412 10.8721 7.70952C10.9949 8.07784 11.0301 8.46968 10.9751 8.85399L11.7971 9.67599ZM8.85411 10.975L9.67611 11.797C9.05195 12.0201 8.37726 12.0615 7.73053 11.9162C7.0838 11.7708 6.49164 11.4449 6.02293 10.9762C5.55422 10.5075 5.22825 9.91529 5.08294 9.26857C4.93763 8.62184 4.97896 7.94715 5.20211 7.32299L6.02511 8.14599C5.9701 8.5303 6.00536 8.92214 6.12807 9.29046C6.25079 9.65878 6.4576 9.99346 6.73212 10.268C7.00664 10.5425 7.34132 10.7493 7.70964 10.872C8.07796 10.9947 8.4698 11.03 8.85411 10.975Z" fill="white"/>
<path d="M3.85 5.97C3.67 6.13 3.497 6.292 3.332 6.457C2.71165 7.08069 2.15552 7.76512 1.672 8.5L1.867 8.788C2.202 9.268 2.697 9.908 3.332 10.543C4.621 11.832 6.381 13 8.5 13C9.216 13 9.89 12.867 10.52 12.64L11.29 13.412C10.4099 13.7965 9.4604 13.9967 8.5 14C3.5 14 0.5 8.5 0.5 8.5C0.5 8.5 1.439 6.779 3.141 5.262L3.849 5.971L3.85 5.97ZM14.146 14.854L2.146 2.854L2.854 2.146L14.854 14.146L14.146 14.854Z" fill="white"/>
</g>
<defs>
<clipPath id="clip0_26_164">
<rect width="16" height="16" fill="white" transform="translate(0.5 0.5)"/>
</clipPath>
</defs>
</svg>
