<svg width="16" height="17" viewBox="0 0 16 17" fill="none" xmlns="http://www.w3.org/2000/svg">
<path d="M16 8.5C16 8.5 13 3 8 3C3 3 0 8.5 0 8.5C0 8.5 3 14 8 14C13 14 16 8.5 16 8.5ZM1.173 8.5C1.65651 7.76512 2.21264 7.08069 2.833 6.457C4.12 5.168 5.88 4 8 4C10.12 4 11.879 5.168 13.168 6.457C13.7884 7.08069 14.3445 7.76512 14.828 8.5C14.77 8.587 14.706 8.683 14.633 8.788C14.298 9.268 13.803 9.908 13.168 10.543C11.879 11.832 10.119 13 8 13C5.88 13 4.121 11.832 2.832 10.543C2.21165 9.91931 1.65552 9.23487 1.172 8.5H1.173Z" fill="white"/>
<path d="M8 6C7.33696 6 6.70107 6.26339 6.23223 6.73223C5.76339 7.20107 5.5 7.83696 5.5 8.5C5.5 9.16304 5.76339 9.79893 6.23223 10.2678C6.70107 10.7366 7.33696 11 8 11C8.66304 11 9.29893 10.7366 9.76777 10.2678C10.2366 9.79893 10.5 9.16304 10.5 8.5C10.5 7.83696 10.2366 7.20107 9.76777 6.73223C9.29893 6.26339 8.66304 6 8 6ZM4.5 8.5C4.5 7.57174 4.86875 6.6815 5.52513 6.02513C6.1815 5.36875 7.07174 5 8 5C8.92826 5 9.8185 5.36875 10.4749 6.02513C11.1313 6.6815 11.5 7.57174 11.5 8.5C11.5 9.42826 11.1313 10.3185 10.4749 10.9749C9.8185 11.6313 8.92826 12 8 12C7.07174 12 6.1815 11.6313 5.52513 10.9749C4.86875 10.3185 4.5 9.42826 4.5 8.5Z" fill="white"/>
</svg>
