<svg width="442" height="202" viewBox="0 0 442 202" fill="none" xmlns="http://www.w3.org/2000/svg">
<path d="M12.2983 102.738C12.7966 99.6461 13.9925 96.8743 15.6866 94.3156C17.4805 91.757 19.6729 89.7314 22.4633 88.2388C25.2536 86.7463 28.2433 86 31.7313 86C35.1196 86 38.0096 86.7463 40.2021 88.2388C42.3945 89.7314 43.8894 91.757 44.6866 94.3156C45.4839 96.8743 45.6832 99.6461 45.0852 102.631C44.587 105.51 43.4907 108.282 41.8962 110.84C40.3018 113.399 38.1093 115.531 35.3189 117.13C32.5285 118.729 29.3395 119.582 25.6523 119.582C22.3636 119.582 19.5732 118.836 17.3808 117.343C15.1884 115.851 13.5939 113.825 12.7966 111.267C11.8997 108.815 11.8 105.936 12.2983 102.738ZM20.0715 107.642C20.4701 109.134 21.2674 110.307 22.4633 111.16C23.6591 112.013 25.154 112.439 26.9478 112.439C28.7416 112.439 30.3361 112.013 31.831 111.267C33.3258 110.414 34.5217 109.348 35.5182 107.855C36.5148 106.363 37.1127 104.763 37.4117 102.844C37.7107 101.032 37.7107 99.3263 37.2124 97.9404C36.7141 96.4478 35.9169 95.3817 34.721 94.5288C33.5251 93.7826 32.1299 93.3561 30.4358 93.3561C27.8447 93.3561 25.5526 94.209 23.5595 95.9148C21.666 97.6205 20.3705 99.966 19.8722 102.951C19.5732 104.55 19.6729 106.149 20.0715 107.642ZM51.1643 106.896C52.1608 105.616 53.3567 104.657 54.7519 104.124C52.7588 103.377 51.3636 102.311 50.5663 100.819C49.7691 99.3263 49.5698 97.6205 49.8688 95.5949C50.4667 92.1834 51.9615 89.838 54.3533 88.452C56.745 87.0661 59.7347 86.4264 63.422 86.4264H76.178L72.7897 105.936L63.8206 113.399H71.4942L70.4976 119.156H57.9409C54.8516 119.156 52.4598 118.41 50.965 117.024C49.4701 115.638 48.8722 113.719 49.2708 111.267C49.4701 109.668 50.1677 108.175 51.1643 106.896ZM67.8069 91.5437H63.9203C59.934 91.5437 57.7416 93.0363 57.2433 96.0214C56.745 99.0065 58.4392 100.606 62.4254 100.606H66.312L67.8069 91.5437ZM57.1437 112.013C57.7416 112.653 58.8378 112.972 60.4323 112.972H63.9203L65.4151 105.51H62.2261C60.6316 105.51 59.3361 105.83 58.3395 106.576C57.4426 107.215 56.745 108.388 56.5457 109.881C56.3464 111.373 56.4461 111.373 57.1437 112.013ZM81.7588 94.3156C83.5526 91.757 85.745 89.7314 88.5354 88.2388C91.3258 86.7463 94.3155 86 97.8034 86C101.192 86 104.082 86.7463 106.274 88.2388C108.467 89.7314 109.962 91.757 110.759 94.3156C111.157 95.7015 111.456 97.0875 111.456 98.58L102.687 105.83H102.587C102.986 104.87 103.384 103.804 103.584 102.631C103.882 100.819 103.882 99.1131 103.384 97.7271C102.886 96.2346 102.089 95.1685 100.893 94.3156C99.6969 93.5693 98.3017 93.1429 96.6076 93.1429C94.0165 93.1429 91.7244 93.9958 89.7313 95.7015C87.8378 97.4073 86.5423 99.7527 86.044 102.738C85.745 104.444 85.8447 106.043 86.2433 107.535C86.6419 109.028 87.4392 110.201 88.6351 111.053C89.8309 111.906 91.3258 112.333 93.1196 112.333C93.6179 112.333 94.0165 112.333 94.5148 112.226H106.872C105.377 114.145 103.484 115.744 101.291 117.13C98.501 118.729 95.312 119.582 91.6247 119.582C88.3361 119.582 85.5457 118.836 83.3533 117.343C81.1608 115.851 79.5663 113.825 78.7691 111.267C77.8722 108.708 77.7725 105.83 78.2708 102.738C78.8687 99.6461 80.0646 96.8743 81.7588 94.3156ZM126.405 86.4264L124.113 99.6461H138.364L140.656 86.4264H148.13L142.35 119.156H134.876L137.068 106.469H122.817L120.625 119.156H113.151L118.931 86.4264H126.405Z" fill="white"/>
<path fill-rule="evenodd" clip-rule="evenodd" d="M439.059 96.2025C438.856 97.9241 438.349 99.443 437.436 100.861C436.523 102.278 435.205 103.291 433.481 104.101C431.756 104.911 429.829 105.316 427.395 105.316H421.918L420.701 117.266H413.095L416.137 86.9873H428.815C432.263 86.9873 434.9 87.7975 436.726 89.4177C438.552 91.038 439.363 93.2658 439.059 96.2025ZM430.438 93.1646C429.728 92.557 428.511 92.2532 426.787 92.2532H423.338L422.527 100.253H426.28C429.322 100.253 431.046 98.9367 431.351 96.3038C431.452 94.7848 431.148 93.7722 430.438 93.1646ZM396.867 92.3544L396.157 99.038H408.531L408.023 104.506H395.65L394.94 111.899H408.226L407.719 117.367H386.826L388.855 97.7215L395.548 92.4557H389.362L389.869 86.9873H410.458L409.951 92.4557H396.867V92.3544ZM378.509 110.684C375.771 112.81 372.018 114.025 367.454 114.127L367.049 117.671H359.746L360.152 114.127C357.211 114.025 354.675 113.519 352.647 112.506C350.618 111.494 348.995 110.076 347.981 108.354C346.967 106.532 346.561 104.506 346.866 102.076C347.271 98.5317 348.793 95.7975 351.531 93.6709C354.269 91.5443 357.921 90.4304 362.586 90.2279L362.992 86.6835H370.294L369.889 90.2279C374.453 90.4304 377.901 91.5443 380.234 93.6709C382.566 95.7975 383.581 98.5317 383.175 102.076C382.769 105.62 381.248 108.456 378.509 110.684ZM356.704 97.3165C355.385 98.4304 354.675 99.9494 354.472 102.076C354.067 106.025 356.095 108.253 360.659 108.557L361.978 95.6962C359.746 95.6962 358.022 96.3038 356.704 97.3165ZM374.25 97.4177C373.235 96.3038 371.511 95.6962 369.28 95.6962L367.962 108.557C370.193 108.557 372.018 107.949 373.235 106.835C374.554 105.722 375.264 104.203 375.467 102.177C375.771 100.051 375.365 98.5316 374.25 97.4177ZM340.07 93.4684C338.549 92.962 336.926 92.6582 335.202 92.6582C333.072 92.6582 331.145 93.0633 329.421 93.9747C327.798 94.8861 326.48 96 325.567 97.519C324.654 98.9367 324.045 100.557 323.944 102.278C323.741 104 324.046 105.519 324.654 106.937C325.263 108.354 326.378 109.468 327.798 110.278C329.218 111.089 331.044 111.494 333.072 111.494C336.622 111.494 340.07 110.38 343.62 108.152L342.91 114.937C339.462 116.658 335.506 117.57 331.145 117.57C327.798 117.57 324.857 116.861 322.524 115.544C320.191 114.228 318.366 112.304 317.352 109.975C316.236 107.646 315.83 105.013 316.135 102.076C316.439 98.9367 317.453 96.2025 319.177 93.8734C320.901 91.5443 323.031 89.7215 325.668 88.4051C328.305 87.1899 331.246 86.481 334.492 86.481C338.143 86.481 341.794 87.2911 345.446 88.8101L344.736 95.7975C343.113 94.8861 341.592 94.076 340.07 93.4684ZM301.935 117.266L303.152 105.013H288.649L287.432 117.266H279.825L282.868 86.9873H290.475L289.258 98.7342H303.761L304.978 86.9873H312.585L309.542 117.266H301.935ZM266.742 110.278H253.861L250.311 117.266H242.603L258.729 86.8861H266.64L276.783 117.266H269.074L266.742 110.278ZM261.873 94.3797L256.295 105.418H265.22L261.873 94.3797ZM243.516 100.861C242.502 102.278 241.082 103.291 239.256 104.101C237.532 104.911 235.402 105.316 233.069 105.316H227.593L225.26 117.266H220.493L223.536 86.9873H236.315C239.763 86.9873 242.299 87.7975 244.023 89.4177C245.646 91.038 246.153 93.2658 245.646 96.2025C245.24 97.9241 244.53 99.443 243.516 100.861ZM237.228 93.1646C236.619 92.557 235.402 92.2532 233.678 92.2532H230.23L228.708 100.253H232.461C235.503 100.253 237.329 98.9367 237.836 96.3038C238.14 94.7848 237.938 93.7722 237.228 93.1646ZM208.221 93.2658L203.758 117.266H196.151L199.397 99.9494L207.815 93.4684H200.614V93.3671H189.863L190.472 87.0886H219.58L218.972 93.3671H208.221V93.2658Z" fill="white"/>
<path fill-rule="evenodd" clip-rule="evenodd" d="M212.481 4.55696L163.291 117.671L169.782 40.7089L212.481 4.55696Z" fill="url(#paint0_linear_57_286)"/>
<path fill-rule="evenodd" clip-rule="evenodd" d="M163.088 117.468L147.874 59.3418L167.347 42.7342L163.088 117.468Z" fill="url(#paint1_linear_57_286)"/>
<path fill-rule="evenodd" clip-rule="evenodd" d="M63.3892 45.0633L115.723 74.1266L136.515 59.1392L63.3892 45.0633Z" fill="url(#paint2_linear_57_286)"/>
<path fill-rule="evenodd" clip-rule="evenodd" d="M184.386 24.6076L63.1863 44.7595L139.05 57.3165L184.386 24.6076Z" fill="url(#paint3_linear_57_286)"/>
<path d="M2.05664 167V152.749H5.31299V158.523H11.6147V152.749H14.8711V167H11.6147V161.252H5.31299V167H2.05664ZM18.1934 159.894C18.1934 158.549 18.5186 157.31 19.1689 156.176C19.8281 155.034 20.7422 154.128 21.9111 153.46C23.0889 152.784 24.3896 152.445 25.8135 152.445C27.2461 152.445 28.5425 152.779 29.7026 153.447C30.8628 154.106 31.7681 155.007 32.4185 156.15C33.0688 157.284 33.394 158.532 33.394 159.894C33.394 160.896 33.2007 161.854 32.814 162.768C32.4272 163.673 31.8999 164.464 31.2319 165.141C30.564 165.809 29.7554 166.341 28.8062 166.736C27.8569 167.132 26.8418 167.33 25.7607 167.33C24.3369 167.33 23.0449 166.996 21.8848 166.328C20.7246 165.66 19.8193 164.759 19.1689 163.625C18.5186 162.491 18.1934 161.248 18.1934 159.894ZM21.4629 159.894C21.4629 161.16 21.876 162.245 22.7021 163.15C23.5283 164.047 24.5654 164.495 25.8135 164.495C27.1055 164.495 28.147 164.051 28.938 163.164C29.729 162.276 30.1245 161.186 30.1245 159.894C30.1245 158.62 29.7114 157.539 28.8853 156.651C28.0679 155.754 27.0264 155.306 25.7607 155.306C24.4775 155.306 23.4404 155.746 22.6494 156.625C21.8584 157.503 21.4629 158.593 21.4629 159.894ZM36.7295 167V152.749H44.0464C45.4702 152.749 46.6084 153.069 47.4609 153.711C48.3135 154.353 48.7397 155.218 48.7397 156.308C48.7397 157.802 47.9751 158.892 46.4458 159.578C48.4058 160.131 49.3857 161.318 49.3857 163.137C49.3857 164.333 48.9155 165.277 47.9751 165.972C47.0347 166.657 45.7515 167 44.1255 167H36.7295ZM39.9331 164.403H43.6377C44.4199 164.403 45.0176 164.24 45.4307 163.915C45.8525 163.581 46.0635 163.133 46.0635 162.57C46.0635 162.034 45.8438 161.612 45.4043 161.305C44.9736 160.997 44.332 160.843 43.4795 160.843H39.9331V164.403ZM39.9331 158.628H43.2817C43.9497 158.628 44.4727 158.47 44.8506 158.154C45.2285 157.829 45.4175 157.402 45.4175 156.875C45.4175 156.383 45.2461 155.992 44.9033 155.702C44.5605 155.403 44.0376 155.253 43.3345 155.253H39.9331V158.628ZM52.6553 167V152.749H55.9116V157.745H58.9175C60.0249 157.745 60.9917 157.903 61.8179 158.22C62.6528 158.527 63.3208 159.028 63.8218 159.723C64.3315 160.408 64.5864 161.252 64.5864 162.254C64.5864 163.722 64.0986 164.882 63.123 165.734C62.1562 166.578 60.8335 167 59.1548 167H52.6553ZM55.9116 164.35H58.7197C59.5459 164.35 60.1831 164.17 60.6313 163.81C61.0884 163.449 61.3169 162.931 61.3169 162.254C61.3169 161.621 61.084 161.133 60.6182 160.791C60.1611 160.448 59.5107 160.276 58.667 160.276H55.9116V164.35ZM66.7485 167V152.749H70.0181V167H66.7485ZM74.1182 167V152.749H77.2954V162.307C79.7563 158.809 82.0063 155.623 84.0454 152.749H87.1304V167H83.9663V157.495L77.1899 167H74.1182ZM76.4121 147.343L78.4028 146.961C78.7896 148.191 79.5366 148.807 80.644 148.807C81.7515 148.807 82.4985 148.191 82.8853 146.961L84.8628 147.343C84.687 148.503 84.2212 149.422 83.4653 150.099C82.7183 150.767 81.7778 151.101 80.644 151.101C79.5015 151.101 78.5522 150.762 77.7964 150.085C77.0493 149.409 76.5879 148.495 76.4121 147.343ZM97.7827 155.557V152.749H110.254V155.557H105.667V167H102.371V155.557H97.7827ZM112.852 171.324V152.749H116.108V155.122C117.374 153.337 118.986 152.445 120.946 152.445C121.799 152.445 122.621 152.612 123.412 152.946C124.203 153.28 124.91 153.755 125.534 154.37C126.158 154.985 126.655 155.772 127.024 156.73C127.402 157.688 127.591 158.743 127.591 159.894C127.591 161.037 127.402 162.083 127.024 163.032C126.655 163.981 126.158 164.763 125.534 165.378C124.919 165.994 124.216 166.468 123.425 166.802C122.634 167.136 121.808 167.303 120.946 167.303C118.995 167.303 117.382 166.464 116.108 164.785V171.324H112.852ZM116.029 159.894C116.029 161.23 116.438 162.324 117.255 163.177C118.072 164.029 119.052 164.456 120.195 164.456C121.346 164.456 122.313 164.038 123.095 163.203C123.877 162.359 124.269 161.239 124.269 159.841C124.269 158.497 123.873 157.402 123.082 156.559C122.291 155.706 121.329 155.28 120.195 155.28C119.052 155.28 118.072 155.71 117.255 156.572C116.438 157.433 116.029 158.541 116.029 159.894ZM129.964 162.847C129.964 161.318 130.491 160.158 131.546 159.367C132.609 158.567 134.007 158.167 135.738 158.167C137.136 158.167 138.45 158.365 139.68 158.76V158.497C139.68 157.503 139.377 156.748 138.771 156.229C138.173 155.702 137.307 155.438 136.173 155.438C134.89 155.438 133.532 155.737 132.1 156.334L131.203 153.711C132.082 153.315 132.935 153.021 133.761 152.828C134.596 152.625 135.554 152.524 136.635 152.524C138.709 152.524 140.269 153.047 141.315 154.093C142.37 155.13 142.897 156.616 142.897 158.549V167H139.654V165.247C138.502 166.618 136.964 167.303 135.04 167.303C134.117 167.303 133.277 167.141 132.521 166.815C131.766 166.481 131.15 165.972 130.676 165.286C130.201 164.601 129.964 163.788 129.964 162.847ZM133.207 162.729C133.207 163.379 133.466 163.893 133.985 164.271C134.503 164.649 135.163 164.838 135.962 164.838C137.052 164.838 137.953 164.561 138.665 164.007C139.377 163.445 139.733 162.724 139.733 161.845V161.028C138.784 160.65 137.694 160.461 136.463 160.461C135.435 160.461 134.635 160.659 134.064 161.054C133.493 161.45 133.207 162.008 133.207 162.729ZM146.786 167V152.749H150.042V158.523H156.344V152.749H159.601V167H156.344V161.252H150.042V167H146.786ZM162.923 159.947V159.894C162.923 158.558 163.239 157.323 163.872 156.189C164.505 155.047 165.388 154.137 166.522 153.46C167.665 152.784 168.93 152.445 170.319 152.445C171.593 152.445 172.683 152.656 173.588 153.078C174.502 153.5 175.315 154.106 176.027 154.897L173.997 157.086C173.443 156.506 172.881 156.066 172.31 155.768C171.738 155.46 171.066 155.306 170.292 155.306C169.124 155.306 168.148 155.75 167.366 156.638C166.583 157.517 166.192 158.584 166.192 159.841V159.894C166.192 161.186 166.592 162.276 167.392 163.164C168.201 164.051 169.225 164.495 170.464 164.495C171.185 164.495 171.839 164.341 172.428 164.034C173.017 163.726 173.593 163.282 174.155 162.702L176.133 164.653C175.359 165.523 174.516 166.187 173.602 166.644C172.696 167.101 171.593 167.33 170.292 167.33C168.904 167.33 167.643 167 166.509 166.341C165.384 165.673 164.505 164.776 163.872 163.651C163.239 162.518 162.923 161.283 162.923 159.947ZM179.007 167V152.749H191.716V167H188.446V155.557H182.263V167H179.007ZM195.038 159.894C195.038 158.549 195.363 157.31 196.014 156.176C196.673 155.034 197.587 154.128 198.756 153.46C199.934 152.784 201.234 152.445 202.658 152.445C204.091 152.445 205.387 152.779 206.547 153.447C207.708 154.106 208.613 155.007 209.263 156.15C209.914 157.284 210.239 158.532 210.239 159.894C210.239 160.896 210.045 161.854 209.659 162.768C209.272 163.673 208.745 164.464 208.077 165.141C207.409 165.809 206.6 166.341 205.651 166.736C204.702 167.132 203.687 167.33 202.605 167.33C201.182 167.33 199.89 166.996 198.729 166.328C197.569 165.66 196.664 164.759 196.014 163.625C195.363 162.491 195.038 161.248 195.038 159.894ZM198.308 159.894C198.308 161.16 198.721 162.245 199.547 163.15C200.373 164.047 201.41 164.495 202.658 164.495C203.95 164.495 204.992 164.051 205.783 163.164C206.574 162.276 206.969 161.186 206.969 159.894C206.969 158.62 206.556 157.539 205.73 156.651C204.913 155.754 203.871 155.306 202.605 155.306C201.322 155.306 200.285 155.746 199.494 156.625C198.703 157.503 198.308 158.593 198.308 159.894ZM213.574 171.324V152.749H216.831V155.122C218.096 153.337 219.709 152.445 221.669 152.445C222.521 152.445 223.343 152.612 224.134 152.946C224.925 153.28 225.633 153.755 226.257 154.37C226.881 154.985 227.377 155.772 227.747 156.73C228.125 157.688 228.313 158.743 228.313 159.894C228.313 161.037 228.125 162.083 227.747 163.032C227.377 163.981 226.881 164.763 226.257 165.378C225.642 165.994 224.938 166.468 224.147 166.802C223.356 167.136 222.53 167.303 221.669 167.303C219.718 167.303 218.105 166.464 216.831 164.785V171.324H213.574ZM216.751 159.894C216.751 161.23 217.16 162.324 217.978 163.177C218.795 164.029 219.775 164.456 220.917 164.456C222.069 164.456 223.036 164.038 223.818 163.203C224.6 162.359 224.991 161.239 224.991 159.841C224.991 158.497 224.596 157.402 223.805 156.559C223.014 155.706 222.051 155.28 220.917 155.28C219.775 155.28 218.795 155.71 217.978 156.572C217.16 157.433 216.751 158.541 216.751 159.894ZM230.12 155.557V152.749H242.591V155.557H238.003V167H234.708V155.557H230.12ZM245.188 167V152.749H248.445V158.523H254.747V152.749H258.003V167H254.747V161.252H248.445V167H245.188ZM262.116 167V152.749H265.373V157.745H268.378C269.486 157.745 270.453 157.903 271.279 158.22C272.114 158.527 272.782 159.028 273.283 159.723C273.792 160.408 274.047 161.252 274.047 162.254C274.047 163.722 273.56 164.882 272.584 165.734C271.617 166.578 270.294 167 268.616 167H262.116ZM265.373 164.35H268.181C269.007 164.35 269.644 164.17 270.092 163.81C270.549 163.449 270.778 162.931 270.778 162.254C270.778 161.621 270.545 161.133 270.079 160.791C269.622 160.448 268.972 160.276 268.128 160.276H265.373V164.35ZM276.209 167V152.749H279.479V167H276.209ZM283.579 167V152.749H286.756V162.307C289.217 158.809 291.467 155.623 293.506 152.749H296.591V167H293.427V157.495L286.651 167H283.579ZM285.873 147.343L287.864 146.961C288.25 148.191 288.998 148.807 290.105 148.807C291.212 148.807 291.959 148.191 292.346 146.961L294.324 147.343C294.148 148.503 293.682 149.422 292.926 150.099C292.179 150.767 291.239 151.101 290.105 151.101C288.962 151.101 288.013 150.762 287.257 150.085C286.51 149.409 286.049 148.495 285.873 147.343ZM307.995 159.947V159.894C307.995 158.558 308.312 157.323 308.944 156.189C309.577 155.047 310.46 154.137 311.594 153.46C312.737 152.784 314.002 152.445 315.391 152.445C316.666 152.445 317.755 152.656 318.661 153.078C319.575 153.5 320.388 154.106 321.1 154.897L319.069 157.086C318.516 156.506 317.953 156.066 317.382 155.768C316.811 155.46 316.138 155.306 315.365 155.306C314.196 155.306 313.22 155.75 312.438 156.638C311.656 157.517 311.265 158.584 311.265 159.841V159.894C311.265 161.186 311.665 162.276 312.464 163.164C313.273 164.051 314.297 164.495 315.536 164.495C316.257 164.495 316.912 164.341 317.5 164.034C318.089 163.726 318.665 163.282 319.228 162.702L321.205 164.653C320.432 165.523 319.588 166.187 318.674 166.644C317.769 167.101 316.666 167.33 315.365 167.33C313.976 167.33 312.715 167 311.581 166.341C310.456 165.673 309.577 164.776 308.944 163.651C308.312 162.518 307.995 161.283 307.995 159.947ZM322.537 155.557V152.749H335.008V155.557H330.42V167H327.125V155.557H322.537ZM336.63 162.847C336.63 161.318 337.157 160.158 338.212 159.367C339.275 158.567 340.673 158.167 342.404 158.167C343.802 158.167 345.116 158.365 346.346 158.76V158.497C346.346 157.503 346.043 156.748 345.437 156.229C344.839 155.702 343.973 155.438 342.839 155.438C341.556 155.438 340.198 155.737 338.766 156.334L337.869 153.711C338.748 153.315 339.601 153.021 340.427 152.828C341.262 152.625 342.22 152.524 343.301 152.524C345.375 152.524 346.935 153.047 347.981 154.093C349.036 155.13 349.563 156.616 349.563 158.549V167H346.32V165.247C345.168 166.618 343.63 167.303 341.706 167.303C340.783 167.303 339.943 167.141 339.188 166.815C338.432 166.481 337.816 165.972 337.342 165.286C336.867 164.601 336.63 163.788 336.63 162.847ZM339.873 162.729C339.873 163.379 340.132 163.893 340.651 164.271C341.169 164.649 341.829 164.838 342.628 164.838C343.718 164.838 344.619 164.561 345.331 164.007C346.043 163.445 346.399 162.724 346.399 161.845V161.028C345.45 160.65 344.36 160.461 343.129 160.461C342.101 160.461 341.301 160.659 340.73 161.054C340.159 161.45 339.873 162.008 339.873 162.729ZM353.452 167V152.749H356.708V158.523H363.01V152.749H366.267V167H363.01V161.252H356.708V167H353.452ZM368.732 164.192H370.261C371.325 162.065 371.856 158.835 371.856 154.502V152.749H382.904V164.192H384.935L384.5 170.428H381.771V167H371.777L371.461 170.428H368.732V164.192ZM373.61 164.192H379.635V155.557H374.941V157.442C374.941 160.07 374.498 162.32 373.61 164.192ZM386.675 162.847C386.675 161.318 387.202 160.158 388.257 159.367C389.32 158.567 390.718 158.167 392.449 158.167C393.847 158.167 395.161 158.365 396.391 158.76V158.497C396.391 157.503 396.088 156.748 395.481 156.229C394.884 155.702 394.018 155.438 392.884 155.438C391.601 155.438 390.243 155.737 388.811 156.334L387.914 153.711C388.793 153.315 389.646 153.021 390.472 152.828C391.307 152.625 392.265 152.524 393.346 152.524C395.42 152.524 396.98 153.047 398.026 154.093C399.081 155.13 399.608 156.616 399.608 158.549V167H396.365V165.247C395.213 166.618 393.675 167.303 391.75 167.303C390.828 167.303 389.988 167.141 389.232 166.815C388.477 166.481 387.861 165.972 387.387 165.286C386.912 164.601 386.675 163.788 386.675 162.847ZM389.918 162.729C389.918 163.379 390.177 163.893 390.696 164.271C391.214 164.649 391.874 164.838 392.673 164.838C393.763 164.838 394.664 164.561 395.376 164.007C396.088 163.445 396.444 162.724 396.444 161.845V161.028C395.495 160.65 394.405 160.461 393.174 160.461C392.146 160.461 391.346 160.659 390.775 161.054C390.204 161.45 389.918 162.008 389.918 162.729ZM403.497 171.324V152.749H406.753V155.122C408.019 153.337 409.632 152.445 411.592 152.445C412.444 152.445 413.266 152.612 414.057 152.946C414.848 153.28 415.556 153.755 416.18 154.37C416.804 154.985 417.3 155.772 417.669 156.73C418.047 157.688 418.236 158.743 418.236 159.894C418.236 161.037 418.047 162.083 417.669 163.032C417.3 163.981 416.804 164.763 416.18 165.378C415.564 165.994 414.861 166.468 414.07 166.802C413.279 167.136 412.453 167.303 411.592 167.303C409.641 167.303 408.028 166.464 406.753 164.785V171.324H403.497ZM406.674 159.894C406.674 161.23 407.083 162.324 407.9 163.177C408.718 164.029 409.698 164.456 410.84 164.456C411.992 164.456 412.958 164.038 413.741 163.203C414.523 162.359 414.914 161.239 414.914 159.841C414.914 158.497 414.519 157.402 413.728 156.559C412.937 155.706 411.974 155.28 410.84 155.28C409.698 155.28 408.718 155.71 407.9 156.572C407.083 157.433 406.674 158.541 406.674 159.894ZM420.042 155.557V152.749H432.514V155.557H427.926V167H424.63V155.557H420.042Z" fill="#E84A0D"/>
<defs>
<linearGradient id="paint0_linear_57_286" x1="187.904" y1="117.688" x2="187.904" y2="4.52628" gradientUnits="userSpaceOnUse">
<stop stop-color="#201225"/>
<stop offset="1" stop-color="#B50DC0"/>
</linearGradient>
<linearGradient id="paint1_linear_57_286" x1="157.618" y1="117.421" x2="157.618" y2="42.7357" gradientUnits="userSpaceOnUse">
<stop stop-color="#201225"/>
<stop offset="1" stop-color="#53044F"/>
</linearGradient>
<linearGradient id="paint2_linear_57_286" x1="63.3529" y1="59.612" x2="136.457" y2="59.612" gradientUnits="userSpaceOnUse">
<stop stop-color="#AC300E"/>
<stop offset="1" stop-color="#64060D"/>
</linearGradient>
<linearGradient id="paint3_linear_57_286" x1="63.214" y1="40.9502" x2="184.425" y2="40.9502" gradientUnits="userSpaceOnUse">
<stop stop-color="#5E0E10"/>
<stop offset="1" stop-color="#E84A0D"/>
</linearGradient>
</defs>
</svg>
