<svg width="38" height="38" viewBox="0 0 38 38" fill="none" xmlns="http://www.w3.org/2000/svg">
<g clip-path="url(#clip0_34_12)">
<rect width="38" height="38" rx="3" fill="url(#paint0_linear_34_12)"/>
<path d="M2.126 13L4.367 6.367H5.636L7.877 13H7.022L6.455 11.272H3.548L2.99 13H2.126ZM3.791 10.552H6.221L5.105 7.141H4.898L3.791 10.552ZM8.74093 13V8.293H9.53293V9.139L10.3519 8.293H12.0889L13.0249 9.238V13H12.2329V9.436L11.7559 8.923H10.5589L9.53293 9.967V13H8.74093ZM15.2908 13L14.3458 12.055V9.238L15.2908 8.293H17.5228L18.4678 9.238V12.055L17.5228 13H15.2908ZM15.6328 12.37H17.1808L17.6758 11.875L17.6668 9.418L17.1808 8.923H15.6328L15.1378 9.418V11.875L15.6328 12.37ZM20.7147 13L19.8867 12.181V8.923H19.3917V8.293H19.9047L20.1027 7.087H20.6787V8.293H21.6777V8.923H20.6787V11.902L21.1017 12.343H21.8847V13H20.7147ZM22.8474 13V6.367H23.6394V9.04L24.3594 8.293H26.0964L27.0324 9.238V13H26.2404V9.436L25.7634 8.923H24.5664L23.6394 9.868V13H22.8474ZM29.3006 13L28.3556 12.055V9.238L29.3006 8.293H31.3976L32.3426 9.238V10.939H29.1476V11.848L29.6426 12.343H32.2616V13H29.3006ZM29.1476 10.309H31.5506V9.418L31.0556 8.923H29.6426L29.1476 9.418V10.309ZM33.7107 13V8.293H34.5027V9.139L35.3217 8.293H36.5277V9.085H35.3577L34.5027 9.967V13H33.7107Z" fill="black"/>
<path d="M7.738 28V27.343H10.231L10.654 26.911V26.344L10.204 25.894H8.341L7.513 25.084V24.13L8.341 23.293H10.996V23.959H8.719L8.305 24.364V24.823L8.737 25.255H10.618L11.446 26.065V27.172L10.627 28H7.738ZM12.695 28V21.367H13.487V24.976H13.685L15.575 23.293H16.619L14.585 25.201L16.754 28H15.8L14.036 25.714L13.487 26.227V28H12.695ZM17.5818 22.78V21.718H18.3738V22.78H17.5818ZM17.5818 28V23.293H18.3738V28H17.5818ZM19.8405 28V21.367H20.6325V28H19.8405ZM22.0993 28V21.367H22.8913V28H22.0993ZM24.3581 28V27.343H26.8511L27.2741 26.911V26.344L26.8241 25.894H24.9611L24.1331 25.084V24.13L24.9611 23.293H27.6161V23.959H25.3391L24.9251 24.364V24.823L25.3571 25.255H27.2381L28.0661 26.065V27.172L27.2471 28H24.3581Z" fill="black"/>
</g>
<defs>
<linearGradient id="paint0_linear_34_12" x1="19" y1="0" x2="19" y2="38" gradientUnits="userSpaceOnUse">
<stop stop-color="#DCD303"/>
<stop offset="0.52068" stop-color="white" stop-opacity="0.662067"/>
<stop offset="0.789583" stop-color="#FFF500" stop-opacity="0.67"/>
<stop offset="0.9999" stop-color="#DCD303" stop-opacity="0.351042"/>
<stop offset="1" stop-color="#DCD303"/>
</linearGradient>
<clipPath id="clip0_34_12">
<rect width="38" height="38" fill="white"/>
</clipPath>
</defs>
</svg>
