<svg width="532" height="48" viewBox="0 0 532 48" fill="none" xmlns="http://www.w3.org/2000/svg">
<path d="M0.896 48L16.832 0.831997H25.856L41.792 48H35.712L31.68 35.712H11.008L7.04 48H0.896ZM12.736 30.592H30.016L22.08 6.336H20.608L12.736 30.592ZM48.2555 48V0.831997H56.1915L77.2475 38.784V0.831997H83.0715V48H76.1595L55.4875 10.752H54.0795V48H48.2555ZM99.697 48L92.977 41.28V7.552L99.697 0.831997H121.969L128.689 7.552V41.28L121.969 48H99.697ZM102.321 42.816H119.345L122.865 39.296V9.536L119.345 6.016H102.321L98.801 9.536V39.296L102.321 42.816ZM147.911 48V6.208H133.895V0.831997H167.751V6.208H153.735V48H147.911ZM174.131 48V0.831997H179.955V20.608H203.315V0.831997H209.139V48H203.315V25.792H179.955V48H174.131ZM220.193 48V0.831997H251.297V6.208H226.017V20.544H248.609V25.856H226.017V42.624H251.297V48H220.193ZM260.193 48V0.831997H285.985L292.641 7.552V22.592L285.985 29.312H285.793L294.305 48H287.841L279.457 29.312H266.017V48H260.193ZM266.017 24.128H283.361L286.817 20.608V9.536L283.361 6.016H266.017V24.128ZM317.757 48V42.624H340.989L344.445 39.104V29.696L340.989 26.176H322.749L316.093 19.52V7.552L322.749 0.831997H347.837V6.208H325.373L321.853 9.728L321.917 17.536L325.373 21.056H343.613L350.269 27.776V41.28L343.613 48H317.757ZM359.818 48V0.831997H365.642V25.984L387.914 0.831997H394.826L377.162 21.056L395.146 48H388.17L373.13 25.6L365.642 34.176V48H359.818ZM400.218 48V42.624H405.978V6.208H400.218V0.831997H417.562V6.208H411.802V42.624H417.562V48H400.218ZM427.068 48V0.831997H432.892V42.624H456.636V48H427.068ZM462.818 48V0.831997H468.642V42.624H492.386V48H462.818ZM498.632 48V42.624H521.864L525.32 39.104V29.696L521.864 26.176H503.624L496.968 19.52V7.552L503.624 0.831997H528.712V6.208H506.248L502.728 9.728L502.792 17.536L506.248 21.056H524.488L531.144 27.776V41.28L524.488 48H498.632Z" fill="white"/>
</svg>
