<svg width="441" height="48" viewBox="0 0 441 48" fill="none" xmlns="http://www.w3.org/2000/svg">
<path d="M0.568 48V0.831997H25.848L32.504 7.552V18.624L29.56 22.592L35 28.096V41.28L28.28 48H0.568ZM6.392 20.608H23.992L26.68 16.96V9.536L23.224 5.952L6.392 6.016V20.608ZM6.392 42.816H25.656L29.176 39.296V29.632L25.464 25.792H6.392V42.816ZM44.7555 48V0.831997H75.8595V6.208H50.5795V20.544H73.1715V25.856H50.5795V42.624H75.8595V48H44.7555ZM84.7555 48V0.831997H92.6915L107.54 38.528L122.452 0.831997H130.452V48H124.564V9.728L109.204 48H105.94L90.5795 9.792V48H84.7555ZM155.693 48V0.831997H180.973L187.629 7.552V18.624L184.685 22.592L190.125 28.096V41.28L183.405 48H155.693ZM161.517 20.608H179.117L181.805 16.96V9.536L178.349 5.952L161.517 6.016V20.608ZM161.517 42.816H180.781L184.301 39.296V29.632L180.589 25.792H161.517V42.816ZM199.881 48V0.831997H230.985V6.208H205.705V20.544H228.297V25.856H205.705V42.624H230.985V48H199.881ZM239.881 48V0.831997H247.817L262.665 38.528L277.577 0.831997H285.577V48H279.689V9.728L264.329 48H261.065L245.705 9.792V48H239.881ZM310.818 48V0.831997H336.098L342.754 7.552V18.624L339.81 22.592L345.25 28.096V41.28L338.53 48H310.818ZM316.642 20.608H334.242L336.93 16.96V9.536L333.474 5.952L316.642 6.016V20.608ZM316.642 42.816H335.906L339.426 39.296V29.632L335.714 25.792H316.642V42.816ZM355.006 48V0.831997H386.11V6.208H360.83V20.544H383.422V25.856H360.83V42.624H386.11V48H355.006ZM395.006 48V0.831997H402.942L417.79 38.528L432.702 0.831997H440.702V48H434.814V9.728L419.454 48H416.19L400.83 9.792V48H395.006Z" fill="white"/>
</svg>
