<svg width="361" height="48" viewBox="0 0 361 48" fill="none" xmlns="http://www.w3.org/2000/svg">
<path d="M0.568 48V0.831997H25.848L32.504 7.552V18.624L29.56 22.592L35 28.096V41.28L28.28 48H0.568ZM6.392 20.608H23.992L26.68 16.96V9.536L23.224 5.952L6.392 6.016V20.608ZM6.392 42.816H25.656L29.176 39.296V29.632L25.464 25.792H6.392V42.816ZM49.822 48L43.102 41.28V7.552L49.822 0.831997H72.094L78.814 7.552V41.28L72.094 48H49.822ZM52.446 42.816H69.47L72.99 39.296V9.536L69.47 6.016H52.446L48.926 9.536V39.296L52.446 42.816ZM94.2595 48L87.5395 41.28V7.552L94.2595 0.831997H116.532L123.252 7.552V41.28L116.532 48H94.2595ZM96.8835 42.816H113.908L117.428 39.296V9.536L113.908 6.016H96.8835L93.3635 9.536V39.296L96.8835 42.816ZM142.473 48V6.208H128.457V0.831997H162.313V6.208H148.297V48H142.473ZM167.32 48V42.624H190.552L194.007 39.104V29.696L190.552 26.176H172.312L165.656 19.52V7.552L172.312 0.831997H197.4V6.208H174.936L171.416 9.728L171.48 17.536L174.936 21.056H193.176L199.832 27.776V41.28L193.176 48H167.32ZM217.223 48V6.208H203.207V0.831997H237.063V6.208H223.047V48H217.223ZM243.443 48V0.831997H269.235L275.891 7.552V22.592L269.235 29.312H269.043L277.555 48H271.091L262.707 29.312H249.267V48H243.443ZM249.267 24.128H266.611L270.067 20.608V9.536L266.611 6.016H249.267V24.128ZM281.396 48L297.332 0.831997H306.356L322.292 48H316.212L312.18 35.712H291.508L287.54 48H281.396ZM293.236 30.592H310.516L302.58 6.336H301.108L293.236 30.592ZM328.756 48V0.831997H353.652L360.308 7.552V23.744L353.652 30.464H334.58V48H328.756ZM334.58 25.28H351.028L354.484 21.76V9.536L351.028 5.952L334.58 6.016V25.28Z" fill="white"/>
</svg>
