<svg width="38" height="38" viewBox="0 0 38 38" fill="none" xmlns="http://www.w3.org/2000/svg">
<g clip-path="url(#clip0_34_6)">
<rect width="38" height="38" rx="3" fill="url(#paint0_linear_34_6)"/>
<path d="M8.783 15V8.367H12.338L13.274 9.312V10.869L12.86 11.427L13.625 12.201V14.055L12.68 15H8.783ZM9.602 11.148H12.077L12.455 10.635V9.591L11.969 9.087L9.602 9.096V11.148ZM9.602 14.271H12.311L12.806 13.776V12.417L12.284 11.877H9.602V14.271ZM15.7889 15L14.8439 14.055V11.238L15.7889 10.293H18.0209L18.9659 11.238V14.055L18.0209 15H15.7889ZM16.1309 14.37H17.6789L18.1739 13.875L18.1649 11.418L17.6789 10.923H16.1309L15.6359 11.418V13.875L16.1309 14.37ZM21.1238 15L20.1788 14.055V11.238L21.1238 10.293H23.3558L24.3008 11.238V14.055L23.3558 15H21.1238ZM21.4658 14.37H23.0138L23.5088 13.875L23.4998 11.418L23.0138 10.923H21.4658L20.9708 11.418V13.875L21.4658 14.37ZM26.5477 15L25.7197 14.181V10.923H25.2247V10.293H25.7377L25.9357 9.087H26.5117V10.293H27.5107V10.923H26.5117V13.902L26.9347 14.343H27.7177V15H26.5477ZM8.738 26V25.343H11.231L11.654 24.911V24.344L11.204 23.894H9.341L8.513 23.084V22.13L9.341 21.293H11.996V21.959H9.719L9.305 22.364V22.823L9.737 23.255H11.618L12.446 24.065V25.172L11.627 26H8.738ZM14.577 26L13.749 25.181V21.923H13.254V21.293H13.767L13.965 20.087H14.541V21.293H15.54V21.923H14.541V24.902L14.964 25.343H15.747V26H14.577ZM16.7097 26V21.293H17.5017V22.139L18.3207 21.293H19.5267V22.085H18.3567L17.5017 22.967V26H16.7097ZM20.6768 26L19.7408 25.055V23.984L20.6768 23.039H23.0708V22.454L22.5848 21.959H20.3528V21.293H22.9268L23.8628 22.238V26H23.0708V25.271L22.3418 26H20.6768ZM21.0278 25.37H22.1438L23.0708 24.452V23.66L21.0278 23.669L20.5328 24.155V24.875L21.0278 25.37ZM25.2966 27.683V21.293H26.0886V22.04L26.8086 21.293H28.5456L29.4816 22.238V25.055L28.5456 26H26.8086L26.0886 25.262V27.683H25.2966ZM27.0156 25.37H28.2036L28.6896 24.875V22.418L28.2036 21.923H27.0156L26.0886 22.868V24.434L27.0156 25.37Z" fill="black"/>
</g>
<defs>
<linearGradient id="paint0_linear_34_6" x1="19" y1="0" x2="19" y2="38" gradientUnits="userSpaceOnUse">
<stop stop-color="#DCD303"/>
<stop offset="0.52068" stop-color="white" stop-opacity="0.662067"/>
<stop offset="0.789583" stop-color="#FFF500" stop-opacity="0.67"/>
<stop offset="0.9999" stop-color="#DCD303" stop-opacity="0.351042"/>
<stop offset="1" stop-color="#DCD303"/>
</linearGradient>
<clipPath id="clip0_34_6">
<rect width="38" height="38" fill="white"/>
</clipPath>
</defs>
</svg>
