<svg width="441" height="48" viewBox="0 0 441 48" fill="none" xmlns="http://www.w3.org/2000/svg">
<path d="M7.072 48L0.352 41.28V7.552L7.072 0.831997H28.384L34.912 7.36L31.2 11.136L26.08 6.016H9.696L6.176 9.536V39.296L9.696 42.816H26.592L31.776 37.632L35.488 41.408L28.832 48H7.072ZM48.5095 48L41.7895 41.28V7.552L48.5095 0.831997H70.7815L77.5015 7.552V41.28L70.7815 48H48.5095ZM51.1335 42.816H68.1575L71.6775 39.296V9.536L68.1575 6.016H51.1335L47.6135 9.536V39.296L51.1335 42.816ZM87.443 48V0.831997H95.379L110.227 38.528L125.139 0.831997H133.139V48H127.251V9.728L111.891 48H108.627L93.267 9.792V48H87.443ZM142.593 48V42.624H148.353V6.208H142.593V0.831997H159.937V6.208H154.177V42.624H159.937V48H142.593ZM169.443 48V0.831997H177.379L198.435 38.784V0.831997H204.259V48H197.347L176.675 10.752H175.267V48H169.443ZM220.757 48L214.165 41.28V7.552L220.885 0.831997H243.285L249.812 7.36L246.101 11.136L240.981 6.016H223.509L219.989 9.536V39.296L223.509 42.816H237.653L244.949 36.032V28.352H234.069V23.232H249.812V48H244.949V42.56L239.125 48H220.757ZM275.132 48V42.624H298.364L301.82 39.104V29.696L298.364 26.176H280.124L273.468 19.52V7.552L280.124 0.831997H305.212V6.208H282.748L279.228 9.728L279.292 17.536L282.748 21.056H300.988L307.644 27.776V41.28L300.988 48H275.132ZM322.697 48L315.977 41.28V7.552L322.697 0.831997H344.969L351.689 7.552V41.28L344.969 48H322.697ZM325.321 42.816H342.345L345.865 39.296V9.536L342.345 6.016H325.321L321.801 9.536V39.296L325.321 42.816ZM367.135 48L360.415 41.28V7.552L367.135 0.831997H389.407L396.127 7.552V41.28L389.407 48H367.135ZM369.759 42.816H386.783L390.303 39.296V9.536L386.783 6.016H369.759L366.239 9.536V39.296L369.759 42.816ZM406.068 48V0.831997H414.004L435.06 38.784V0.831997H440.884V48H433.972L413.3 10.752H411.892V48H406.068Z" fill="white"/>
</svg>
