<svg width="38" height="38" viewBox="0 0 38 38" fill="none" xmlns="http://www.w3.org/2000/svg">
<g clip-path="url(#clip0_34_13)">
<rect width="38" height="38" rx="3" fill="url(#paint0_linear_34_13)"/>
<path d="M3.557 13L2.612 12.055V7.312L3.557 6.367H6.554L7.472 7.285L6.95 7.816L6.23 7.096H3.926L3.431 7.591V11.776L3.926 12.271H6.302L7.031 11.542L7.553 12.073L6.617 13H3.557ZM9.40215 13L8.45715 12.055V9.238L9.40215 8.293H11.6341L12.5791 9.238V12.055L11.6341 13H9.40215ZM9.74415 12.37H11.2921L11.7871 11.875L11.7781 9.418L11.2921 8.923H9.74415L9.24915 9.418V11.875L9.74415 12.37ZM13.9441 13V8.293H14.7361V9.139L15.5551 8.293H17.2921L18.1201 9.13L18.9301 8.293H20.6671L21.6121 9.238V13H20.8201V9.436L20.3431 8.923H19.1371L18.2281 9.841V13H17.4361L17.4451 9.436L16.9591 8.923H15.7621L14.7361 9.967V13H13.9441ZM23.0407 7.78V6.718H23.8327V7.78H23.0407ZM23.0407 13V8.293H23.8327V13H23.0407ZM25.2995 13V8.293H26.0915V9.139L26.9105 8.293H28.6475L29.5835 9.238V13H28.7915V9.436L28.3145 8.923H27.1175L26.0915 9.967V13H25.2995ZM31.2734 14.683V14.026L33.8114 14.017L34.3064 13.531V12.262L33.5774 13H31.8494L30.9044 12.055V9.238L31.8494 8.293H33.5774L34.3064 9.04V8.293H35.0984V13.738L34.1534 14.683H31.2734ZM33.3794 12.37L34.3064 11.434V9.868L33.3794 8.923H32.1914L31.6964 9.418V11.875L32.1914 12.37H33.3794Z" fill="black"/>
<path d="M9.738 28V27.343H12.231L12.654 26.911V26.344L12.204 25.894H10.341L9.513 25.084V24.13L10.341 23.293H12.996V23.959H10.719L10.305 24.364V24.823L10.737 25.255H12.618L13.446 26.065V27.172L12.627 28H9.738ZM15.4881 28L14.5431 27.055V24.238L15.4881 23.293H17.7201L18.6651 24.238V27.055L17.7201 28H15.4881ZM15.8301 27.37H17.3781L17.8731 26.875L17.8641 24.418L17.3781 23.923H15.8301L15.3351 24.418V26.875L15.8301 27.37ZM20.823 28L19.878 27.055V24.238L20.823 23.293H23.055L24 24.238V27.055L23.055 28H20.823ZM21.165 27.37H22.713L23.208 26.875L23.199 24.418L22.713 23.923H21.165L20.67 24.418V26.875L21.165 27.37ZM25.365 28V23.293H26.157V24.139L26.976 23.293H28.713L29.649 24.238V28H28.857V24.436L28.38 23.923H27.183L26.157 24.967V28H25.365Z" fill="black"/>
</g>
<defs>
<linearGradient id="paint0_linear_34_13" x1="19" y1="0" x2="19" y2="38" gradientUnits="userSpaceOnUse">
<stop stop-color="#DCD303"/>
<stop offset="0.52068" stop-color="white" stop-opacity="0.662067"/>
<stop offset="0.789583" stop-color="#FFF500" stop-opacity="0.67"/>
<stop offset="0.9999" stop-color="#DCD303" stop-opacity="0.351042"/>
<stop offset="1" stop-color="#DCD303"/>
</linearGradient>
<clipPath id="clip0_34_13">
<rect width="38" height="38" fill="white"/>
</clipPath>
</defs>
</svg>
