<svg width="38" height="38" viewBox="0 0 38 38" fill="none" xmlns="http://www.w3.org/2000/svg">
<g clip-path="url(#clip0_34_11)">
<rect width="38" height="38" rx="3" fill="url(#paint0_linear_34_11)"/>
<path d="M6.783 21V14.367H11.058V15.123H7.602V17.265H10.635V18.012H7.602V21H6.783ZM11.9323 15.78V14.718H12.7243V15.78H11.9323ZM11.9323 21V16.293H12.7243V21H11.9323ZM14.4521 22.683V22.026L16.9901 22.017L17.4851 21.531V20.262L16.7561 21H15.0281L14.0831 20.055V17.238L15.0281 16.293H16.7561L17.4851 17.04V16.293H18.2771V21.738L17.3321 22.683H14.4521ZM16.5581 20.37L17.4851 19.434V17.868L16.5581 16.923H15.3701L14.8751 17.418V19.875L15.3701 20.37H16.5581ZM19.7458 21V16.293H20.5378V17.139L21.3568 16.293H23.0938L23.9218 17.13L24.7318 16.293H26.4688L27.4138 17.238V21H26.6218V17.436L26.1448 16.923H24.9388L24.0298 17.841V21H23.2378L23.2468 17.436L22.7608 16.923H21.5638L20.5378 17.967V21H19.7458ZM29.3555 21L28.4195 20.055V18.984L29.3555 18.039H31.7495V17.454L31.2635 16.959H29.0315V16.293H31.6055L32.5415 17.238V21H31.7495V20.271L31.0205 21H29.3555ZM29.7065 20.37H30.8225L31.7495 19.452V18.66L29.7065 18.669L29.2115 19.155V19.875L29.7065 20.37Z" fill="black"/>
</g>
<defs>
<linearGradient id="paint0_linear_34_11" x1="19" y1="0" x2="19" y2="38" gradientUnits="userSpaceOnUse">
<stop stop-color="#DCD303"/>
<stop offset="0.52068" stop-color="white" stop-opacity="0.662067"/>
<stop offset="0.789583" stop-color="#FFF500" stop-opacity="0.67"/>
<stop offset="0.9999" stop-color="#DCD303" stop-opacity="0.351042"/>
<stop offset="1" stop-color="#DCD303"/>
</linearGradient>
<clipPath id="clip0_34_11">
<rect width="38" height="38" fill="white"/>
</clipPath>
</defs>
</svg>
