<svg width="202" height="48" viewBox="0 0 202 48" fill="none" xmlns="http://www.w3.org/2000/svg">
<path d="M0.568 48V0.831997H30.968V6.208H6.392V21.44H27.96V26.752H6.392V48H0.568ZM35.9055 48V42.624H41.6655V6.208H35.9055V0.831997H53.2495V6.208H47.4895V42.624H53.2495V48H35.9055ZM68.1315 48L61.5395 41.28V7.552L68.2595 0.831997H90.6595L97.1875 7.36L93.4755 11.136L88.3555 6.016H70.8835L67.3635 9.536V39.296L70.8835 42.816H85.0275L92.3235 36.032V28.352H81.4435V23.232H97.1875V48H92.3235V42.56L86.4995 48H68.1315ZM108.256 48V0.831997H116.192L131.04 38.528L145.952 0.831997H153.952V48H148.064V9.728L132.704 48H129.44L114.08 9.792V48H108.256ZM160.334 48L176.27 0.831997H185.294L201.23 48H195.15L191.118 35.712H170.446L166.478 48H160.334ZM172.174 30.592H189.454L181.518 6.336H180.046L172.174 30.592Z" fill="white"/>
</svg>
