<svg width="343" height="48" viewBox="0 0 343 48" fill="none" xmlns="http://www.w3.org/2000/svg">
<path d="M6.944 48L0.352 41.28V7.552L7.072 0.831997H29.472L36 7.36L32.288 11.136L27.168 6.016H9.696L6.176 9.536V39.296L9.696 42.816H23.84L31.136 36.032V28.352H20.256V23.232H36V48H31.136V42.56L25.312 48H6.944ZM45.468 48V42.624H51.228V6.208H45.468V0.831997H62.812V6.208H57.052V42.624H62.812V48H45.468ZM81.598 48V6.208H67.582V0.831997H101.438V6.208H87.422V48H81.598ZM127.382 48L120.79 41.28V7.552L127.51 0.831997H149.91L156.438 7.36L152.726 11.136L147.606 6.016H130.134L126.614 9.536V39.296L130.134 42.816H144.278L151.574 36.032V28.352H140.694V23.232H156.438V48H151.574V42.56L145.75 48H127.382ZM165.906 48V42.624H171.666V6.208H165.906V0.831997H183.25V6.208H177.49V42.624H183.25V48H165.906ZM202.036 48V6.208H188.02V0.831997H221.876V6.208H207.86V48H202.036ZM247.819 48L241.227 41.28V7.552L247.947 0.831997H270.347L276.875 7.36L273.163 11.136L268.043 6.016H250.571L247.051 9.536V39.296L250.571 42.816H264.715L272.011 36.032V28.352H261.131V23.232H276.875V48H272.011V42.56L266.187 48H247.819ZM286.343 48V42.624H292.103V6.208H286.343V0.831997H303.687V6.208H297.927V42.624H303.687V48H286.343ZM322.473 48V6.208H308.457V0.831997H342.313V6.208H328.297V48H322.473Z" fill="white"/>
</svg>
