<svg width="344" height="48" viewBox="0 0 344 48" fill="none" xmlns="http://www.w3.org/2000/svg">
<path d="M0.568 48V0.831997H6.392V20.608H29.752V0.831997H35.576V48H29.752V25.792H6.392V48H0.568ZM55.9105 48V6.208H41.8945V0.831997H75.7505V6.208H61.7345V48H55.9105ZM82.1305 48V0.831997H90.0665L104.915 38.528L119.827 0.831997H127.827V48H121.939V9.728L106.579 48H103.315L87.9545 9.792V48H82.1305ZM138.881 48V0.831997H144.705V42.624H168.449V48H138.881ZM188.818 48V0.831997H196.754L211.602 38.528L226.514 0.831997H234.514V48H228.626V9.728L213.266 48H210.002L194.642 9.792V48H188.818ZM240.896 48L256.832 0.831997H265.856L281.792 48H275.712L271.68 35.712H251.008L247.04 48H240.896ZM252.736 30.592H270.016L262.08 6.336H260.608L252.736 30.592ZM286.656 48V42.624H292.416V6.208H286.656V0.831997H304V6.208H298.24V42.624H304V48H286.656ZM313.506 48V0.831997H319.33V42.624H343.074V48H313.506Z" fill="white"/>
</svg>
