<svg width="38" height="38" viewBox="0 0 38 38" fill="none" xmlns="http://www.w3.org/2000/svg">
<g clip-path="url(#clip0_34_9)">
<rect width="38" height="38" rx="3" fill="url(#paint0_linear_34_9)"/>
<path d="M6.783 15V8.367H7.602V11.148H10.887V8.367H11.706V15H10.887V11.877H7.602V15H6.783ZM14.5655 15V9.123H12.5945V8.367H17.3555V9.123H15.3845V15H14.5655ZM18.2527 15V8.367H19.3687L21.4567 13.668L23.5537 8.367H24.6787V15H23.8507V9.618L21.6907 15H21.2317L19.0717 9.627V15H18.2527ZM26.2332 15V8.367H27.0522V14.244H30.3912V15H26.2332Z" fill="black"/>
<path d="M6.783 29V22.367H11.157V23.123H7.602V25.139H10.779V25.886H7.602V28.244H11.157V29H6.783ZM12.363 29V24.293H13.155V25.139L13.974 24.293H15.711L16.539 25.13L17.349 24.293H19.086L20.031 25.238V29H19.239V25.436L18.762 24.923H17.556L16.647 25.841V29H15.855L15.864 25.436L15.378 24.923H14.181L13.155 25.967V29H12.363ZM21.9727 29L21.0367 28.055V26.984L21.9727 26.039H24.3667V25.454L23.8807 24.959H21.6487V24.293H24.2227L25.1587 25.238V29H24.3667V28.271L23.6377 29H21.9727ZM22.3237 28.37H23.4397L24.3667 27.452V26.66L22.3237 26.669L21.8287 27.155V27.875L22.3237 28.37ZM26.5925 23.78V22.718H27.3845V23.78H26.5925ZM26.5925 29V24.293H27.3845V29H26.5925ZM28.8513 29V22.367H29.6433V29H28.8513Z" fill="black"/>
</g>
<defs>
<linearGradient id="paint0_linear_34_9" x1="19" y1="0" x2="19" y2="38" gradientUnits="userSpaceOnUse">
<stop stop-color="#DCD303"/>
<stop offset="0.52068" stop-color="white" stop-opacity="0.662067"/>
<stop offset="0.789583" stop-color="#FFF500" stop-opacity="0.67"/>
<stop offset="0.9999" stop-color="#DCD303" stop-opacity="0.351042"/>
<stop offset="1" stop-color="#DCD303"/>
</linearGradient>
<clipPath id="clip0_34_9">
<rect width="38" height="38" fill="white"/>
</clipPath>
</defs>
</svg>
