<svg width="38" height="38" viewBox="0 0 38 38" fill="none" xmlns="http://www.w3.org/2000/svg">
<g clip-path="url(#clip0_33_5)">
<rect width="38" height="38" rx="3" fill="url(#paint0_linear_33_5)"/>
<path d="M8.783 14V7.367H9.602V10.148H12.887V7.367H13.706V14H12.887V10.877H9.602V14H8.783ZM16.5655 14V8.123H14.5945V7.367H19.3555V8.123H17.3845V14H16.5655ZM20.2527 14V7.367H21.3687L23.4567 12.668L25.5537 7.367H26.6787V14H25.8507V8.618L23.6907 14H23.2317L21.0717 8.627V14H20.2527ZM28.2332 14V7.367H29.0522V13.244H32.3912V14H28.2332Z" fill="black"/>
<path d="M11.557 32L10.612 31.055V26.312L11.557 25.367H14.554L15.472 26.285L14.95 26.816L14.23 26.096H11.926L11.431 26.591V30.776L11.926 31.271H14.302L15.031 30.542L15.553 31.073L14.617 32H11.557ZM16.5225 32V31.244H19.7895L20.2755 30.749V29.426L19.7895 28.931H17.2245L16.2885 27.995V26.312L17.2245 25.367H20.7525V26.123H17.5935L17.0985 26.618L17.1075 27.716L17.5935 28.211H20.1585L21.0945 29.156V31.055L20.1585 32H16.5225ZM22.2441 32V31.244H25.5111L25.9971 30.749V29.426L25.5111 28.931H22.9461L22.0101 27.995V26.312L22.9461 25.367H26.4741V26.123H23.3151L22.8201 26.618L22.8291 27.716L23.3151 28.211H25.8801L26.8161 29.156V31.055L25.8801 32H22.2441Z" fill="black"/>
</g>
<defs>
<linearGradient id="paint0_linear_33_5" x1="19" y1="0" x2="19" y2="38" gradientUnits="userSpaceOnUse">
<stop stop-color="#DCD303"/>
<stop offset="0.52068" stop-color="white" stop-opacity="0.662067"/>
<stop offset="0.789583" stop-color="#FFF500" stop-opacity="0.67"/>
<stop offset="0.9999" stop-color="#DCD303" stop-opacity="0.351042"/>
<stop offset="1" stop-color="#DCD303"/>
</linearGradient>
<clipPath id="clip0_33_5">
<rect width="38" height="38" fill="white"/>
</clipPath>
</defs>
</svg>
