<svg width="303" height="48" viewBox="0 0 303 48" fill="none" xmlns="http://www.w3.org/2000/svg">
<path d="M0.568 48V0.831997H6.392V20.608H29.752V0.831997H35.576V48H29.752V25.792H6.392V48H0.568ZM55.9105 48V6.208H41.8945V0.831997H75.7505V6.208H61.7345V48H55.9105ZM82.1305 48V0.831997H90.0665L104.915 38.528L119.827 0.831997H127.827V48H121.939V9.728L106.579 48H103.315L87.9545 9.792V48H82.1305ZM138.881 48V0.831997H144.705V42.624H168.449V48H138.881ZM194.322 48L187.602 41.28V7.552L194.322 0.831997H215.634L222.162 7.36L218.45 11.136L213.33 6.016H196.946L193.426 9.536V39.296L196.946 42.816H213.842L219.026 37.632L222.738 41.408L216.082 48H194.322ZM229.632 48V42.624H252.864L256.32 39.104V29.696L252.864 26.176H234.624L227.968 19.52V7.552L234.624 0.831997H259.712V6.208H237.248L233.728 9.728L233.792 17.536L237.248 21.056H255.488L262.144 27.776V41.28L255.488 48H229.632ZM270.32 48V42.624H293.552L297.007 39.104V29.696L293.552 26.176H275.312L268.656 19.52V7.552L275.312 0.831997H300.4V6.208H277.936L274.416 9.728L274.48 17.536L277.936 21.056H296.176L302.832 27.776V41.28L296.176 48H270.32Z" fill="white"/>
</svg>
