<svg width="352" height="48" viewBox="0 0 352 48" fill="none" xmlns="http://www.w3.org/2000/svg">
<path d="M6.856 48L0.2 41.28V30.464H6.024V39.296L9.544 42.816H19.08L22.6 39.296V0.831997H28.424V41.28L21.704 48H6.856ZM39.5695 48V42.624H62.8015L66.2575 39.104V29.696L62.8015 26.176H44.5615L37.9055 19.52V7.552L44.5615 0.831997H69.6495V6.208H47.1855L43.6655 9.728L43.7295 17.536L47.1855 21.056H65.4255L72.0815 27.776V41.28L65.4255 48H39.5695ZM100.106 48L93.45 41.28V30.464H99.274V39.296L102.794 42.816H112.33L115.85 39.296V0.831997H121.674V41.28L114.954 48H100.106ZM132.82 48V42.624H156.052L159.507 39.104V29.696L156.052 26.176H137.812L131.156 19.52V7.552L137.812 0.831997H162.9V6.208H140.436L136.916 9.728L136.98 17.536L140.436 21.056H158.676L165.332 27.776V41.28L158.676 48H132.82ZM193.356 48L186.7 41.28V30.464H192.524V39.296L196.044 42.816H205.58L209.1 39.296V0.831997H214.924V41.28L208.204 48H193.356ZM226.07 48V42.624H249.302L252.757 39.104V29.696L249.302 26.176H231.062L224.406 19.52V7.552L231.062 0.831997H256.15V6.208H233.686L230.166 9.728L230.23 17.536L233.686 21.056H251.926L258.582 27.776V41.28L251.926 48H226.07ZM286.606 48L279.95 41.28V30.464H285.774V39.296L289.294 42.816H298.83L302.35 39.296V0.831997H308.174V41.28L301.454 48H286.606ZM319.32 48V42.624H342.552L346.007 39.104V29.696L342.552 26.176H324.312L317.656 19.52V7.552L324.312 0.831997H349.4V6.208H326.936L323.416 9.728L323.48 17.536L326.936 21.056H345.176L351.832 27.776V41.28L345.176 48H319.32Z" fill="white"/>
</svg>
