<svg width="139" height="81" viewBox="0 0 139 81" fill="none" xmlns="http://www.w3.org/2000/svg">
<rect x="9.5" y="11.5" width="129" height="69" stroke="black"/>
<rect x="1.5" y="1.5" width="127" height="67" stroke="black" stroke-width="3"/>
<path d="M16.064 17.476V20.344H18.656V21.22H16.064V25H15.02V16.6H18.956V17.476H16.064ZM20.3389 25V19H21.1789L21.2509 19.612C21.3869 19.404 21.5549 19.236 21.7549 19.108C21.9549 18.98 22.2029 18.916 22.4989 18.916C22.6429 18.916 22.7669 18.924 22.8709 18.94C22.9749 18.948 23.0629 18.96 23.1349 18.976V20.044C23.0309 20.02 22.9109 19.996 22.7749 19.972C22.6469 19.948 22.5269 19.936 22.4149 19.936C22.2149 19.936 22.0469 19.976 21.9109 20.056C21.7829 20.136 21.6749 20.244 21.5869 20.38C21.5069 20.508 21.4469 20.656 21.4069 20.824C21.3749 20.984 21.3589 21.144 21.3589 21.304V25H20.3389ZM28.5978 21.88C28.5978 22.512 28.5498 23.036 28.4538 23.452C28.3578 23.86 28.2138 24.188 28.0218 24.436C27.8298 24.676 27.5898 24.844 27.3018 24.94C27.0218 25.036 26.6938 25.084 26.3178 25.084C25.9498 25.084 25.6218 25.036 25.3338 24.94C25.0538 24.844 24.8178 24.676 24.6258 24.436C24.4338 24.188 24.2858 23.86 24.1818 23.452C24.0858 23.036 24.0378 22.512 24.0378 21.88C24.0378 20.856 24.2218 20.108 24.5898 19.636C24.9578 19.156 25.5338 18.916 26.3178 18.916C27.1018 18.916 27.6778 19.156 28.0458 19.636C28.4138 20.108 28.5978 20.856 28.5978 21.88ZM27.5538 22.06C27.5538 21.636 27.5338 21.276 27.4938 20.98C27.4538 20.684 27.3858 20.448 27.2898 20.272C27.2018 20.088 27.0778 19.956 26.9178 19.876C26.7578 19.796 26.5578 19.756 26.3178 19.756C26.0778 19.756 25.8778 19.796 25.7178 19.876C25.5578 19.956 25.4298 20.088 25.3338 20.272C25.2458 20.448 25.1818 20.684 25.1418 20.98C25.1018 21.276 25.0818 21.636 25.0818 22.06C25.0818 22.844 25.1738 23.404 25.3578 23.74C25.5418 24.076 25.8618 24.244 26.3178 24.244C26.7738 24.244 27.0938 24.076 27.2778 23.74C27.4618 23.404 27.5538 22.844 27.5538 22.06ZM30.335 25V19H31.175L31.259 19.54C31.651 19.124 32.143 18.916 32.735 18.916C33.079 18.916 33.367 18.96 33.599 19.048C33.831 19.128 34.015 19.256 34.151 19.432C34.295 19.6 34.395 19.82 34.451 20.092C34.515 20.356 34.547 20.672 34.547 21.04V25H33.527V20.92C33.527 20.544 33.463 20.26 33.335 20.068C33.215 19.876 32.955 19.78 32.555 19.78C32.387 19.78 32.227 19.812 32.075 19.876C31.931 19.94 31.803 20.024 31.691 20.128C31.587 20.232 31.503 20.344 31.439 20.464C31.383 20.576 31.355 20.688 31.355 20.8V25H30.335ZM37.5453 19.9V23.56C37.5453 23.616 37.5533 23.684 37.5693 23.764C37.5853 23.836 37.6133 23.908 37.6533 23.98C37.7013 24.044 37.7613 24.1 37.8333 24.148C37.9133 24.196 38.0173 24.22 38.1453 24.22C38.3293 24.22 38.4853 24.208 38.6133 24.184C38.7413 24.152 38.8493 24.124 38.9373 24.1V24.94C38.8573 24.964 38.7173 24.992 38.5173 25.024C38.3253 25.064 38.1213 25.084 37.9053 25.084C37.6653 25.084 37.4573 25.044 37.2813 24.964C37.1053 24.884 36.9613 24.772 36.8493 24.628C36.7373 24.484 36.6533 24.316 36.5973 24.124C36.5493 23.932 36.5253 23.724 36.5253 23.5V19.9H35.7453V19H36.5253V17.56H37.5453V19H38.9373V19.9H37.5453ZM41.1008 22.36C41.1088 22.752 41.1368 23.072 41.1848 23.32C41.2408 23.56 41.3128 23.748 41.4008 23.884C41.4888 24.02 41.5928 24.112 41.7128 24.16C41.8328 24.2 41.9688 24.22 42.1208 24.22C42.4568 24.22 42.7608 24.2 43.0328 24.16C43.3128 24.112 43.5448 24.068 43.7288 24.028V24.892C43.5368 24.948 43.2928 24.992 42.9968 25.024C42.7088 25.064 42.4568 25.084 42.2408 25.084C41.8968 25.084 41.5888 25.048 41.3168 24.976C41.0528 24.904 40.8288 24.76 40.6448 24.544C40.4608 24.328 40.3208 24.02 40.2248 23.62C40.1288 23.212 40.0808 22.672 40.0808 22C40.0808 21.448 40.1248 20.976 40.2128 20.584C40.3088 20.192 40.4488 19.872 40.6328 19.624C40.8168 19.376 41.0448 19.196 41.3168 19.084C41.5888 18.972 41.9048 18.916 42.2648 18.916C42.9528 18.916 43.4448 19.144 43.7408 19.6C44.0448 20.048 44.1968 20.668 44.1968 21.46V22.36H41.1008ZM42.2408 19.768C42.0488 19.768 41.8848 19.796 41.7488 19.852C41.6128 19.908 41.5008 20.004 41.4128 20.14C41.3248 20.276 41.2568 20.46 41.2088 20.692C41.1608 20.916 41.1288 21.2 41.1128 21.544H43.2008V21.22C43.2008 20.764 43.1288 20.408 42.9848 20.152C42.8488 19.896 42.6008 19.768 42.2408 19.768ZM45.8741 25V19H46.7141L46.7981 19.54C47.1901 19.124 47.6821 18.916 48.2741 18.916C48.6181 18.916 48.9061 18.96 49.1381 19.048C49.3701 19.128 49.5541 19.256 49.6901 19.432C49.8341 19.6 49.9341 19.82 49.9901 20.092C50.0541 20.356 50.0861 20.672 50.0861 21.04V25H49.0661V20.92C49.0661 20.544 49.0021 20.26 48.8741 20.068C48.7541 19.876 48.4941 19.78 48.0941 19.78C47.9261 19.78 47.7661 19.812 47.6141 19.876C47.4701 19.94 47.3421 20.024 47.2301 20.128C47.1261 20.232 47.0421 20.344 46.9781 20.464C46.9221 20.576 46.8941 20.688 46.8941 20.8V25H45.8741ZM55.2324 25L55.1484 24.496C54.9644 24.68 54.7564 24.824 54.5244 24.928C54.2924 25.032 54.0244 25.084 53.7204 25.084C53.3364 25.084 53.0204 25.024 52.7724 24.904C52.5244 24.784 52.3244 24.608 52.1724 24.376C52.0204 24.144 51.9124 23.852 51.8484 23.5C51.7924 23.14 51.7644 22.728 51.7644 22.264C51.7644 21.08 51.9684 20.228 52.3764 19.708C52.7924 19.18 53.4604 18.916 54.3804 18.916C54.5164 18.916 54.6404 18.92 54.7524 18.928C54.8644 18.936 54.9644 18.948 55.0524 18.964V16.6H56.0724V25H55.2324ZM53.9124 24.22C54.0964 24.22 54.2604 24.188 54.4044 24.124C54.5484 24.06 54.6684 23.976 54.7644 23.872C54.8604 23.768 54.9324 23.656 54.9804 23.536C55.0284 23.416 55.0524 23.304 55.0524 23.2V19.828C54.9644 19.812 54.8564 19.8 54.7284 19.792C54.6004 19.784 54.4444 19.78 54.2604 19.78C53.9724 19.78 53.7364 19.84 53.5524 19.96C53.3684 20.072 53.2204 20.24 53.1084 20.464C52.9964 20.68 52.9164 20.952 52.8684 21.28C52.8284 21.6 52.8084 21.968 52.8084 22.384C52.8084 22.744 52.8284 23.044 52.8684 23.284C52.9164 23.516 52.9844 23.704 53.0724 23.848C53.1604 23.984 53.2724 24.08 53.4084 24.136C53.5524 24.192 53.7204 24.22 53.9124 24.22Z" fill="black"/>
<line x1="129" y1="11.5" x2="9" y2="11.5" stroke="black"/>
<line x1="9.5" y1="11" x2="9.5" y2="70" stroke="black"/>
<path d="M83.572 60.612C83.572 61.108 83.516 61.516 83.404 61.836C83.292 62.156 83.132 62.408 82.924 62.592C82.716 62.776 82.464 62.904 82.168 62.976C81.88 63.048 81.556 63.084 81.196 63.084C81.004 63.084 80.776 63.068 80.512 63.036C80.248 63.004 80.012 62.96 79.804 62.904V62.028C79.988 62.076 80.204 62.12 80.452 62.16C80.7 62.192 80.988 62.208 81.316 62.208C81.732 62.208 82.032 62.088 82.216 61.848C82.408 61.608 82.504 61.236 82.504 60.732C82.504 60.444 82.484 60.204 82.444 60.012C82.404 59.812 82.344 59.652 82.264 59.532C82.184 59.404 82.08 59.308 81.952 59.244C81.832 59.18 81.692 59.132 81.532 59.1C81.196 59.028 80.912 58.936 80.68 58.824C80.448 58.712 80.26 58.568 80.116 58.392C79.972 58.216 79.864 58 79.792 57.744C79.728 57.488 79.696 57.184 79.696 56.832C79.696 56.4 79.752 56.04 79.864 55.752C79.984 55.456 80.148 55.216 80.356 55.032C80.572 54.848 80.824 54.716 81.112 54.636C81.4 54.556 81.716 54.516 82.06 54.516C82.26 54.516 82.476 54.536 82.708 54.576C82.948 54.608 83.156 54.648 83.332 54.696V55.572C83.124 55.524 82.892 55.484 82.636 55.452C82.38 55.412 82.148 55.392 81.94 55.392C81.788 55.392 81.64 55.416 81.496 55.464C81.36 55.512 81.236 55.588 81.124 55.692C81.02 55.796 80.932 55.932 80.86 56.1C80.796 56.26 80.764 56.46 80.764 56.7C80.764 56.94 80.776 57.144 80.8 57.312C80.824 57.472 80.868 57.604 80.932 57.708C81.004 57.812 81.1 57.896 81.22 57.96C81.34 58.016 81.496 58.064 81.688 58.104C81.976 58.16 82.236 58.24 82.468 58.344C82.7 58.448 82.896 58.596 83.056 58.788C83.224 58.972 83.352 59.212 83.44 59.508C83.528 59.804 83.572 60.172 83.572 60.612ZM86.3031 57.9V61.56C86.3031 61.616 86.3111 61.684 86.3271 61.764C86.3431 61.836 86.3711 61.908 86.4111 61.98C86.4591 62.044 86.5191 62.1 86.5911 62.148C86.6711 62.196 86.7751 62.22 86.9031 62.22C87.0871 62.22 87.2431 62.208 87.3711 62.184C87.4991 62.152 87.6071 62.124 87.6951 62.1V62.94C87.6151 62.964 87.4751 62.992 87.2751 63.024C87.0831 63.064 86.8791 63.084 86.6631 63.084C86.4231 63.084 86.2151 63.044 86.0391 62.964C85.8631 62.884 85.7191 62.772 85.6071 62.628C85.4951 62.484 85.4111 62.316 85.3551 62.124C85.3071 61.932 85.2831 61.724 85.2831 61.5V57.9H84.5031V57H85.2831V55.56H86.3031V57H87.6951V57.9H86.3031ZM92.9306 63C92.8746 63 92.8026 62.992 92.7146 62.976C92.6346 62.96 92.5506 62.932 92.4626 62.892C92.3746 62.852 92.2906 62.792 92.2106 62.712C92.1386 62.632 92.0786 62.532 92.0306 62.412C91.8786 62.628 91.6786 62.796 91.4306 62.916C91.1826 63.028 90.8546 63.084 90.4466 63.084C90.2306 63.084 90.0146 63.06 89.7986 63.012C89.5826 62.972 89.3906 62.888 89.2226 62.76C89.0546 62.624 88.9186 62.44 88.8146 62.208C88.7106 61.976 88.6586 61.676 88.6586 61.308C88.6586 60.66 88.8466 60.164 89.2226 59.82C89.5986 59.476 90.1226 59.304 90.7946 59.304H91.7426V58.656C91.7426 58.4 91.6666 58.192 91.5146 58.032C91.3706 57.864 91.1466 57.78 90.8426 57.78C90.4986 57.78 90.1986 57.8 89.9426 57.84C89.6866 57.88 89.4066 57.944 89.1026 58.032V57.156C89.3266 57.092 89.5786 57.036 89.8586 56.988C90.1386 56.94 90.4266 56.916 90.7226 56.916C91.1146 56.916 91.4386 56.956 91.6946 57.036C91.9586 57.108 92.1666 57.228 92.3186 57.396C92.4786 57.556 92.5906 57.76 92.6546 58.008C92.7266 58.256 92.7626 58.552 92.7626 58.896V61.776C92.7626 61.896 92.8026 61.992 92.8826 62.064C92.9626 62.128 93.0986 62.16 93.2906 62.16V63H92.9306ZM90.6866 62.22C90.8946 62.22 91.0666 62.188 91.2026 62.124C91.3386 62.06 91.4466 61.984 91.5266 61.896C91.6066 61.8 91.6626 61.704 91.6946 61.608C91.7266 61.512 91.7426 61.436 91.7426 61.38V60.12H90.7346C90.6066 60.12 90.4786 60.14 90.3506 60.18C90.2306 60.22 90.1226 60.288 90.0266 60.384C89.9306 60.472 89.8506 60.588 89.7866 60.732C89.7306 60.868 89.7026 61.036 89.7026 61.236C89.7026 61.612 89.7866 61.872 89.9546 62.016C90.1226 62.152 90.3666 62.22 90.6866 62.22ZM94.7959 63V57H95.6359L95.7199 57.54C96.1119 57.124 96.6039 56.916 97.1959 56.916C97.5399 56.916 97.8279 56.96 98.0599 57.048C98.2919 57.128 98.4759 57.256 98.6119 57.432C98.7559 57.6 98.8559 57.82 98.9119 58.092C98.9759 58.356 99.0079 58.672 99.0079 59.04V63H97.9879V58.92C97.9879 58.544 97.9239 58.26 97.7959 58.068C97.6759 57.876 97.4159 57.78 97.0159 57.78C96.8479 57.78 96.6879 57.812 96.5359 57.876C96.3919 57.94 96.2639 58.024 96.1519 58.128C96.0479 58.232 95.9639 58.344 95.8999 58.464C95.8439 58.576 95.8159 58.688 95.8159 58.8V63H94.7959ZM100.806 55.68V54.6H101.946V55.68H100.806ZM100.866 63V57H101.886V63H100.866ZM107.072 61.26C107.072 61.924 106.888 62.396 106.52 62.676C106.16 62.948 105.672 63.084 105.056 63.084C104.712 63.084 104.42 63.06 104.18 63.012C103.94 62.972 103.752 62.932 103.616 62.892V62.016C103.688 62.032 103.78 62.052 103.892 62.076C104.012 62.092 104.14 62.112 104.276 62.136C104.412 62.152 104.552 62.168 104.696 62.184C104.848 62.2 104.996 62.208 105.14 62.208C105.3 62.208 105.432 62.184 105.536 62.136C105.648 62.08 105.736 62.012 105.8 61.932C105.872 61.844 105.924 61.748 105.956 61.644C105.988 61.532 106.004 61.424 106.004 61.32C106.004 61.032 105.952 60.82 105.848 60.684C105.752 60.548 105.552 60.452 105.248 60.396C104.632 60.284 104.196 60.092 103.94 59.82C103.692 59.54 103.568 59.176 103.568 58.728C103.568 58.4 103.62 58.124 103.724 57.9C103.828 57.668 103.968 57.48 104.144 57.336C104.328 57.192 104.54 57.088 104.78 57.024C105.028 56.952 105.296 56.916 105.584 56.916C105.896 56.916 106.156 56.944 106.364 57C106.58 57.048 106.748 57.088 106.868 57.12V57.996C106.66 57.948 106.46 57.9 106.268 57.852C106.076 57.804 105.816 57.78 105.488 57.78C105.304 57.78 105.152 57.808 105.032 57.864C104.92 57.912 104.832 57.98 104.768 58.068C104.704 58.148 104.66 58.24 104.636 58.344C104.62 58.448 104.612 58.556 104.612 58.668C104.612 59.108 104.868 59.368 105.38 59.448C106.004 59.552 106.44 59.748 106.688 60.036C106.944 60.324 107.072 60.732 107.072 61.26ZM110.376 62.94C110.288 62.956 110.184 62.976 110.064 63C109.952 63.024 109.816 63.036 109.656 63.036C109.536 63.036 109.416 63.016 109.296 62.976C109.176 62.936 109.068 62.864 108.972 62.76C108.876 62.656 108.796 62.516 108.732 62.34C108.668 62.156 108.636 61.928 108.636 61.656V54.6H109.656V61.596C109.656 61.804 109.68 61.952 109.728 62.04C109.784 62.12 109.892 62.16 110.052 62.16C110.116 62.16 110.176 62.152 110.232 62.136C110.296 62.12 110.344 62.108 110.376 62.1V62.94ZM115.724 63C115.668 63 115.596 62.992 115.508 62.976C115.428 62.96 115.344 62.932 115.256 62.892C115.168 62.852 115.084 62.792 115.004 62.712C114.932 62.632 114.872 62.532 114.824 62.412C114.672 62.628 114.472 62.796 114.224 62.916C113.976 63.028 113.648 63.084 113.24 63.084C113.024 63.084 112.808 63.06 112.592 63.012C112.376 62.972 112.184 62.888 112.016 62.76C111.848 62.624 111.712 62.44 111.608 62.208C111.504 61.976 111.452 61.676 111.452 61.308C111.452 60.66 111.64 60.164 112.016 59.82C112.392 59.476 112.916 59.304 113.588 59.304H114.536V58.656C114.536 58.4 114.46 58.192 114.308 58.032C114.164 57.864 113.94 57.78 113.636 57.78C113.292 57.78 112.992 57.8 112.736 57.84C112.48 57.88 112.2 57.944 111.896 58.032V57.156C112.12 57.092 112.372 57.036 112.652 56.988C112.932 56.94 113.22 56.916 113.516 56.916C113.908 56.916 114.232 56.956 114.488 57.036C114.752 57.108 114.96 57.228 115.112 57.396C115.272 57.556 115.384 57.76 115.448 58.008C115.52 58.256 115.556 58.552 115.556 58.896V61.776C115.556 61.896 115.596 61.992 115.676 62.064C115.756 62.128 115.892 62.16 116.084 62.16V63H115.724ZM113.48 62.22C113.688 62.22 113.86 62.188 113.996 62.124C114.132 62.06 114.24 61.984 114.32 61.896C114.4 61.8 114.456 61.704 114.488 61.608C114.52 61.512 114.536 61.436 114.536 61.38V60.12H113.528C113.4 60.12 113.272 60.14 113.144 60.18C113.024 60.22 112.916 60.288 112.82 60.384C112.724 60.472 112.644 60.588 112.58 60.732C112.524 60.868 112.496 61.036 112.496 61.236C112.496 61.612 112.58 61.872 112.748 62.016C112.916 62.152 113.16 62.22 113.48 62.22ZM120.145 63H118.669L117.049 57H118.141L119.437 62.148L120.697 57H121.753L120.145 63Z" fill="black"/>
<path d="M45.752 43.968L46.232 38.752L59.512 33.344L59.128 37.568L49.24 41.28L58.488 45.024L58.104 49.248L45.752 43.968ZM69.4258 26.08H73.5538L63.4418 55.52H59.3457L69.4258 26.08ZM73.304 49.248L73.688 44.96L83.576 41.216L74.328 37.504L74.712 33.344L87.032 38.752L86.552 43.968L73.304 49.248Z" fill="black"/>
</svg>
