<svg width="40" height="40" viewBox="0 0 40 40" fill="none" xmlns="http://www.w3.org/2000/svg">
<path d="M35.3125 5.3125H4.6875C2.10281 5.3125 0 7.41531 0 10V30C0 32.5847 2.10281 34.6875 4.6875 34.6875H35.3125C37.8972 34.6875 40 32.5847 40 30V10C40 7.41531 37.8972 5.3125 35.3125 5.3125ZM36.875 30C36.875 30.8616 36.1741 31.5625 35.3125 31.5625H4.6875C3.82594 31.5625 3.125 30.8616 3.125 30V10C3.125 9.13844 3.82594 8.4375 4.6875 8.4375H35.3125C36.1741 8.4375 36.875 9.13844 36.875 10V30Z" fill="black"/>
<path d="M36.6099 7.26074L20.0002 19.6152L3.39055 7.26074L1.52539 9.76816L20.0002 23.5099L38.4751 9.76816L36.6099 7.26074Z" fill="black"/>
</svg>
