<svg width="30" height="30" viewBox="0 0 30 30" fill="none" xmlns="http://www.w3.org/2000/svg">
<g clip-path="url(#clip0_49_25)">
<path d="M15.0006 9.05176C13.6683 9.05176 12.585 10.1362 12.585 11.4685C12.585 12.8009 13.6683 13.8842 15.0006 13.8842C16.333 13.8842 17.4174 12.8009 17.4174 11.4685C17.4174 10.1361 16.333 9.05176 15.0006 9.05176Z" fill="black"/>
<path d="M15.0004 0C9.1741 0 4.43359 4.74014 4.43359 10.5679C4.43359 15.9773 13.061 27.8677 14.0453 29.2063L14.407 29.6984C14.5453 29.8874 14.7672 30 15.0005 30C15.2346 30 15.4568 29.8874 15.5933 29.7L15.9565 29.2063C16.9398 27.8677 25.5673 15.9773 25.5673 10.5679C25.5672 4.74051 20.8268 0 15.0004 0ZM15.0004 15.8058C12.6085 15.8058 10.6629 13.8609 10.6629 11.4685C10.6629 9.0759 12.6085 7.1298 15.0004 7.1298C17.3925 7.1298 19.3388 9.07583 19.3388 11.4685C19.3388 13.8609 17.3925 15.8058 15.0004 15.8058ZM21.629 9.76054C21.5314 9.79371 21.432 9.81048 21.3344 9.81048C20.9614 9.81048 20.6123 9.57585 20.483 9.20252C19.7672 7.129 17.9001 5.61342 15.7269 5.34276C15.2329 5.28095 14.8831 4.83073 14.9442 4.33774C15.0065 3.84409 15.456 3.49346 15.9495 3.55586C18.7998 3.91117 21.2474 5.89704 22.1858 8.61543C22.3484 9.08601 22.0986 9.5987 21.629 9.76054Z" fill="black"/>
</g>
<defs>
<clipPath id="clip0_49_25">
<rect width="30" height="30" fill="white"/>
</clipPath>
</defs>
</svg>
