<svg width="25" height="25" viewBox="0 0 25 25" fill="none" xmlns="http://www.w3.org/2000/svg">
<g clip-path="url(#clip0_147_219)">
<rect width="25" height="25" fill="#FF0000"/>
<path d="M15.9045 6.25858L5.96055 16.6997C6.15389 17.2741 6.18837 17.8942 6.06 18.4882C5.93164 19.0823 5.64567 19.6261 5.2352 20.0566C4.82474 20.4871 4.30655 20.7867 3.74063 20.9209C3.1747 21.055 2.58417 21.0181 2.03739 20.8144L3.99897 18.7548L3.37583 17.4554L2.13832 16.8011L0.176737 18.8607C-0.0172136 18.2866 -0.0523563 17.6666 0.0753766 17.0723C0.203109 16.4781 0.488495 15.934 0.898502 15.503C1.30851 15.072 1.82637 14.7718 2.39216 14.637C2.95794 14.5022 3.54851 14.5384 4.09551 14.7414L14.0395 4.30029C13.8461 3.72594 13.8116 3.10584 13.94 2.51177C14.0684 1.91769 14.3543 1.37394 14.7648 0.943428C15.1753 0.51292 15.6934 0.213265 16.2594 0.0791454C16.8253 -0.0549741 17.4158 -0.0180743 17.9626 0.185574L16.001 2.24063L16.6242 3.54462L17.8661 4.19892L19.8233 2.13926C20.0172 2.71338 20.0524 3.33343 19.9246 3.92766C19.7969 4.52188 19.5115 5.06597 19.1015 5.49696C18.6915 5.92795 18.1736 6.22822 17.6078 6.363C17.0421 6.49779 16.4515 6.46158 15.9045 6.25858Z" fill="white"/>
<path d="M21.2873 18.2319C21.0941 16.2571 18.7833 12.7325 16.208 9.18209C16.1849 9.15053 16.1541 9.12473 16.1182 9.10691C16.0822 9.08909 16.0422 9.07977 16.0016 9.07977C15.961 9.07977 15.9211 9.08909 15.8851 9.10691C15.8492 9.12473 15.8184 9.15053 15.7953 9.18209C13.22 12.7325 10.9092 16.2571 10.7159 18.2319C10.3682 21.7857 13.2737 23.9203 16.0016 23.9203C18.7295 23.9203 21.6351 21.7857 21.2873 18.2319ZM16.0016 22.3438C15.3897 22.3438 14.7916 22.1724 14.2828 21.8513C13.7741 21.5303 13.3775 21.074 13.1434 20.5401C12.9092 20.0062 12.848 19.4187 12.9673 18.8519C13.0867 18.2851 13.3814 17.7645 13.814 17.3558C14.2467 16.9472 14.7979 16.6689 15.3981 16.5562C15.9982 16.4434 16.6203 16.5013 17.1856 16.7224C17.7509 16.9436 18.234 17.3181 18.574 17.7986C18.9139 18.2791 19.0954 18.844 19.0954 19.4219C19.0945 20.1966 18.7682 20.9392 18.1882 21.487C17.6082 22.0348 16.8219 22.3429 16.0016 22.3438Z" fill="black"/>
<path d="M16 17.0312C15.4994 17.0312 15.01 17.1715 14.5937 17.4341C14.1775 17.6968 13.853 18.0702 13.6614 18.507C13.4698 18.9439 13.4197 19.4245 13.5174 19.8883C13.6151 20.352 13.8561 20.778 14.2101 21.1123C14.5641 21.4466 15.0152 21.6743 15.5062 21.7666C15.9972 21.8588 16.5061 21.8115 16.9687 21.6305C17.4312 21.4496 17.8265 21.1432 18.1047 20.75C18.3828 20.3569 18.5313 19.8947 18.5313 19.4219C18.5305 18.7881 18.2635 18.1804 17.789 17.7323C17.3145 17.2841 16.6711 17.032 16 17.0312ZM16.5227 20.5461L16.375 20.158H15.625L15.4773 20.5461C15.4517 20.6119 15.3995 20.6654 15.3323 20.695C15.265 20.7247 15.1881 20.728 15.1182 20.7043C15.0484 20.6805 14.9913 20.6317 14.9595 20.5684C14.9276 20.5051 14.9235 20.4325 14.9481 20.3663L15.7354 18.2978C15.7551 18.2464 15.7911 18.2021 15.8384 18.1707C15.8858 18.1394 15.9422 18.1225 16 18.1225C16.0578 18.1225 16.1142 18.1394 16.1616 18.1707C16.2089 18.2021 16.2449 18.2464 16.2646 18.2978L17.0519 20.3663C17.0768 20.4326 17.0729 20.5054 17.0411 20.5689C17.0092 20.6323 16.9521 20.6813 16.8821 20.7051C16.8121 20.7289 16.735 20.7255 16.6676 20.6957C16.6003 20.6659 16.5481 20.6121 16.5227 20.5461Z" fill="black"/>
<path d="M15.8281 19.6267H16.1735L16.0008 19.173L15.8281 19.6267Z" fill="black"/>
<path d="M16.4662 17.669C15.8714 17.669 15.3814 17.2998 15.3944 16.6369C15.4006 16.3167 15.8904 16.3888 16.1288 16.4186C16.4999 16.465 16.9724 16.9613 17.0914 17.3118C17.2041 17.6437 17.2675 18.1958 17.1609 18.5424C17.1036 18.7286 16.9205 18.8396 16.9128 18.5622C16.9028 18.204 16.8512 17.7973 17.2403 17.6293C17.8597 17.3619 18.0143 17.5419 17.9796 18.2C17.9347 19.0538 16.5633 19.3465 16.8433 18.6466C17.0535 18.1211 18.8778 17.6846 18.8778 18.5176C18.8778 19.0728 18.3242 18.9845 18.2476 19.4058C18.2025 19.6539 17.8809 20.0598 17.7365 20.1898C17.2543 20.6237 16.9057 20.8976 16.2875 21.1723C15.8687 21.3585 14.7569 21.1171 14.6749 20.6662C14.6427 20.4892 14.3657 20.4194 14.3275 20.2096C14.2911 20.0096 14.237 19.9259 14.1439 19.7631C13.9631 19.4467 13.9285 19.1799 13.871 18.8351C13.7722 18.2422 13.6696 17.1331 14.5905 17.1331" stroke="black" stroke-width="3" stroke-linecap="round"/>
</g>
<defs>
<clipPath id="clip0_147_219">
<rect width="25" height="25" fill="white"/>
</clipPath>
</defs>
</svg>
