<svg width="50" height="50" viewBox="0 0 50 50" fill="none" xmlns="http://www.w3.org/2000/svg">
<g clip-path="url(#clip0_16_49)">
<path d="M48.2677 26.9746C47.9162 23.0283 47.3371 22.2598 47.1183 21.9707C46.6154 21.3027 45.8107 20.8662 44.9591 20.4082C44.911 20.3827 44.8694 20.3464 44.8377 20.3021C44.8059 20.2579 44.785 20.2068 44.7763 20.153C44.7677 20.0992 44.7717 20.0442 44.788 19.9922C44.8043 19.9402 44.8325 19.8927 44.8703 19.8535C45.028 19.6936 45.1492 19.5014 45.2255 19.2902C45.3019 19.0789 45.3316 18.8537 45.3127 18.6299C45.2759 18.233 45.0914 17.8645 44.7956 17.5973C44.4999 17.3301 44.1145 17.1838 43.716 17.1875H42.1925C42.1272 17.1879 42.062 17.1921 41.9972 17.2002C41.9528 17.1809 41.9067 17.1655 41.8595 17.1543C40.9572 15.2471 39.7218 12.6357 37.1613 11.3613C33.3634 9.47266 26.3673 9.375 25.0002 9.375C23.633 9.375 16.6369 9.47266 12.8439 11.3584C10.2834 12.6328 9.048 15.2441 8.14566 17.1514L8.13785 17.167C8.09284 17.1733 8.04865 17.1845 8.00601 17.2002C7.94121 17.1921 7.876 17.1879 7.8107 17.1875H6.28433C5.88579 17.1838 5.50042 17.3301 5.20467 17.5973C4.90892 17.8645 4.72438 18.233 4.68765 18.6299C4.67031 18.8532 4.70137 19.0776 4.77874 19.2877C4.8561 19.4979 4.97792 19.6889 5.13589 19.8477C5.17368 19.8869 5.20184 19.9344 5.21814 19.9863C5.23445 20.0383 5.23845 20.0934 5.22983 20.1472C5.22121 20.201 5.20021 20.252 5.16849 20.2963C5.13676 20.3406 5.09518 20.3769 5.04703 20.4023C4.19546 20.8633 3.38687 21.2998 2.88785 21.9648C2.6691 22.2578 2.09097 23.0225 1.73843 26.9688C1.54312 29.1895 1.51382 31.4883 1.66714 32.9688C1.98843 36.0449 2.59097 37.9043 2.61636 37.9814C2.70882 38.2622 2.87902 38.511 3.10719 38.6989C3.33536 38.8868 3.61215 39.0061 3.90542 39.043V39.0625C3.90542 39.4769 4.07004 39.8743 4.36307 40.1674C4.6561 40.4604 5.05352 40.625 5.46792 40.625H10.9367C11.3511 40.625 11.7485 40.4604 12.0415 40.1674C12.3346 39.8743 12.4992 39.4769 12.4992 39.0625C13.34 39.0625 13.925 38.9121 14.5451 38.752C15.4404 38.5107 16.3555 38.3502 17.2794 38.2725C20.2589 37.9883 23.2218 37.8906 25.0002 37.8906C26.7423 37.8906 29.8361 37.9883 32.8205 38.2725C33.7481 38.3504 34.6668 38.5115 35.5656 38.7539C36.1593 38.9062 36.7228 39.0469 37.5031 39.0615C37.5031 39.4759 37.6677 39.8734 37.9607 40.1664C38.2538 40.4594 38.6512 40.624 39.0656 40.624H44.5343C44.9487 40.624 45.3462 40.4594 45.6392 40.1664C45.9322 39.8734 46.0968 39.4759 46.0968 39.0615V39.0498C46.3908 39.0136 46.6684 38.8946 46.8973 38.7067C47.1263 38.5187 47.2971 38.2696 47.3898 37.9883C47.4152 37.9111 48.0177 36.0518 48.339 32.9756C48.4923 31.4941 48.465 29.1992 48.2677 26.9746ZM10.9699 18.4873C11.7511 16.8271 12.6447 14.9482 14.2355 14.1563C16.5343 13.0117 21.299 12.4961 25.0002 12.4961C28.7013 12.4961 33.466 13.0078 35.7648 14.1563C37.3556 14.9482 38.2453 16.8281 39.0304 18.4873L39.1281 18.6992C39.1852 18.8199 39.2104 18.9531 39.2014 19.0863C39.1924 19.2195 39.1494 19.3481 39.0765 19.4599C39.0037 19.5718 38.9034 19.6631 38.7852 19.7251C38.667 19.7872 38.5349 19.8179 38.4015 19.8145C35.1564 19.7266 28.3205 19.4453 25.0002 19.4453C21.6798 19.4453 14.8439 19.7334 11.5939 19.8213C11.4605 19.8248 11.3284 19.794 11.2102 19.732C11.092 19.6699 10.9917 19.5786 10.9189 19.4668C10.846 19.3549 10.803 19.2263 10.794 19.0931C10.785 18.96 10.8102 18.8267 10.8673 18.7061C10.9015 18.6338 10.9377 18.5605 10.9699 18.4873ZM12.1349 26.2637C10.455 26.4659 8.76442 26.5657 7.07242 26.5625C6.03726 26.5625 4.96988 26.2695 4.77164 25.3477C4.63589 24.7275 4.65054 24.3789 4.72378 24.0283C4.78531 23.7305 4.88296 23.5137 5.37124 23.4375C6.64078 23.2422 7.35074 23.4873 9.42886 24.0996C10.8068 24.5049 11.8009 25.0449 12.3673 25.4727C12.6515 25.6836 12.5002 26.2344 12.1349 26.2637ZM33.7541 34.2715C32.4689 34.418 29.8986 34.3643 25.0294 34.3643C20.1603 34.3643 17.591 34.418 16.3058 34.2715C14.9796 34.124 13.2892 32.8701 14.4435 31.7529C15.2121 31.0166 17.005 30.4658 19.3927 30.1562C21.7804 29.8467 22.7912 29.6875 25.0197 29.6875C27.2482 29.6875 28.1564 29.7852 30.6466 30.1572C33.1369 30.5293 35.0187 31.0869 35.5959 31.7539C36.6486 32.9492 35.0793 34.1162 33.7541 34.2773V34.2715ZM45.2287 25.3467C45.0334 26.2725 43.9591 26.5615 42.9279 26.5615C41.2035 26.5619 39.4805 26.4621 37.7677 26.2627C37.4689 26.2344 37.3302 25.71 37.633 25.4717C38.1906 25.0332 39.1955 24.5039 40.5714 24.0986C42.6496 23.4863 43.8478 23.2412 44.8771 23.4453C45.1281 23.4951 45.2609 23.7646 45.2765 23.9336C45.3454 24.404 45.3292 24.883 45.2287 25.3477V25.3467Z" fill="#FF0000"/>
<path d="M50.8924 21.0785L48.2211 17.4763V2.32713C48.2211 1.59432 47.6669 1 46.9836 1H25.0164C24.333 1 23.7792 1.59432 23.7792 2.32713V17.4763L21.1076 21.0785C21.038 21.1725 21 21.2887 21 21.4094V23.0038C21 23.5888 21.4419 24.0625 21.9872 24.0625H50.0128C50.5581 24.0625 51 23.5888 51 23.0038V21.4094C51 21.2887 50.9623 21.1725 50.8924 21.0785ZM25.525 2.87256H46.475V15.6038H25.525V2.87256ZM38.8196 22.8033H33.1804V21.2023H38.8196V22.8033Z" fill="black" fill-opacity="0.66"/>
</g>
<defs>
<clipPath id="clip0_16_49">
<rect width="50" height="50" fill="white"/>
</clipPath>
</defs>
</svg>
