<svg width="50" height="50" viewBox="0 0 50 50" fill="none" xmlns="http://www.w3.org/2000/svg">
<path d="M46.6984 27.5996C46.3468 23.6533 45.7677 22.8848 45.549 22.5957C45.046 21.9277 44.2414 21.4912 43.3898 21.0332C43.3416 21.0077 43.3001 20.9714 43.2683 20.9271C43.2366 20.8829 43.2156 20.8318 43.207 20.778C43.1984 20.7242 43.2024 20.6692 43.2187 20.6172C43.235 20.5652 43.2631 20.5177 43.3009 20.4785C43.4586 20.3186 43.5798 20.1264 43.6562 19.9152C43.7326 19.7039 43.7623 19.4787 43.7433 19.2549C43.7066 18.858 43.522 18.4895 43.2263 18.2223C42.9305 17.9551 42.5452 17.8088 42.1466 17.8125H40.6232C40.5579 17.8129 40.4927 17.8171 40.4279 17.8252C40.3834 17.8059 40.3373 17.7905 40.2902 17.7793C39.3878 15.8721 38.1525 13.2607 35.5919 11.9863C31.7941 10.0977 24.798 10 23.4308 10C22.0636 10 15.0675 10.0977 11.2746 11.9834C8.71402 13.2578 7.47867 15.8691 6.57632 17.7764L6.56851 17.792C6.52351 17.7983 6.47931 17.8095 6.43668 17.8252C6.37188 17.8171 6.30666 17.8129 6.24136 17.8125H4.71499C4.31645 17.8088 3.93109 17.9551 3.63534 18.2223C3.33958 18.4895 3.15504 18.858 3.11832 19.2549C3.10097 19.4782 3.13204 19.7026 3.2094 19.9127C3.28676 20.1229 3.40859 20.3139 3.56656 20.4727C3.60435 20.5119 3.63251 20.5594 3.64881 20.6113C3.66511 20.6633 3.66911 20.7184 3.66049 20.7722C3.65187 20.826 3.63088 20.877 3.59915 20.9213C3.56743 20.9656 3.52585 21.0019 3.47769 21.0273C2.62613 21.4883 1.81753 21.9248 1.31851 22.5898C1.09976 22.8828 0.521635 23.6475 0.169096 27.5938C-0.0262162 29.8145 -0.055513 32.1133 0.0978073 33.5938C0.419096 36.6699 1.02164 38.5293 1.04703 38.6064C1.13949 38.8872 1.30968 39.136 1.53786 39.3239C1.76603 39.5118 2.04282 39.6311 2.33609 39.668V39.6875C2.33609 40.1019 2.50071 40.4993 2.79373 40.7924C3.08676 41.0854 3.48419 41.25 3.89859 41.25H9.36734C9.78174 41.25 10.1792 41.0854 10.4722 40.7924C10.7652 40.4993 10.9298 40.1019 10.9298 39.6875C11.7707 39.6875 12.3556 39.5371 12.9757 39.377C13.871 39.1357 14.7862 38.9752 15.7101 38.8975C18.6896 38.6133 21.6525 38.5156 23.4308 38.5156C25.173 38.5156 28.2668 38.6133 31.2511 38.8975C32.1787 38.9754 33.0975 39.1365 33.9962 39.3789C34.59 39.5312 35.1535 39.6719 35.9337 39.6865C35.9337 40.1009 36.0984 40.4984 36.3914 40.7914C36.6844 41.0844 37.0818 41.249 37.4962 41.249H42.965C43.3794 41.249 43.7768 41.0844 44.0699 40.7914C44.3629 40.4984 44.5275 40.1009 44.5275 39.6865V39.6748C44.8215 39.6386 45.0991 39.5196 45.328 39.3317C45.5569 39.1437 45.7277 38.8946 45.8205 38.6133C45.8459 38.5361 46.4484 36.6768 46.7697 33.6006C46.923 32.1191 46.8957 29.8242 46.6984 27.5996ZM9.40054 19.1123C10.1818 17.4521 11.0753 15.5732 12.6662 14.7813C14.965 13.6367 19.7296 13.1211 23.4308 13.1211C27.132 13.1211 31.8966 13.6328 34.1955 14.7813C35.7863 15.5732 36.6759 17.4531 37.4611 19.1123L37.5587 19.3242C37.6159 19.4449 37.6411 19.5781 37.6321 19.7113C37.623 19.8445 37.5801 19.9731 37.5072 20.0849C37.4343 20.1968 37.334 20.2881 37.2159 20.3501C37.0977 20.4122 36.9656 20.4429 36.8322 20.4395C33.5871 20.3516 26.7511 20.0703 23.4308 20.0703C20.1105 20.0703 13.2746 20.3584 10.0246 20.4463C9.89114 20.4498 9.75904 20.419 9.64087 20.357C9.52271 20.2949 9.42241 20.2036 9.34955 20.0918C9.27669 19.9799 9.2337 19.8513 9.22468 19.7181C9.21565 19.585 9.2409 19.4517 9.298 19.3311C9.33218 19.2588 9.36832 19.1855 9.40054 19.1123ZM10.5656 26.8887C8.8857 27.0909 7.19508 27.1907 5.50308 27.1875C4.46792 27.1875 3.40054 26.8945 3.2023 25.9727C3.06656 25.3525 3.08121 25.0039 3.15445 24.6533C3.21597 24.3555 3.31363 24.1387 3.80191 24.0625C5.07144 23.8672 5.7814 24.1123 7.85953 24.7246C9.23746 25.1299 10.2316 25.6699 10.798 26.0977C11.0822 26.3086 10.9308 26.8594 10.5656 26.8887ZM32.1847 34.8965C30.8996 35.043 28.3293 34.9893 23.4601 34.9893C18.591 34.9893 16.0216 35.043 14.7365 34.8965C13.4103 34.749 11.7199 33.4951 12.8742 32.3779C13.6427 31.6416 15.4357 31.0908 17.8234 30.7812C20.2111 30.4717 21.2218 30.3125 23.4503 30.3125C25.6789 30.3125 26.5871 30.4102 29.0773 30.7822C31.5675 31.1543 33.4494 31.7119 34.0265 32.3789C35.0793 33.5742 33.5099 34.7412 32.1847 34.9023V34.8965ZM43.6593 25.9717C43.464 26.8975 42.3898 27.1865 41.3585 27.1865C39.6342 27.1869 37.9112 27.0871 36.1984 26.8877C35.8996 26.8594 35.7609 26.335 36.0636 26.0967C36.6212 25.6582 37.6261 25.1289 39.0021 24.7236C41.0802 24.1113 42.2785 23.8662 43.3078 24.0703C43.5587 24.1201 43.6916 24.3896 43.7072 24.5586C43.7761 25.029 43.7599 25.508 43.6593 25.9727V25.9717Z" fill="#FF0000"/>
<g clip-path="url(#clip0_64_198)">
<path d="M24.1378 2.06885H23.1033V4.13779C23.1033 4.7082 22.6392 5.17227 22.0688 5.17227V8.27574H24.1378V2.06885Z" fill="black" fill-opacity="0.66"/>
<path d="M22.0688 11.572C22.6963 11.2984 23.3919 11.0677 24.1378 10.8825V9.3103H22.0688V11.572Z" fill="black" fill-opacity="0.66"/>
<path d="M35.1664 12.5468C33.4726 11.7939 31.2092 11.3794 28.7931 11.3794C26.3771 11.3794 24.1136 11.7939 22.4198 12.5468C20.882 13.2302 20 14.1245 20 15.0001C20 15.8757 20.882 16.77 22.4198 17.4533C24.1136 18.2062 26.3771 18.6208 28.7931 18.6208C31.2092 18.6208 33.4726 18.2062 35.1664 17.4533C36.7043 16.77 37.5862 15.8757 37.5862 15.0001C37.5862 14.1245 36.7043 13.2302 35.1664 12.5468ZM34.1664 16.189C32.7045 16.7565 30.7962 17.069 28.7931 17.069C26.79 17.069 24.8817 16.7565 23.4198 16.189C22.1441 15.6938 21.6708 15.1797 21.5669 15.0001C21.6707 14.8205 22.1441 14.3064 23.4198 13.8112C24.8817 13.2437 26.79 12.9311 28.7931 12.9311C30.7962 12.9311 32.7045 13.2437 34.1664 13.8112C35.4421 14.3064 35.9154 14.8204 36.0194 15.0001C35.9155 15.1797 35.4421 15.6938 34.1664 16.189Z" fill="black" fill-opacity="0.66"/>
<path d="M25.1724 10.6604C25.8354 10.5397 26.5287 10.4531 27.2413 10.4015V9.3103H25.1724V10.6604Z" fill="black" fill-opacity="0.66"/>
<path d="M28.2759 10.3513C28.4476 10.3472 28.62 10.3448 28.7931 10.3448C29.318 10.3448 29.8361 10.3646 30.3449 10.4015V9.3103H28.2759V10.3513H28.2759Z" fill="black" fill-opacity="0.66"/>
<path d="M35.5171 18.4281V26.5982C36.8371 25.9394 37.586 25.1171 37.586 24.3105V17.1267C37.0875 17.6 36.4164 18.0299 35.5864 18.3987C35.5637 18.4088 35.5399 18.4181 35.5171 18.4281Z" fill="black" fill-opacity="0.66"/>
<path d="M28.2759 2.06885H30.3448V8.27574H28.2759V2.06885Z" fill="black" fill-opacity="0.66"/>
<path d="M25.1724 2.06885H27.2413V8.27574H25.1724V2.06885Z" fill="black" fill-opacity="0.66"/>
<path d="M28.7932 28.9656C26.2355 28.9656 23.8229 28.5193 21.9997 27.709C21.1707 27.3407 20.5002 26.9115 20.002 26.4388C20.0408 27.2953 20.9168 28.1647 22.4199 28.8327C24.1137 29.5855 26.3771 30 28.7932 30C31.2093 30 33.4727 29.5855 35.1665 28.8326C36.6696 28.1646 37.5455 27.2952 37.5844 26.4387C37.0861 26.9114 36.4156 27.3405 35.5867 27.709C33.7635 28.5193 31.3509 28.9656 28.7932 28.9656Z" fill="black" fill-opacity="0.66"/>
<path d="M23.1035 18.8215V27.0378C23.7371 27.2674 24.4329 27.4545 25.1725 27.5977V19.3397C24.4416 19.2068 23.7471 19.0333 23.1035 18.8215Z" fill="black" fill-opacity="0.66"/>
<path d="M22.0689 26.5982V18.4281C22.0461 18.4182 22.0222 18.4089 21.9996 18.3988C21.1696 18.0299 20.4985 17.6001 20 17.1267V24.3105C20 25.1171 20.7489 25.9393 22.0689 26.5982Z" fill="black" fill-opacity="0.66"/>
<path d="M26.207 19.4968V27.7658C26.8734 27.8532 27.5666 27.9066 28.276 27.9241V19.6487C27.5693 19.632 26.8769 19.5802 26.207 19.4968Z" fill="black" fill-opacity="0.66"/>
<path d="M32.4136 19.3397V27.5977C33.1531 27.4545 33.849 27.2673 34.4825 27.0378V18.8215C33.8389 19.0333 33.1444 19.2068 32.4136 19.3397Z" fill="black" fill-opacity="0.66"/>
<path d="M29.3105 19.6487V27.9241C30.0199 27.9066 30.7132 27.8532 31.3795 27.7658V19.4968C30.7096 19.5802 30.0172 19.632 29.3105 19.6487Z" fill="black" fill-opacity="0.66"/>
<path d="M40.6895 2.06885H42.7584V8.27574H40.6895V2.06885Z" fill="black" fill-opacity="0.66"/>
<path d="M43.793 9.3103H45.8619V15.5172H43.793V9.3103Z" fill="black" fill-opacity="0.66"/>
<path d="M43.793 2.06885H45.8619V8.27574H43.793V2.06885Z" fill="black" fill-opacity="0.66"/>
<path d="M48.9654 16.5517H38.6206V17.5862H49.4827C49.7678 17.5862 49.9999 17.3542 49.9999 17.0689V13.4482H48.9654V16.5517Z" fill="black" fill-opacity="0.66"/>
<path d="M40.6895 9.3103H42.7584V15.5172H40.6895V9.3103Z" fill="black" fill-opacity="0.66"/>
<path d="M49.4829 0H21.5519C21.2668 0 21.0347 0.232031 21.0347 0.517266V4.13795H22.0691V1.03447H48.9657V4.13795H50.0002V0.517266C50.0002 0.232031 49.7682 0 49.4829 0Z" fill="black" fill-opacity="0.66"/>
<path d="M31.3794 10.5032C32.1 10.593 32.7935 10.72 33.4483 10.8826V9.3103H31.3794V10.5032Z" fill="black" fill-opacity="0.66"/>
<path d="M46.8965 15.5172H47.931V13.4483C47.931 12.8778 48.3951 12.4138 48.9654 12.4138V9.3103H46.8965V15.5172Z" fill="black" fill-opacity="0.66"/>
<path d="M46.8965 2.06885V8.27574H48.9654V5.17232C48.395 5.17232 47.931 4.7082 47.931 4.13785V2.06885H46.8965Z" fill="black" fill-opacity="0.66"/>
<path d="M34.4829 11.1785C34.8702 11.3059 35.2392 11.4469 35.5867 11.6014C35.9372 11.7571 36.2589 11.9239 36.5519 12.1001V9.3103H34.4829V11.1785Z" fill="black" fill-opacity="0.66"/>
<path d="M31.3794 2.06885H33.4483V8.27574H31.3794V2.06885Z" fill="black" fill-opacity="0.66"/>
<path d="M34.4829 2.06885H36.5519V8.27574H34.4829V2.06885Z" fill="black" fill-opacity="0.66"/>
<path d="M37.5864 2.06885H39.6554V8.27574H37.5864V2.06885Z" fill="black" fill-opacity="0.66"/>
<path d="M38.6209 15.5172H39.6554V9.3103H37.5864V12.8734C38.2629 13.5159 38.6209 14.2388 38.6209 15V15.5172Z" fill="black" fill-opacity="0.66"/>
</g>
<defs>
<clipPath id="clip0_64_198">
<rect width="30" height="30" fill="white" transform="translate(20)"/>
</clipPath>
</defs>
</svg>
