<svg width="50" height="50" viewBox="0 0 50 50" fill="none" xmlns="http://www.w3.org/2000/svg">
<g clip-path="url(#clip0_64_204)">
<path d="M46.6984 27.5996C46.3468 23.6533 45.7677 22.8848 45.549 22.5957C45.046 21.9277 44.2414 21.4912 43.3898 21.0332C43.3416 21.0077 43.3001 20.9714 43.2683 20.9271C43.2366 20.8829 43.2156 20.8318 43.207 20.778C43.1984 20.7242 43.2024 20.6692 43.2187 20.6172C43.235 20.5652 43.2631 20.5177 43.3009 20.4785C43.4586 20.3186 43.5798 20.1264 43.6562 19.9152C43.7326 19.7039 43.7623 19.4787 43.7433 19.2549C43.7066 18.858 43.522 18.4895 43.2263 18.2223C42.9305 17.9551 42.5452 17.8088 42.1466 17.8125H40.6232C40.5579 17.8129 40.4927 17.8171 40.4279 17.8252C40.3834 17.8059 40.3373 17.7905 40.2902 17.7793C39.3878 15.8721 38.1525 13.2607 35.5919 11.9863C31.7941 10.0977 24.798 10 23.4308 10C22.0636 10 15.0675 10.0977 11.2746 11.9834C8.71402 13.2578 7.47867 15.8691 6.57632 17.7764L6.56851 17.792C6.52351 17.7983 6.47931 17.8095 6.43668 17.8252C6.37188 17.8171 6.30666 17.8129 6.24136 17.8125H4.71499C4.31645 17.8088 3.93109 17.9551 3.63534 18.2223C3.33958 18.4895 3.15504 18.858 3.11832 19.2549C3.10097 19.4782 3.13204 19.7026 3.2094 19.9127C3.28676 20.1229 3.40859 20.3139 3.56656 20.4727C3.60435 20.5119 3.63251 20.5594 3.64881 20.6113C3.66511 20.6633 3.66911 20.7184 3.66049 20.7722C3.65187 20.826 3.63088 20.877 3.59915 20.9213C3.56743 20.9656 3.52585 21.0019 3.47769 21.0273C2.62613 21.4883 1.81753 21.9248 1.31851 22.5898C1.09976 22.8828 0.521635 23.6475 0.169096 27.5938C-0.0262162 29.8145 -0.055513 32.1133 0.0978073 33.5938C0.419096 36.6699 1.02164 38.5293 1.04703 38.6064C1.13949 38.8872 1.30968 39.136 1.53786 39.3239C1.76603 39.5118 2.04282 39.6311 2.33609 39.668V39.6875C2.33609 40.1019 2.50071 40.4993 2.79373 40.7924C3.08676 41.0854 3.48419 41.25 3.89859 41.25H9.36734C9.78174 41.25 10.1792 41.0854 10.4722 40.7924C10.7652 40.4993 10.9298 40.1019 10.9298 39.6875C11.7707 39.6875 12.3556 39.5371 12.9757 39.377C13.871 39.1357 14.7862 38.9752 15.7101 38.8975C18.6896 38.6133 21.6525 38.5156 23.4308 38.5156C25.173 38.5156 28.2668 38.6133 31.2511 38.8975C32.1787 38.9754 33.0975 39.1365 33.9962 39.3789C34.59 39.5312 35.1535 39.6719 35.9337 39.6865C35.9337 40.1009 36.0984 40.4984 36.3914 40.7914C36.6844 41.0844 37.0818 41.249 37.4962 41.249H42.965C43.3794 41.249 43.7768 41.0844 44.0699 40.7914C44.3629 40.4984 44.5275 40.1009 44.5275 39.6865V39.6748C44.8215 39.6386 45.0991 39.5196 45.328 39.3317C45.5569 39.1437 45.7277 38.8946 45.8205 38.6133C45.8459 38.5361 46.4484 36.6768 46.7697 33.6006C46.923 32.1191 46.8957 29.8242 46.6984 27.5996ZM9.40054 19.1123C10.1818 17.4521 11.0753 15.5732 12.6662 14.7813C14.965 13.6367 19.7296 13.1211 23.4308 13.1211C27.132 13.1211 31.8966 13.6328 34.1955 14.7813C35.7863 15.5732 36.6759 17.4531 37.4611 19.1123L37.5587 19.3242C37.6159 19.4449 37.6411 19.5781 37.6321 19.7113C37.623 19.8445 37.5801 19.9731 37.5072 20.0849C37.4343 20.1968 37.334 20.2881 37.2159 20.3501C37.0977 20.4122 36.9656 20.4429 36.8322 20.4395C33.5871 20.3516 26.7511 20.0703 23.4308 20.0703C20.1105 20.0703 13.2746 20.3584 10.0246 20.4463C9.89114 20.4498 9.75904 20.419 9.64087 20.357C9.52271 20.2949 9.42241 20.2036 9.34955 20.0918C9.27669 19.9799 9.2337 19.8513 9.22468 19.7181C9.21565 19.585 9.2409 19.4517 9.298 19.3311C9.33218 19.2588 9.36832 19.1855 9.40054 19.1123ZM10.5656 26.8887C8.8857 27.0909 7.19508 27.1907 5.50308 27.1875C4.46792 27.1875 3.40054 26.8945 3.2023 25.9727C3.06656 25.3525 3.08121 25.0039 3.15445 24.6533C3.21597 24.3555 3.31363 24.1387 3.80191 24.0625C5.07144 23.8672 5.7814 24.1123 7.85953 24.7246C9.23746 25.1299 10.2316 25.6699 10.798 26.0977C11.0822 26.3086 10.9308 26.8594 10.5656 26.8887ZM32.1847 34.8965C30.8996 35.043 28.3293 34.9893 23.4601 34.9893C18.591 34.9893 16.0216 35.043 14.7365 34.8965C13.4103 34.749 11.7199 33.4951 12.8742 32.3779C13.6427 31.6416 15.4357 31.0908 17.8234 30.7812C20.2111 30.4717 21.2218 30.3125 23.4503 30.3125C25.6789 30.3125 26.5871 30.4102 29.0773 30.7822C31.5675 31.1543 33.4494 31.7119 34.0265 32.3789C35.0793 33.5742 33.5099 34.7412 32.1847 34.9023V34.8965ZM43.6593 25.9717C43.464 26.8975 42.3898 27.1865 41.3585 27.1865C39.6342 27.1869 37.9112 27.0871 36.1984 26.8877C35.8996 26.8594 35.7609 26.335 36.0636 26.0967C36.6212 25.6582 37.6261 25.1289 39.0021 24.7236C41.0802 24.1113 42.2785 23.8662 43.3078 24.0703C43.5587 24.1201 43.6916 24.3896 43.7072 24.5586C43.7761 25.029 43.7599 25.508 43.6593 25.9727V25.9717Z" fill="#FF0000"/>
<g opacity="0.66">
<path d="M36.9998 0.975049C39.7598 0.975049 42.8138 1.44305 45.3098 2.63405C47.2778 3.57305 49.2788 5.20205 49.2788 7.52405V9.74705C49.2518 10.692 48.9608 11.532 48.4058 12.255V21.984C48.4058 26.673 42.6938 29.022 36.9878 29.022C31.2878 29.022 25.5908 26.679 25.5908 21.984V12.258C25.0328 11.529 24.7448 10.698 24.7178 9.75005V7.52705C24.7178 5.20505 26.7188 3.57605 28.6868 2.63705C31.1858 1.44305 34.2398 0.975049 36.9998 0.975049ZM36.9998 12.72C43.0118 12.72 47.8868 10.395 47.8868 7.52405C47.8868 4.65305 43.0118 2.32805 36.9998 2.32805C30.9878 2.32805 26.1128 4.65305 26.1128 7.52405C26.1128 10.395 30.9878 12.72 36.9998 12.72ZM36.9998 3.23705C37.8908 3.23705 38.6138 3.58205 38.6138 4.00805C38.6138 4.43405 37.8908 4.77905 36.9998 4.77905C36.1088 4.77905 35.3858 4.43405 35.3858 4.00805C35.3858 3.58205 36.1088 3.23705 36.9998 3.23705ZM43.3838 4.99505C43.9418 4.99505 44.4848 5.13305 44.7818 5.37905C45.2258 5.74805 44.9648 6.21905 44.1908 6.43205C43.9358 6.50105 43.6598 6.53705 43.3838 6.53705C42.8258 6.53705 42.2828 6.39905 41.9858 6.15305C41.5418 5.78405 41.8028 5.31305 42.5768 5.10005C42.8318 5.02805 43.1108 4.99505 43.3838 4.99505ZM30.6158 4.99505C30.8888 4.99505 31.1678 5.02805 31.4228 5.10005C32.1938 5.31305 32.4578 5.78405 32.0138 6.15305C31.7138 6.39905 31.1738 6.53705 30.6158 6.53705C30.3428 6.53705 30.0638 6.50405 29.8088 6.43205C29.0348 6.21905 28.7738 5.74805 29.2178 5.37905C29.5148 5.13305 30.0578 4.99505 30.6158 4.99505ZM36.9998 5.61005C39.2138 5.61005 41.0078 6.46505 41.0078 7.52405C41.0078 8.58305 39.2138 9.43805 36.9998 9.43805C34.7858 9.43805 32.9918 8.58305 32.9918 7.52405C32.9918 6.46805 34.7858 5.61005 36.9998 5.61005ZM43.3868 8.51405C43.6598 8.51405 43.9358 8.54705 44.1908 8.61605C44.9648 8.82905 45.2258 9.30005 44.7818 9.66905C44.4818 9.91505 43.9418 10.056 43.3838 10.056C43.1108 10.056 42.8318 10.023 42.5768 9.95105C41.8028 9.73805 41.5418 9.26705 41.9858 8.89805C42.2858 8.65205 42.8288 8.51405 43.3868 8.51405ZM30.6128 8.51405C31.1708 8.51405 31.7138 8.65205 32.0138 8.90105C32.4578 9.27005 32.1938 9.74105 31.4228 9.95405C31.1678 10.023 30.8888 10.059 30.6158 10.059C30.0578 10.059 29.5148 9.92105 29.2178 9.67505C28.7738 9.30605 29.0348 8.83505 29.8088 8.62205C30.0608 8.54705 30.3398 8.51405 30.6128 8.51405ZM36.9998 10.272C37.8908 10.272 38.6138 10.617 38.6138 11.043C38.6138 11.469 37.8908 11.814 36.9998 11.814C36.1088 11.814 35.3858 11.469 35.3858 11.043C35.3858 10.617 36.1088 10.272 36.9998 10.272ZM36.9998 0.300049C35.4938 0.300049 34.0208 0.432049 32.6228 0.696049C31.0568 0.990049 29.6348 1.43705 28.3988 2.02805C27.2078 2.59505 26.1938 3.31505 25.4708 4.10705C24.5258 5.13905 24.0488 6.28805 24.0488 7.52705V9.75005V9.75905V9.76805C24.0758 10.773 24.3698 11.682 24.9218 12.477V21.987C24.9218 23.256 25.2938 24.423 26.0258 25.458C26.6858 26.391 27.6308 27.198 28.8338 27.858C29.9348 28.461 31.2218 28.929 32.6648 29.244C34.0418 29.547 35.4998 29.7 36.9938 29.7C38.4908 29.7 39.9518 29.547 41.3288 29.244C42.7718 28.926 44.0648 28.461 45.1658 27.855C46.3688 27.195 47.3168 26.388 47.9798 25.455C48.7148 24.42 49.0868 23.253 49.0868 21.987V12.477C49.6388 11.682 49.9298 10.773 49.9598 9.76505V9.75605V9.74705V7.52405C49.9598 6.28505 49.4798 5.13605 48.5378 4.10405C47.8118 3.31205 46.7978 2.59205 45.6068 2.02505C44.3708 1.43405 42.9518 0.987049 41.3828 0.693049C39.9788 0.432049 38.5058 0.300049 36.9998 0.300049ZM38.5838 5.07905C39.0338 4.81805 39.2888 4.43405 39.2888 4.00505C39.2888 3.65105 39.1118 3.32405 38.7938 3.07505C40.9118 3.24605 42.8558 3.72005 44.3978 4.45505C44.0918 4.36805 43.7468 4.32005 43.3838 4.32005C43.0418 4.32005 42.7028 4.36505 42.3998 4.44905C42.0908 4.53605 41.8268 4.65905 41.6168 4.81505C41.3528 5.01605 41.1788 5.26805 41.1188 5.54705C41.0318 5.95805 41.1908 6.36905 41.5568 6.67205C41.9708 7.01405 42.6368 7.21205 43.3838 7.21205C43.7258 7.21205 44.0648 7.16705 44.3678 7.08305C44.6768 6.99905 44.9408 6.87605 45.1478 6.71705C45.4118 6.51605 45.5858 6.26405 45.6458 5.98505C45.7238 5.61605 45.6068 5.25005 45.3158 4.95905C45.8078 5.26805 46.2158 5.60405 46.5218 5.94905C46.9778 6.46205 47.2088 6.99305 47.2088 7.52405C47.2088 8.05505 46.9778 8.58605 46.5218 9.09905C46.2158 9.44405 45.8048 9.78005 45.3158 10.089C45.6038 9.80105 45.7238 9.43205 45.6458 9.06605C45.5858 8.78705 45.4148 8.53205 45.1478 8.33105C44.9408 8.17505 44.6768 8.05205 44.3648 7.96505C44.0618 7.88105 43.7228 7.83905 43.3808 7.83905C42.6338 7.83905 41.9648 8.03705 41.5508 8.37905C41.1848 8.68205 41.0258 9.09305 41.1128 9.50405C41.1728 9.78305 41.3438 10.038 41.6108 10.236C41.8178 10.392 42.0818 10.515 42.3938 10.602C42.6968 10.686 43.0358 10.731 43.3778 10.731C43.7408 10.731 44.0858 10.683 44.3918 10.596C42.8528 11.328 40.9058 11.805 38.7878 11.976C39.1058 11.727 39.2828 11.4 39.2828 11.046C39.2828 10.62 39.0278 10.236 38.5778 9.97205C39.1448 9.86705 39.6698 9.70205 40.1168 9.48905C41.1218 9.00905 41.6738 8.31305 41.6738 7.52705C41.6738 6.74105 41.1218 6.04505 40.1168 5.56505C39.6758 5.34905 39.1508 5.18405 38.5838 5.07905ZM29.6018 4.45505C31.1408 3.72305 33.0878 3.24905 35.2058 3.07505C34.8878 3.32405 34.7108 3.65105 34.7108 4.00505C34.7108 4.43105 34.9658 4.81505 35.4158 5.07905C34.8488 5.18405 34.3238 5.34905 33.8768 5.56205C32.8718 6.04205 32.3198 6.73805 32.3198 7.52405C32.3198 8.31005 32.8718 9.00605 33.8768 9.48605C34.3268 9.69905 34.8488 9.86405 35.4158 9.96905C34.9658 10.23 34.7108 10.614 34.7108 11.043C34.7108 11.397 34.8878 11.724 35.2058 11.973C33.0878 11.802 31.1438 11.328 29.6018 10.593C29.9078 10.68 30.2528 10.728 30.6158 10.728C30.9578 10.728 31.2998 10.683 31.6028 10.599C31.9118 10.515 32.1758 10.392 32.3828 10.233C32.6498 10.032 32.8208 9.78005 32.8808 9.50105C32.9678 9.09005 32.8088 8.67905 32.4428 8.37605C32.0258 8.03105 31.3598 7.83605 30.6128 7.83605C30.2708 7.83605 29.9318 7.88105 29.6288 7.96205C29.3168 8.04905 29.0558 8.17205 28.8458 8.32805C28.5818 8.52905 28.4078 8.78105 28.3478 9.06305C28.2698 9.43205 28.3868 9.79805 28.6748 10.086C28.1858 9.77705 27.7748 9.44105 27.4688 9.09605C27.0128 8.58305 26.7818 8.05205 26.7818 7.52105C26.7818 6.99005 27.0128 6.45905 27.4688 5.94605C27.7748 5.60105 28.1858 5.26505 28.6748 4.95605C28.3868 5.24705 28.2668 5.61305 28.3448 5.98205C28.4048 6.26105 28.5758 6.51605 28.8428 6.71405C29.0498 6.87005 29.3138 6.99305 29.6258 7.08005C29.9288 7.16405 30.2678 7.20905 30.6098 7.20905C31.3568 7.20905 32.0228 7.01105 32.4368 6.66905C32.8028 6.36605 32.9618 5.95805 32.8748 5.54705C32.8148 5.26805 32.6438 5.01305 32.3768 4.81205C32.1698 4.65605 31.9058 4.53305 31.5968 4.44605C31.2938 4.36205 30.9518 4.31705 30.6128 4.31705C30.2528 4.32005 29.9078 4.36805 29.6018 4.45505Z" fill="black"/>
</g>
</g>
<defs>
<clipPath id="clip0_64_204">
<rect width="50" height="50" fill="white"/>
</clipPath>
</defs>
</svg>
