<svg width="50" height="50" viewBox="0 0 50 50" fill="none" xmlns="http://www.w3.org/2000/svg">
<path d="M46.6984 27.5996C46.3468 23.6533 45.7677 22.8848 45.549 22.5957C45.046 21.9277 44.2414 21.4912 43.3898 21.0332C43.3416 21.0077 43.3001 20.9714 43.2683 20.9271C43.2366 20.8829 43.2156 20.8318 43.207 20.778C43.1984 20.7242 43.2024 20.6692 43.2187 20.6172C43.235 20.5652 43.2631 20.5177 43.3009 20.4785C43.4586 20.3186 43.5798 20.1264 43.6562 19.9152C43.7326 19.7039 43.7623 19.4787 43.7433 19.2549C43.7066 18.858 43.522 18.4895 43.2263 18.2223C42.9305 17.9551 42.5452 17.8088 42.1466 17.8125H40.6232C40.5579 17.8129 40.4927 17.8171 40.4279 17.8252C40.3834 17.8059 40.3373 17.7905 40.2902 17.7793C39.3878 15.8721 38.1525 13.2607 35.5919 11.9863C31.7941 10.0977 24.798 10 23.4308 10C22.0636 10 15.0675 10.0977 11.2746 11.9834C8.71402 13.2578 7.47867 15.8691 6.57632 17.7764L6.56851 17.792C6.52351 17.7983 6.47931 17.8095 6.43668 17.8252C6.37188 17.8171 6.30666 17.8129 6.24136 17.8125H4.71499C4.31645 17.8088 3.93109 17.9551 3.63534 18.2223C3.33958 18.4895 3.15504 18.858 3.11832 19.2549C3.10097 19.4782 3.13204 19.7026 3.2094 19.9127C3.28676 20.1229 3.40859 20.3139 3.56656 20.4727C3.60435 20.5119 3.63251 20.5594 3.64881 20.6113C3.66511 20.6633 3.66911 20.7184 3.66049 20.7722C3.65187 20.826 3.63088 20.877 3.59915 20.9213C3.56743 20.9656 3.52585 21.0019 3.47769 21.0273C2.62613 21.4883 1.81753 21.9248 1.31851 22.5898C1.09976 22.8828 0.521635 23.6475 0.169096 27.5938C-0.0262162 29.8145 -0.055513 32.1133 0.0978073 33.5938C0.419096 36.6699 1.02164 38.5293 1.04703 38.6064C1.13949 38.8872 1.30968 39.136 1.53786 39.3239C1.76603 39.5118 2.04282 39.6311 2.33609 39.668V39.6875C2.33609 40.1019 2.50071 40.4993 2.79373 40.7924C3.08676 41.0854 3.48419 41.25 3.89859 41.25H9.36734C9.78174 41.25 10.1792 41.0854 10.4722 40.7924C10.7652 40.4993 10.9298 40.1019 10.9298 39.6875C11.7707 39.6875 12.3556 39.5371 12.9757 39.377C13.871 39.1357 14.7862 38.9752 15.7101 38.8975C18.6896 38.6133 21.6525 38.5156 23.4308 38.5156C25.173 38.5156 28.2668 38.6133 31.2511 38.8975C32.1787 38.9754 33.0975 39.1365 33.9962 39.3789C34.59 39.5312 35.1535 39.6719 35.9337 39.6865C35.9337 40.1009 36.0984 40.4984 36.3914 40.7914C36.6844 41.0844 37.0818 41.249 37.4962 41.249H42.965C43.3794 41.249 43.7768 41.0844 44.0699 40.7914C44.3629 40.4984 44.5275 40.1009 44.5275 39.6865V39.6748C44.8215 39.6386 45.0991 39.5196 45.328 39.3317C45.5569 39.1437 45.7277 38.8946 45.8205 38.6133C45.8459 38.5361 46.4484 36.6768 46.7697 33.6006C46.923 32.1191 46.8957 29.8242 46.6984 27.5996ZM9.40054 19.1123C10.1818 17.4521 11.0753 15.5732 12.6662 14.7813C14.965 13.6367 19.7296 13.1211 23.4308 13.1211C27.132 13.1211 31.8966 13.6328 34.1955 14.7813C35.7863 15.5732 36.6759 17.4531 37.4611 19.1123L37.5587 19.3242C37.6159 19.4449 37.6411 19.5781 37.6321 19.7113C37.623 19.8445 37.5801 19.9731 37.5072 20.0849C37.4343 20.1968 37.334 20.2881 37.2159 20.3501C37.0977 20.4122 36.9656 20.4429 36.8322 20.4395C33.5871 20.3516 26.7511 20.0703 23.4308 20.0703C20.1105 20.0703 13.2746 20.3584 10.0246 20.4463C9.89114 20.4498 9.75904 20.419 9.64087 20.357C9.52271 20.2949 9.42241 20.2036 9.34955 20.0918C9.27669 19.9799 9.2337 19.8513 9.22468 19.7181C9.21565 19.585 9.2409 19.4517 9.298 19.3311C9.33218 19.2588 9.36832 19.1855 9.40054 19.1123ZM10.5656 26.8887C8.8857 27.0909 7.19508 27.1907 5.50308 27.1875C4.46792 27.1875 3.40054 26.8945 3.2023 25.9727C3.06656 25.3525 3.08121 25.0039 3.15445 24.6533C3.21597 24.3555 3.31363 24.1387 3.80191 24.0625C5.07144 23.8672 5.7814 24.1123 7.85953 24.7246C9.23746 25.1299 10.2316 25.6699 10.798 26.0977C11.0822 26.3086 10.9308 26.8594 10.5656 26.8887ZM32.1847 34.8965C30.8996 35.043 28.3293 34.9893 23.4601 34.9893C18.591 34.9893 16.0216 35.043 14.7365 34.8965C13.4103 34.749 11.7199 33.4951 12.8742 32.3779C13.6427 31.6416 15.4357 31.0908 17.8234 30.7812C20.2111 30.4717 21.2218 30.3125 23.4503 30.3125C25.6789 30.3125 26.5871 30.4102 29.0773 30.7822C31.5675 31.1543 33.4494 31.7119 34.0265 32.3789C35.0793 33.5742 33.5099 34.7412 32.1847 34.9023V34.8965ZM43.6593 25.9717C43.464 26.8975 42.3898 27.1865 41.3585 27.1865C39.6342 27.1869 37.9112 27.0871 36.1984 26.8877C35.8996 26.8594 35.7609 26.335 36.0636 26.0967C36.6212 25.6582 37.6261 25.1289 39.0021 24.7236C41.0802 24.1113 42.2785 23.8662 43.3078 24.0703C43.5587 24.1201 43.6916 24.3896 43.7072 24.5586C43.7761 25.029 43.7599 25.508 43.6593 25.9727V25.9717Z" fill="#FF0000"/>
<g opacity="0.66" clip-path="url(#clip0_64_237)">
<path d="M35.0001 0C26.7291 0 20 6.72894 20 15C20 23.2711 26.7291 30 35.0001 30C43.2711 30 50.0001 23.2711 50.0001 15C50.0001 6.72894 43.2709 0 35.0001 0ZM35.0001 25.6537C29.1161 25.6537 24.3463 20.884 24.3463 15C24.3463 9.11602 29.1161 4.34633 35.0001 4.34633C40.8839 4.34633 45.6538 9.11602 45.6538 15C45.6538 20.884 40.8837 25.6537 35.0001 25.6537Z" fill="black"/>
<path d="M35.0001 5.72559C29.886 5.72559 25.7256 9.88605 25.7256 15C25.7256 20.114 29.8862 24.2745 35.0001 24.2745C40.1141 24.2745 44.2746 20.114 44.2746 15C44.2746 9.88605 40.114 5.72559 35.0001 5.72559ZM43.0869 14.4087H38.5868C38.4949 13.84 38.2703 13.3155 37.9463 12.8672L41.1231 9.69027C42.2384 10.9745 42.9564 12.6109 43.0869 14.4087ZM35.582 6.91247C37.3787 7.04059 39.0146 7.7559 40.2995 8.86794L37.1233 12.0442C36.675 11.7204 36.1506 11.4958 35.582 11.4039V6.91247ZM34.4181 6.91247V11.4038C33.8496 11.4957 33.3251 11.7202 32.8767 12.0442L29.7004 8.86806C30.9854 7.75602 32.6214 7.04059 34.4181 6.91247ZM28.8767 9.69039L32.0537 12.8673C31.7297 13.3155 31.5051 13.84 31.4132 14.4086H26.9132C27.0437 12.6109 27.7617 10.9746 28.8767 9.69039ZM26.9119 15.5725H31.4133C31.5051 16.1411 31.7298 16.6655 32.0538 17.1139L28.8681 20.2996C27.754 19.0123 27.0381 17.3728 26.9119 15.5725ZM34.4181 23.0876C32.6166 22.9591 30.9769 22.2404 29.6903 21.1233L32.8767 17.9368C33.3251 18.2608 33.8496 18.4854 34.4181 18.5773V23.0876ZM34.4181 17.38V17.3885C34.167 17.3275 33.9312 17.2282 33.7165 17.0969L33.722 17.0914C33.3861 16.8865 33.104 16.6044 32.8991 16.2683L32.8937 16.2738C32.7624 16.059 32.6631 15.8234 32.6021 15.5722H32.6105C32.5651 15.3854 32.5384 15.1912 32.5384 14.9904C32.5384 14.7895 32.5652 14.5953 32.6105 14.4085H32.6021C32.6631 14.1574 32.7623 13.9218 32.8937 13.7071L32.8991 13.7125C33.104 13.3766 33.3862 13.0943 33.722 12.8896L33.7165 12.884C33.9312 12.7527 34.167 12.6534 34.4181 12.5924V12.6009C34.6051 12.5555 34.7992 12.5288 35.0001 12.5288C35.2011 12.5288 35.3952 12.5555 35.5821 12.6009V12.5924C35.8333 12.6535 36.0689 12.7526 36.2836 12.8839L36.278 12.8894C36.614 13.0942 36.8962 13.3765 37.1011 13.7124L37.1065 13.7069C37.2379 13.9217 37.3371 14.1574 37.3982 14.4086H37.3898C37.4352 14.5954 37.4618 14.7896 37.4618 14.9905C37.4618 15.1913 37.4351 15.3855 37.3898 15.5724H37.3982C37.3371 15.8235 37.238 16.0593 37.1065 16.274L37.1011 16.2686C36.8962 16.6045 36.6139 16.8867 36.278 17.0915L36.2836 17.0969C36.0689 17.2282 35.8333 17.3275 35.5821 17.3885V17.38C35.3952 17.4254 35.2011 17.4522 35.0001 17.4522C34.7992 17.4522 34.6051 17.4255 34.4181 17.38ZM35.582 23.0876V18.5773C36.1506 18.4854 36.675 18.2608 37.1233 17.9369L40.3096 21.1233C39.0232 22.2404 37.3835 22.9591 35.582 23.0876ZM41.132 20.2996L37.9464 17.114C38.2704 16.6657 38.4949 16.1412 38.587 15.5725H43.0883C42.9619 17.3728 42.2461 19.0123 41.132 20.2996Z" fill="black"/>
</g>
<defs>
<clipPath id="clip0_64_237">
<rect width="30" height="30" fill="white" transform="translate(20)"/>
</clipPath>
</defs>
</svg>
