<svg width="50" height="50" viewBox="0 0 50 50" fill="none" xmlns="http://www.w3.org/2000/svg">
<path d="M46.6984 27.5996C46.3468 23.6533 45.7677 22.8848 45.549 22.5957C45.046 21.9277 44.2414 21.4912 43.3898 21.0332C43.3416 21.0077 43.3001 20.9714 43.2683 20.9271C43.2366 20.8829 43.2156 20.8318 43.207 20.778C43.1984 20.7242 43.2024 20.6692 43.2187 20.6172C43.235 20.5652 43.2631 20.5177 43.3009 20.4785C43.4586 20.3186 43.5798 20.1264 43.6562 19.9152C43.7326 19.7039 43.7623 19.4787 43.7433 19.2549C43.7066 18.858 43.522 18.4895 43.2263 18.2223C42.9305 17.9551 42.5452 17.8088 42.1466 17.8125H40.6232C40.5579 17.8129 40.4927 17.8171 40.4279 17.8252C40.3834 17.8059 40.3373 17.7905 40.2902 17.7793C39.3878 15.8721 38.1525 13.2607 35.5919 11.9863C31.7941 10.0977 24.798 10 23.4308 10C22.0636 10 15.0675 10.0977 11.2746 11.9834C8.71402 13.2578 7.47867 15.8691 6.57632 17.7764L6.56851 17.792C6.52351 17.7983 6.47931 17.8095 6.43668 17.8252C6.37188 17.8171 6.30666 17.8129 6.24136 17.8125H4.71499C4.31645 17.8088 3.93109 17.9551 3.63534 18.2223C3.33958 18.4895 3.15504 18.858 3.11832 19.2549C3.10097 19.4782 3.13204 19.7026 3.2094 19.9127C3.28676 20.1229 3.40859 20.3139 3.56656 20.4727C3.60435 20.5119 3.63251 20.5594 3.64881 20.6113C3.66511 20.6633 3.66911 20.7184 3.66049 20.7722C3.65187 20.826 3.63088 20.877 3.59915 20.9213C3.56743 20.9656 3.52585 21.0019 3.47769 21.0273C2.62613 21.4883 1.81753 21.9248 1.31851 22.5898C1.09976 22.8828 0.521635 23.6475 0.169096 27.5938C-0.0262162 29.8145 -0.055513 32.1133 0.0978073 33.5938C0.419096 36.6699 1.02164 38.5293 1.04703 38.6064C1.13949 38.8872 1.30968 39.136 1.53786 39.3239C1.76603 39.5118 2.04282 39.6311 2.33609 39.668V39.6875C2.33609 40.1019 2.50071 40.4993 2.79373 40.7924C3.08676 41.0854 3.48419 41.25 3.89859 41.25H9.36734C9.78174 41.25 10.1792 41.0854 10.4722 40.7924C10.7652 40.4993 10.9298 40.1019 10.9298 39.6875C11.7707 39.6875 12.3556 39.5371 12.9757 39.377C13.871 39.1357 14.7862 38.9752 15.7101 38.8975C18.6896 38.6133 21.6525 38.5156 23.4308 38.5156C25.173 38.5156 28.2668 38.6133 31.2511 38.8975C32.1787 38.9754 33.0975 39.1365 33.9962 39.3789C34.59 39.5312 35.1535 39.6719 35.9337 39.6865C35.9337 40.1009 36.0984 40.4984 36.3914 40.7914C36.6844 41.0844 37.0818 41.249 37.4962 41.249H42.965C43.3794 41.249 43.7768 41.0844 44.0699 40.7914C44.3629 40.4984 44.5275 40.1009 44.5275 39.6865V39.6748C44.8215 39.6386 45.0991 39.5196 45.328 39.3317C45.5569 39.1437 45.7277 38.8946 45.8205 38.6133C45.8459 38.5361 46.4484 36.6768 46.7697 33.6006C46.923 32.1191 46.8957 29.8242 46.6984 27.5996ZM9.40054 19.1123C10.1818 17.4521 11.0753 15.5732 12.6662 14.7813C14.965 13.6367 19.7296 13.1211 23.4308 13.1211C27.132 13.1211 31.8966 13.6328 34.1955 14.7813C35.7863 15.5732 36.6759 17.4531 37.4611 19.1123L37.5587 19.3242C37.6159 19.4449 37.6411 19.5781 37.6321 19.7113C37.623 19.8445 37.5801 19.9731 37.5072 20.0849C37.4343 20.1968 37.334 20.2881 37.2159 20.3501C37.0977 20.4122 36.9656 20.4429 36.8322 20.4395C33.5871 20.3516 26.7511 20.0703 23.4308 20.0703C20.1105 20.0703 13.2746 20.3584 10.0246 20.4463C9.89114 20.4498 9.75904 20.419 9.64087 20.357C9.52271 20.2949 9.42241 20.2036 9.34955 20.0918C9.27669 19.9799 9.2337 19.8513 9.22468 19.7181C9.21565 19.585 9.2409 19.4517 9.298 19.3311C9.33218 19.2588 9.36832 19.1855 9.40054 19.1123ZM10.5656 26.8887C8.8857 27.0909 7.19508 27.1907 5.50308 27.1875C4.46792 27.1875 3.40054 26.8945 3.2023 25.9727C3.06656 25.3525 3.08121 25.0039 3.15445 24.6533C3.21597 24.3555 3.31363 24.1387 3.80191 24.0625C5.07144 23.8672 5.7814 24.1123 7.85953 24.7246C9.23746 25.1299 10.2316 25.6699 10.798 26.0977C11.0822 26.3086 10.9308 26.8594 10.5656 26.8887ZM32.1847 34.8965C30.8996 35.043 28.3293 34.9893 23.4601 34.9893C18.591 34.9893 16.0216 35.043 14.7365 34.8965C13.4103 34.749 11.7199 33.4951 12.8742 32.3779C13.6427 31.6416 15.4357 31.0908 17.8234 30.7812C20.2111 30.4717 21.2218 30.3125 23.4503 30.3125C25.6789 30.3125 26.5871 30.4102 29.0773 30.7822C31.5675 31.1543 33.4494 31.7119 34.0265 32.3789C35.0793 33.5742 33.5099 34.7412 32.1847 34.9023V34.8965ZM43.6593 25.9717C43.464 26.8975 42.3898 27.1865 41.3585 27.1865C39.6342 27.1869 37.9112 27.0871 36.1984 26.8877C35.8996 26.8594 35.7609 26.335 36.0636 26.0967C36.6212 25.6582 37.6261 25.1289 39.0021 24.7236C41.0802 24.1113 42.2785 23.8662 43.3078 24.0703C43.5587 24.1201 43.6916 24.3896 43.7072 24.5586C43.7761 25.029 43.7599 25.508 43.6593 25.9727V25.9717Z" fill="#FF0000"/>
<path d="M42.5 4.34367L40.6719 2.65617C40.6146 2.61282 40.5489 2.58193 40.4789 2.56547C40.409 2.54901 40.3364 2.54735 40.2658 2.56059C40.1952 2.57383 40.1281 2.60168 40.0689 2.64236C40.0096 2.68303 39.9596 2.73564 39.9219 2.79679L39.6406 3.45304L39.3594 3.35929C38.4765 2.96304 37.4725 2.93295 36.5675 3.27563C35.6625 3.6183 34.9303 4.30579 34.5312 5.18742L32.3281 10.203L31.2969 9.73429C31.1848 9.68647 31.0584 9.68419 30.9447 9.72794C30.8309 9.7717 30.7387 9.85804 30.6875 9.96867L24.875 23.1405C24.6971 23.5469 24.6652 24.0023 24.7848 24.4295C24.9044 24.8567 25.1682 25.2294 25.5312 25.4843L24.5937 27.3124C24.4678 27.5987 24.2555 27.8385 23.9865 27.9982C23.7176 28.1579 23.4054 28.2295 23.0937 28.203L23 29.1405H23.2344C23.7037 29.1413 24.1629 29.004 24.5546 28.7455C24.9464 28.4871 25.2535 28.1191 25.4375 27.6874L26.4219 25.8593L26.8906 25.953C27.2569 25.9503 27.6147 25.8429 27.922 25.6436C28.2292 25.4443 28.4732 25.1613 28.625 24.828L30.5469 20.4687C31.5508 19.7917 32.6594 19.2849 33.8281 18.9687C34.2698 18.8739 34.6827 18.6758 35.0331 18.3906C35.3835 18.1054 35.6613 17.7413 35.8437 17.328L37.7187 13.1093C37.7658 12.9887 37.7658 12.8549 37.7187 12.7343C37.7005 12.6741 37.6704 12.6182 37.6302 12.5698C37.5899 12.5215 37.5403 12.4818 37.4844 12.453L34.2031 11.0468L33.1719 10.578L35.4219 5.56242C35.5591 5.23875 35.7599 4.94594 36.0125 4.70136C36.265 4.45679 36.5641 4.26543 36.892 4.13864C37.2199 4.01186 37.5699 3.95222 37.9213 3.96329C38.2726 3.97435 38.6182 4.05588 38.9375 4.20304L39.2656 4.34367L38.7969 5.37492C38.767 5.44216 38.7533 5.51551 38.757 5.58901C38.7607 5.66252 38.7816 5.73412 38.8182 5.79802C38.8547 5.86192 38.9057 5.91633 38.9672 5.95683C39.0286 5.99734 39.0988 6.0228 39.1719 6.03117L41.7031 6.26554C41.7978 6.2584 41.8894 6.22926 41.9708 6.18043C42.0522 6.1316 42.121 6.06444 42.1719 5.98429L42.6406 4.85929C42.6803 4.77033 42.688 4.67036 42.6624 4.57637C42.6367 4.48238 42.5794 4.40016 42.5 4.34367ZM35 16.953C34.8656 17.2258 34.6749 17.4671 34.4407 17.661C34.2064 17.8548 33.9337 17.997 33.6406 18.078C32.7911 18.284 31.9717 18.5991 31.2031 19.0155L33.6406 13.4374L34.25 12.078L36.6406 13.1562L35 16.953Z" fill="black" fill-opacity="0.66"/>
<path d="M42.5469 5.9895L42.9266 5.13263L45.8228 6.41597L45.4431 7.27285L42.5469 5.9895Z" fill="black" fill-opacity="0.66"/>
<path d="M49.2969 2H46.9531C46.6942 2 46.4844 2.20987 46.4844 2.46875V28.7188C46.4844 28.9776 46.6942 29.1875 46.9531 29.1875H49.2969C49.5558 29.1875 49.7656 28.9776 49.7656 28.7188V2.46875C49.7656 2.20987 49.5558 2 49.2969 2Z" fill="black" fill-opacity="0.66"/>
<path d="M42.8906 9.41553L45.3066 7.71727L45.8457 8.48424L43.4298 10.1825L42.8906 9.41553Z" fill="black" fill-opacity="0.66"/>
<path d="M44.23 2.8208L45.1056 2.48518L46.1595 5.23464L45.2838 5.57026L44.23 2.8208Z" fill="black" fill-opacity="0.66"/>
</svg>
