<svg width="50" height="50" viewBox="0 0 50 50" fill="none" xmlns="http://www.w3.org/2000/svg">
<path d="M46.6984 27.5996C46.3468 23.6533 45.7677 22.8848 45.549 22.5957C45.046 21.9277 44.2414 21.4912 43.3898 21.0332C43.3416 21.0077 43.3001 20.9714 43.2683 20.9271C43.2366 20.8829 43.2156 20.8318 43.207 20.778C43.1984 20.7242 43.2024 20.6692 43.2187 20.6172C43.235 20.5652 43.2631 20.5177 43.3009 20.4785C43.4586 20.3186 43.5798 20.1264 43.6562 19.9152C43.7326 19.7039 43.7623 19.4787 43.7433 19.2549C43.7066 18.858 43.522 18.4895 43.2263 18.2223C42.9305 17.9551 42.5452 17.8088 42.1466 17.8125H40.6232C40.5579 17.8129 40.4927 17.8171 40.4279 17.8252C40.3834 17.8059 40.3373 17.7905 40.2902 17.7793C39.3878 15.8721 38.1525 13.2607 35.5919 11.9863C31.7941 10.0977 24.798 10 23.4308 10C22.0636 10 15.0675 10.0977 11.2746 11.9834C8.71402 13.2578 7.47867 15.8691 6.57632 17.7764L6.56851 17.792C6.52351 17.7983 6.47931 17.8095 6.43668 17.8252C6.37188 17.8171 6.30666 17.8129 6.24136 17.8125H4.71499C4.31645 17.8088 3.93109 17.9551 3.63534 18.2223C3.33958 18.4895 3.15504 18.858 3.11832 19.2549C3.10097 19.4782 3.13204 19.7026 3.2094 19.9127C3.28676 20.1229 3.40859 20.3139 3.56656 20.4727C3.60435 20.5119 3.63251 20.5594 3.64881 20.6113C3.66511 20.6633 3.66911 20.7184 3.66049 20.7722C3.65187 20.826 3.63088 20.877 3.59915 20.9213C3.56743 20.9656 3.52585 21.0019 3.47769 21.0273C2.62613 21.4883 1.81753 21.9248 1.31851 22.5898C1.09976 22.8828 0.521635 23.6475 0.169096 27.5938C-0.0262162 29.8145 -0.055513 32.1133 0.0978073 33.5938C0.419096 36.6699 1.02164 38.5293 1.04703 38.6064C1.13949 38.8872 1.30968 39.136 1.53786 39.3239C1.76603 39.5118 2.04282 39.6311 2.33609 39.668V39.6875C2.33609 40.1019 2.50071 40.4993 2.79373 40.7924C3.08676 41.0854 3.48419 41.25 3.89859 41.25H9.36734C9.78174 41.25 10.1792 41.0854 10.4722 40.7924C10.7652 40.4993 10.9298 40.1019 10.9298 39.6875C11.7707 39.6875 12.3556 39.5371 12.9757 39.377C13.871 39.1357 14.7862 38.9752 15.7101 38.8975C18.6896 38.6133 21.6525 38.5156 23.4308 38.5156C25.173 38.5156 28.2668 38.6133 31.2511 38.8975C32.1787 38.9754 33.0975 39.1365 33.9962 39.3789C34.59 39.5312 35.1535 39.6719 35.9337 39.6865C35.9337 40.1009 36.0984 40.4984 36.3914 40.7914C36.6844 41.0844 37.0818 41.249 37.4962 41.249H42.965C43.3794 41.249 43.7768 41.0844 44.0699 40.7914C44.3629 40.4984 44.5275 40.1009 44.5275 39.6865V39.6748C44.8215 39.6386 45.0991 39.5196 45.328 39.3317C45.5569 39.1437 45.7277 38.8946 45.8205 38.6133C45.8459 38.5361 46.4484 36.6768 46.7697 33.6006C46.923 32.1191 46.8957 29.8242 46.6984 27.5996ZM9.40054 19.1123C10.1818 17.4521 11.0753 15.5732 12.6662 14.7813C14.965 13.6367 19.7296 13.1211 23.4308 13.1211C27.132 13.1211 31.8966 13.6328 34.1955 14.7813C35.7863 15.5732 36.6759 17.4531 37.4611 19.1123L37.5587 19.3242C37.6159 19.4449 37.6411 19.5781 37.6321 19.7113C37.623 19.8445 37.5801 19.9731 37.5072 20.0849C37.4343 20.1968 37.334 20.2881 37.2159 20.3501C37.0977 20.4122 36.9656 20.4429 36.8322 20.4395C33.5871 20.3516 26.7511 20.0703 23.4308 20.0703C20.1105 20.0703 13.2746 20.3584 10.0246 20.4463C9.89114 20.4498 9.75904 20.419 9.64087 20.357C9.52271 20.2949 9.42241 20.2036 9.34955 20.0918C9.27669 19.9799 9.2337 19.8513 9.22468 19.7181C9.21565 19.585 9.2409 19.4517 9.298 19.3311C9.33218 19.2588 9.36832 19.1855 9.40054 19.1123ZM10.5656 26.8887C8.8857 27.0909 7.19508 27.1907 5.50308 27.1875C4.46792 27.1875 3.40054 26.8945 3.2023 25.9727C3.06656 25.3525 3.08121 25.0039 3.15445 24.6533C3.21597 24.3555 3.31363 24.1387 3.80191 24.0625C5.07144 23.8672 5.7814 24.1123 7.85953 24.7246C9.23746 25.1299 10.2316 25.6699 10.798 26.0977C11.0822 26.3086 10.9308 26.8594 10.5656 26.8887ZM32.1847 34.8965C30.8996 35.043 28.3293 34.9893 23.4601 34.9893C18.591 34.9893 16.0216 35.043 14.7365 34.8965C13.4103 34.749 11.7199 33.4951 12.8742 32.3779C13.6427 31.6416 15.4357 31.0908 17.8234 30.7812C20.2111 30.4717 21.2218 30.3125 23.4503 30.3125C25.6789 30.3125 26.5871 30.4102 29.0773 30.7822C31.5675 31.1543 33.4494 31.7119 34.0265 32.3789C35.0793 33.5742 33.5099 34.7412 32.1847 34.9023V34.8965ZM43.6593 25.9717C43.464 26.8975 42.3898 27.1865 41.3585 27.1865C39.6342 27.1869 37.9112 27.0871 36.1984 26.8877C35.8996 26.8594 35.7609 26.335 36.0636 26.0967C36.6212 25.6582 37.6261 25.1289 39.0021 24.7236C41.0802 24.1113 42.2785 23.8662 43.3078 24.0703C43.5587 24.1201 43.6916 24.3896 43.7072 24.5586C43.7761 25.029 43.7599 25.508 43.6593 25.9727V25.9717Z" fill="#FF0000"/>
<g opacity="0.66">
<path d="M48.5938 0.9375H47.1875C47.126 0.937498 47.065 0.94962 47.0081 0.973176C46.9513 0.996731 46.8996 1.03126 46.8561 1.07479L44.649 3.28184C44.1972 2.95111 43.6421 2.79273 43.0839 2.83528C42.5256 2.87782 42.0009 3.1185 41.6045 3.51387L33.5938 11.5246L31.5815 9.51229C31.538 9.46876 31.4863 9.43423 31.4294 9.41067C31.3725 9.38711 31.3116 9.37498 31.25 9.37498C31.1885 9.37498 31.1275 9.38711 31.0706 9.41067C31.0138 9.43423 30.9621 9.46876 30.9186 9.51229L29.0436 11.3873C29 11.4308 28.9655 11.4825 28.9419 11.5394C28.9184 11.5962 28.9062 11.6572 28.9062 11.7188C28.9062 11.7803 28.9184 11.8413 28.9419 11.8981C28.9655 11.955 29 12.0067 29.0436 12.0502L29.6496 12.6562L28.5237 13.7822C28.1277 14.1783 27.8866 14.703 27.844 15.2615C27.8014 15.82 27.9602 16.3752 28.2916 16.8268L26.6998 18.4185C26.6288 18.4895 26.5825 18.5813 26.5677 18.6806C26.5528 18.7798 26.5702 18.8812 26.6172 18.9698L22.4811 23.106C22.4375 23.1496 22.403 23.2012 22.3794 23.2581C22.3559 23.315 22.3438 23.3759 22.3438 23.4375C22.3438 23.4991 22.3559 23.56 22.3794 23.6169C22.403 23.6738 22.4375 23.7254 22.4811 23.769L22.6183 23.9062L22.2065 24.3181C21.994 24.5312 21.8553 24.8067 21.8108 25.1043C21.7662 25.4019 21.8181 25.706 21.9589 25.9719L21.0748 26.856C21.0313 26.8996 20.9967 26.9512 20.9732 27.0081C20.9496 27.065 20.9375 27.1259 20.9375 27.1875C20.9375 27.2491 20.9496 27.31 20.9732 27.3669C20.9967 27.4238 21.0313 27.4754 21.0748 27.519L22.4811 28.9252L23.144 28.2623L22.0691 27.1875L22.5781 26.6786L23.6932 27.7936C23.9571 28.0569 24.3147 28.2047 24.6875 28.2047C25.0603 28.2047 25.4179 28.0569 25.6819 27.7936L26.0938 27.3817L26.2311 27.519C26.2746 27.5625 26.3263 27.597 26.3831 27.6206C26.44 27.6441 26.501 27.6563 26.5625 27.6563C26.6241 27.6563 26.685 27.6441 26.7419 27.6206C26.7988 27.597 26.8505 27.5625 26.894 27.519L31.0302 23.3828C31.1188 23.4298 31.2202 23.4472 31.3194 23.4324C31.4187 23.4175 31.5105 23.3712 31.5815 23.3002L33.1733 21.7084C33.6251 22.0391 34.1802 22.1975 34.7384 22.155C35.2967 22.1124 35.8214 21.8717 36.2178 21.4764L37.3438 20.3504L37.9498 20.9565C37.9933 21 38.045 21.0345 38.1019 21.0581C38.1588 21.0816 38.2197 21.0938 38.2813 21.0938C38.3428 21.0938 38.4038 21.0816 38.4607 21.0581C38.5175 21.0345 38.5692 21 38.6127 20.9565L40.4877 19.0815C40.5313 19.0379 40.5658 18.9863 40.5894 18.9294C40.6129 18.8725 40.625 18.8116 40.625 18.75C40.625 18.6884 40.6129 18.6275 40.5894 18.5706C40.5658 18.5137 40.5313 18.4621 40.4877 18.4185L38.4754 16.4062L46.4861 8.39555C46.8821 7.99946 47.1232 7.47469 47.1658 6.91623C47.2084 6.35776 47.0496 5.8025 46.7182 5.35096L48.9252 3.14396C48.9688 3.10044 49.0033 3.04876 49.0268 2.99189C49.0504 2.93501 49.0625 2.87406 49.0625 2.8125V1.40625C49.0625 1.28193 49.0131 1.1627 48.9252 1.07479C48.8373 0.986886 48.7181 0.9375 48.5938 0.9375ZM37.0692 9.375L37.8125 8.63168L41.3683 12.1875L40.625 12.9308L37.0692 9.375ZM39.9621 13.5938L39.2188 14.3371L35.6629 10.7812L36.4063 10.0379L39.9621 13.5938ZM38.4754 7.96875L39.2188 7.22543L42.7746 10.7812L42.0313 11.5246L38.4754 7.96875ZM39.8817 6.5625L40.625 5.81918L44.1808 9.375L43.4375 10.1183L39.8817 6.5625ZM28.9063 17.5379L30.3527 18.9844L29.1406 20.1964L27.6942 18.75L28.9063 17.5379ZM25.019 27.1306C24.931 27.2184 24.8118 27.2677 24.6875 27.2677C24.5632 27.2677 24.444 27.2184 24.3561 27.1306L22.8694 25.6439C22.7816 25.5559 22.7323 25.4368 22.7323 25.3125C22.7323 25.1882 22.7816 25.0691 22.8694 24.9811L23.2813 24.5692L25.4308 26.7188L25.019 27.1306ZM26.5625 26.5246L23.4754 23.4375L24.2188 22.6942L26.6998 25.1752L27.3627 24.5123L24.8817 22.0312L25.625 21.2879L28.1061 23.769L28.769 23.106L26.2879 20.625L27.2656 19.6473L30.3527 22.7344L26.5625 26.5246ZM31.25 22.3059L29.8036 20.8594L31.0156 19.6473L32.4621 21.0938L31.25 22.3059ZM35.555 20.8134C35.291 21.0768 34.9334 21.2247 34.5606 21.2247C34.1877 21.2247 33.8301 21.0768 33.5662 20.8134L29.1866 16.4338C28.9229 16.1701 28.7747 15.8124 28.7747 15.4395C28.7747 15.0665 28.9229 14.7088 29.1866 14.4451L30.3125 13.3192L36.6808 19.6875L35.555 20.8134ZM38.2813 19.9621L37.6755 19.3563L30.6442 12.325L30.0379 11.7188L31.25 10.5066L33.2621 12.5187L37.4809 16.7375L39.4933 18.75L38.2813 19.9621ZM34.2567 12.1875L35 11.4442L38.5558 15L37.8125 15.7433L34.2567 12.1875ZM45.8231 7.73262L44.8438 8.71207L41.2879 5.15625L42.2673 4.1768C42.5313 3.91347 42.8889 3.76559 43.2617 3.76559C43.6346 3.76559 43.9922 3.91347 44.2561 4.1768L45.8232 5.74395C46.0869 6.00767 46.2351 6.36534 46.2351 6.73828C46.2351 7.11123 46.0869 7.4689 45.8232 7.73262H45.8231ZM48.125 2.61838L46.0742 4.66916L45.3309 3.92578L47.3817 1.875H48.125V2.61838Z" fill="black"/>
<path d="M30.6439 14.6686L29.981 15.3315L32.7934 18.144L33.4564 17.4811L30.6439 14.6686Z" fill="black"/>
<path d="M34.3939 18.4184L33.731 19.0813L34.6684 20.0188L35.3314 19.3559L34.3939 18.4184Z" fill="black"/>
</g>
</svg>
