<svg width="11" height="9" viewBox="0 0 11 9" fill="none" xmlns="http://www.w3.org/2000/svg">
<path d="M10.4328 2.98231L7.92298 0.209356C7.80164 0.0753053 7.63709 0 7.46552 0C7.29395 0 7.1294 0.0753053 7.00806 0.209356C6.88676 0.343447 6.81862 0.52529 6.81862 0.714895C6.81862 0.9045 6.88676 1.08634 7.00806 1.22043L9.30828 3.76386H0.647038C0.475433 3.76386 0.310856 3.83919 0.189513 3.97329C0.0681698 4.10739 0 4.28926 0 4.47891C0 4.66855 0.0681698 4.85042 0.189513 4.98452C0.310856 5.11862 0.475433 5.19395 0.647038 5.19395H9.34775L7.00806 7.77885C6.94791 7.84526 6.90018 7.92412 6.86762 8.01093C6.83506 8.09773 6.8183 8.19078 6.8183 8.28475C6.8183 8.37872 6.83506 8.47176 6.86762 8.55857C6.90018 8.64537 6.94791 8.72424 7.00806 8.79064C7.1294 8.9247 7.29395 9 7.46552 9C7.63709 9 7.80164 8.9247 7.92298 8.79064L10.4335 6.01697C10.7964 5.61381 11.0001 5.0682 11 4.49949C10.9999 3.93079 10.796 3.38529 10.4328 2.98231Z" fill="#757575"/>
</svg>
