<svg width="12" height="12" viewBox="0 0 12 12" fill="none" xmlns="http://www.w3.org/2000/svg">
<circle cx="6" cy="6" r="6" fill="#7AC751"/>
<path d="M6.807 8C6.76033 8 6.72067 7.986 6.688 7.958C6.66 7.92533 6.646 7.88567 6.646 7.839V6.831H4.378C4.33133 6.831 4.29167 6.817 4.259 6.789C4.231 6.75633 4.217 6.71667 4.217 6.67V6.39C4.217 6.32 4.24267 6.25 4.294 6.18L6.394 3.219C6.41733 3.18167 6.45233 3.15367 6.499 3.135C6.54567 3.11167 6.597 3.1 6.653 3.1H7.157C7.20367 3.1 7.241 3.11633 7.269 3.149C7.30167 3.177 7.318 3.21433 7.318 3.261V6.222H7.948C7.99467 6.222 8.03433 6.23833 8.067 6.271C8.09967 6.299 8.116 6.33633 8.116 6.383V6.67C8.116 6.71667 8.09967 6.75633 8.067 6.789C8.039 6.817 8.00167 6.831 7.955 6.831H7.318V7.839C7.318 7.88567 7.30167 7.92533 7.269 7.958C7.241 7.986 7.20367 8 7.157 8H6.807ZM6.653 6.236V3.835L4.966 6.236H6.653Z" fill="white"/>
</svg>
