<svg width="50" height="50" viewBox="0 0 50 50" fill="none" xmlns="http://www.w3.org/2000/svg">
<g clip-path="url(#clip0_152_7)">
<rect x="13.333" y="8.33301" width="23.3333" height="33.3333" fill="white"/>
<path d="M0 25C0 29.9445 1.46622 34.778 4.21326 38.8892C6.96029 43.0005 10.8648 46.2048 15.4329 48.097C20.0011 49.9892 25.0277 50.4843 29.8773 49.5196C34.7268 48.555 39.1813 46.174 42.6777 42.6777C46.174 39.1813 48.555 34.7268 49.5196 29.8773C50.4842 25.0277 49.9892 20.0011 48.097 15.4329C46.2048 10.8648 43.0005 6.96029 38.8892 4.21326C34.778 1.46623 29.9445 4.7684e-07 25 4.7684e-07C18.3696 4.7684e-07 12.0107 2.63392 7.32233 7.32233C2.63392 12.0107 0 18.3696 0 25ZM25.705 10.295L33.705 18.295C33.8928 18.4817 33.9989 18.7352 34 19C34.0002 19.1982 33.9414 19.392 33.8312 19.5567C33.721 19.7215 33.5644 19.8498 33.3811 19.9253C33.1979 20.0008 32.9964 20.0202 32.8021 19.981C32.6078 19.9418 32.4296 19.8457 32.29 19.705L26 13.415L26 39C26 39.2652 25.8946 39.5196 25.7071 39.7071C25.5196 39.8946 25.2652 40 25 40C24.7348 40 24.4804 39.8946 24.2929 39.7071C24.1054 39.5196 24 39.2652 24 39L24 13.415L17.705 19.71C17.5174 19.8976 17.2629 20.0031 16.9975 20.0031C16.7321 20.0031 16.4776 19.8976 16.29 19.71C16.1024 19.5224 15.9969 19.2679 15.9969 19.0025C15.9969 18.7371 16.1024 18.4826 16.29 18.295L24.29 10.295C24.3829 10.202 24.4932 10.1283 24.6146 10.0779C24.736 10.0276 24.8661 10.0017 24.9975 10.0017C25.1289 10.0017 25.259 10.0276 25.3804 10.0779C25.5018 10.1283 25.6121 10.202 25.705 10.295Z" fill="#8C2E2D"/>
</g>
<defs>
<clipPath id="clip0_152_7">
<rect width="50" height="50" fill="white"/>
</clipPath>
</defs>
</svg>
