<svg width="40" height="40" viewBox="0 0 40 40" fill="none" xmlns="http://www.w3.org/2000/svg">
<path d="M20 9.53125C17.4156 9.53125 15.3125 11.6344 15.3125 14.2188C15.3125 16.8031 17.4156 18.9062 20 18.9062C22.5844 18.9062 24.6875 16.8031 24.6875 14.2188C24.6875 11.6344 22.5844 9.53125 20 9.53125ZM20 9.53125C17.4156 9.53125 15.3125 11.6344 15.3125 14.2188C15.3125 16.8031 17.4156 18.9062 20 18.9062C22.5844 18.9062 24.6875 16.8031 24.6875 14.2188C24.6875 11.6344 22.5844 9.53125 20 9.53125ZM20 0C12.2461 0 5.9375 6.30859 5.9375 14.0625C5.9375 21.7523 14.2211 33.3758 19.1172 38.9875L20 40L20.8828 38.9875C25.657 33.5156 34.0625 21.8172 34.0625 14.0625C34.0625 6.30859 27.7539 0 20 0ZM20 21.25C16.1227 21.25 12.9688 18.0961 12.9688 14.2188C12.9688 10.3414 16.1227 7.1875 20 7.1875C23.8773 7.1875 27.0312 10.3414 27.0312 14.2188C27.0312 18.0961 23.8773 21.25 20 21.25ZM20 9.53125C17.4156 9.53125 15.3125 11.6344 15.3125 14.2188C15.3125 16.8031 17.4156 18.9062 20 18.9062C22.5844 18.9062 24.6875 16.8031 24.6875 14.2188C24.6875 11.6344 22.5844 9.53125 20 9.53125ZM20 9.53125C17.4156 9.53125 15.3125 11.6344 15.3125 14.2188C15.3125 16.8031 17.4156 18.9062 20 18.9062C22.5844 18.9062 24.6875 16.8031 24.6875 14.2188C24.6875 11.6344 22.5844 9.53125 20 9.53125ZM20 9.53125C17.4156 9.53125 15.3125 11.6344 15.3125 14.2188C15.3125 16.8031 17.4156 18.9062 20 18.9062C22.5844 18.9062 24.6875 16.8031 24.6875 14.2188C24.6875 11.6344 22.5844 9.53125 20 9.53125Z" fill="#FF0000"/>
</svg>
