<svg width="30" height="30" viewBox="0 0 30 30" fill="none" xmlns="http://www.w3.org/2000/svg">
<g clip-path="url(#clip0_6_24)">
<path d="M15 30C23.2843 30 30 23.2843 30 15C30 6.71573 23.2843 0 15 0C6.71573 0 0 6.71573 0 15C0 23.2843 6.71573 30 15 30Z" fill="url(#paint0_linear_6_24)"/>
<path d="M21.5499 9.57075C21.6667 8.81561 20.9488 8.21958 20.2774 8.51437L6.90452 14.3857C6.42303 14.5972 6.45825 15.3265 6.95763 15.4855L9.7154 16.3638C10.2418 16.5314 10.8117 16.4447 11.2714 16.1272L17.4891 11.8315C17.6766 11.702 17.8809 11.9686 17.7207 12.1337L13.2451 16.7481C12.8109 17.1957 12.8971 17.9542 13.4194 18.2817L18.4303 21.424C18.9923 21.7764 19.7153 21.4224 19.8204 20.7432L21.5499 9.57075Z" fill="white"/>
</g>
<defs>
<linearGradient id="paint0_linear_6_24" x1="15" y1="0" x2="15" y2="30" gradientUnits="userSpaceOnUse">
<stop stop-color="#37BBFE"/>
<stop offset="1" stop-color="#007DBB"/>
</linearGradient>
<clipPath id="clip0_6_24">
<rect width="30" height="30" fill="white"/>
</clipPath>
</defs>
</svg>
