<svg width="30" height="30" viewBox="0 0 30 30" fill="none" xmlns="http://www.w3.org/2000/svg">
<path d="M26.4844 3.98438H3.51562C1.57711 3.98438 0 5.56148 0 7.5V22.5C0 24.4385 1.57711 26.0156 3.51562 26.0156H26.4844C28.4229 26.0156 30 24.4385 30 22.5V7.5C30 5.56148 28.4229 3.98438 26.4844 3.98438ZM27.6562 22.5C27.6562 23.1462 27.1305 23.6719 26.4844 23.6719H3.51562C2.86945 23.6719 2.34375 23.1462 2.34375 22.5V7.5C2.34375 6.85383 2.86945 6.32812 3.51562 6.32812H26.4844C27.1305 6.32812 27.6562 6.85383 27.6562 7.5V22.5Z" fill="white"/>
<path d="M27.4574 5.44556L15.0002 14.7114L2.54291 5.44556L1.14404 7.32612L15.0002 17.6324L28.8563 7.32612L27.4574 5.44556Z" fill="white"/>
</svg>
