<svg width="40" height="40" viewBox="0 0 40 40" fill="none" xmlns="http://www.w3.org/2000/svg">
<path d="M33.75 20C33.75 19.6544 34.0294 19.375 34.375 19.375H36.2344C36.0825 15.3594 34.475 11.7175 31.9225 8.96187L30.6069 10.2769C30.3625 10.5213 29.9675 10.5213 29.7231 10.2769C29.4787 10.0325 29.4787 9.6375 29.7231 9.39312L31.0381 8.07813C28.2819 5.525 24.64 3.91813 20.6244 3.76562V5.625C20.6244 5.97062 20.345 6.25 19.9994 6.25C19.6537 6.25 19.3744 5.97062 19.3744 5.625V3.76562C15.3587 3.9175 11.7169 5.525 8.96125 8.07813L10.2762 9.39312C10.5206 9.6375 10.5206 10.0319 10.2762 10.2769C10.0319 10.5213 9.63687 10.5213 9.3925 10.2769L8.0775 8.96187C5.525 11.7187 3.91812 15.3606 3.76562 19.3763H5.62437C5.97 19.3763 6.24875 19.655 6.24937 20.0012C6.24937 20.3462 5.97 20.6256 5.62437 20.6262H3.76562C3.91812 24.6419 5.52562 28.2831 8.07812 31.0387L9.39312 29.7237C9.6375 29.4794 10.0313 29.4794 10.2769 29.7237C10.5206 29.9675 10.5206 30.3625 10.2769 30.6075L8.96187 31.9225C11.7175 34.475 15.3587 36.0819 19.3744 36.2337L19.375 34.375C19.375 34.0294 19.6537 33.7506 20 33.75C20.3444 33.75 20.6237 34.0294 20.625 34.375L20.6244 36.2337C24.64 36.0819 28.2812 34.4744 31.0369 31.9212L29.7219 30.6062C29.4775 30.3612 29.4775 29.9669 29.7219 29.7219C29.9656 29.4781 30.3606 29.4781 30.6062 29.7219L31.9206 31.0369C34.4737 28.2812 36.0806 24.64 36.2325 20.6244H34.375C34.0294 20.625 33.75 20.3456 33.75 20ZM28.3969 28.3969C27.6644 29.1294 26.4781 29.13 25.7456 28.3975L20.43 23.0819C20.2881 23.1013 20.1469 23.125 20 23.125C18.2737 23.125 16.875 21.7263 16.875 20C16.875 18.9806 17.37 18.085 18.125 17.5137V8.75C18.125 7.71437 18.9644 6.875 20 6.875C21.0356 6.875 21.875 7.71437 21.875 8.75V17.5137C22.63 18.0844 23.125 18.9806 23.125 20C23.125 20.1475 23.1012 20.2881 23.0819 20.43L28.3969 25.745C29.1287 26.4775 29.1287 27.6644 28.3969 28.3969Z" fill="white"/>
<path d="M20 0C8.95437 0 0 8.95437 0 20C0 31.0456 8.95437 40 20 40C31.0456 40 40 31.0456 40 20C40 8.95437 31.0456 0 20 0ZM20 37.5C10.335 37.5 2.5 29.665 2.5 20C2.5 10.335 10.335 2.5 20 2.5C29.665 2.5 37.5 10.335 37.5 20C37.5 29.665 29.665 37.5 20 37.5Z" fill="white"/>
</svg>
