<svg width="668" height="419" viewBox="0 0 668 419" fill="none" xmlns="http://www.w3.org/2000/svg">
<g clip-path="url(#clip0_191243_2305)">
<rect width="668" height="419" fill="#ECECEC"/>
<path d="M262.641 341H259.418L255.129 333.992L250.805 341H247.805L253.488 332.117L248.168 323.867H251.285L255.246 330.348L259.207 323.867H262.23L256.875 332.164L262.641 341ZM269.883 335.668V333.441H291.961V335.668H269.883ZM314.039 341H310.816L306.527 333.992L302.203 341H299.203L304.887 332.117L299.566 323.867H302.684L306.645 330.348L310.605 323.867H313.629L308.273 332.164L314.039 341ZM314.086 328.039H317.086L319.723 335.387C320.121 336.434 320.387 337.418 320.52 338.34H320.613C320.684 337.91 320.812 337.391 321 336.781C321.188 336.164 322.18 333.25 323.977 328.039H326.953L321.41 342.723C320.402 345.418 318.723 346.766 316.371 346.766C315.762 346.766 315.168 346.699 314.59 346.566V344.387C315.004 344.48 315.477 344.527 316.008 344.527C317.336 344.527 318.27 343.758 318.809 342.219L319.289 341L314.086 328.039ZM341.355 345.582H338.789V341H329.906V345.582H327.363V338.867H328.418C329.34 337.547 330.07 335.953 330.609 334.086C331.156 332.211 331.48 330.195 331.582 328.039H339.457V338.867H341.355V345.582ZM336.75 338.867V330.148H333.961C333.812 331.758 333.5 333.344 333.023 334.906C332.555 336.469 331.98 337.789 331.301 338.867H336.75ZM355.254 334.496C355.254 336.613 354.711 338.266 353.625 339.453C352.539 340.641 351.027 341.234 349.09 341.234C347.879 341.234 346.809 340.961 345.879 340.414C344.949 339.867 344.234 339.082 343.734 338.059C343.234 337.035 342.984 335.848 342.984 334.496C342.984 332.395 343.523 330.754 344.602 329.574C345.68 328.395 347.199 327.805 349.16 327.805C351.035 327.805 352.52 328.41 353.613 329.621C354.707 330.824 355.254 332.449 355.254 334.496ZM345.82 334.496C345.82 337.488 346.926 338.984 349.137 338.984C351.324 338.984 352.418 337.488 352.418 334.496C352.418 331.535 351.316 330.055 349.113 330.055C347.957 330.055 347.117 330.438 346.594 331.203C346.078 331.969 345.82 333.066 345.82 334.496ZM364.816 334.332V328.039H367.383V334.332L372.375 328.039H375.281L370.184 334.309L375.738 341H372.703L367.383 334.426V341H364.816V334.426L359.508 341H356.484L362.027 334.309L356.941 328.039H359.848L364.816 334.332ZM380.496 328.039V333.242H386.602V328.039H389.355V341H386.602V335.41H380.496V341H377.742V328.039H380.496ZM395.941 328.039V334.684C395.941 335.457 395.879 336.594 395.754 338.094L402.258 328.039H405.621V341H402.973V334.473C402.973 334.113 402.992 333.531 403.031 332.727C403.078 331.922 403.117 331.336 403.148 330.969L396.668 341H393.305V328.039H395.941ZM417.586 328.039H420.609L415.254 334.285L421.066 341H417.902L412.301 334.426V341H409.547V328.039H412.301V334.332L417.586 328.039Z" fill="#666666"/>
<path d="M256.736 125.804C262.808 125.804 267.749 120.863 267.749 114.791C267.749 108.719 262.808 103.778 256.736 103.778C250.664 103.778 245.723 108.719 245.723 114.791C245.723 120.863 250.664 125.804 256.736 125.804ZM256.736 110.071C259.339 110.071 261.456 112.188 261.456 114.791C261.456 117.394 259.339 119.511 256.736 119.511C254.133 119.511 252.016 117.394 252.016 114.791C252.016 112.188 254.134 110.071 256.736 110.071Z" fill="#999999"/>
<path d="M399.908 168.284C399.908 174.357 404.849 179.298 410.922 179.298C416.994 179.298 421.935 174.357 421.935 168.284C421.935 162.212 416.994 157.271 410.922 157.271C404.849 157.271 399.908 162.212 399.908 168.284ZM410.922 163.564C413.525 163.564 415.642 165.681 415.642 168.284C415.642 170.887 413.525 173.004 410.922 173.004C408.318 173.004 406.202 170.887 406.202 168.284C406.202 165.681 408.319 163.564 410.922 163.564Z" fill="#999999"/>
<path d="M423.508 134.087C425.476 134.087 427.071 132.492 427.071 130.524C427.071 128.557 425.476 126.961 423.508 126.961C421.54 126.961 419.945 128.557 419.945 130.524C419.945 132.492 421.54 134.087 423.508 134.087Z" fill="#999999"/>
<path d="M272.469 146.674C274.437 146.674 276.032 145.079 276.032 143.111C276.032 141.143 274.437 139.548 272.469 139.548C270.501 139.548 268.906 141.143 268.906 143.111C268.906 145.079 270.501 146.674 272.469 146.674Z" fill="#999999"/>
<path d="M388.758 119.649C389.372 120.264 390.177 120.571 390.982 120.571C391.787 120.571 392.593 120.264 393.207 119.649L396.763 116.094L400.318 119.649C400.933 120.264 401.738 120.571 402.543 120.571C403.348 120.571 404.153 120.264 404.768 119.649C405.997 118.421 405.997 116.429 404.768 115.2L401.212 111.644L404.768 108.088C405.997 106.86 405.997 104.868 404.768 103.639C403.539 102.41 401.547 102.41 400.318 103.639L396.763 107.195L393.207 103.639C391.978 102.41 389.986 102.41 388.758 103.639C387.529 104.868 387.529 106.86 388.758 108.088L392.313 111.644L388.758 115.2C387.529 116.429 387.529 118.42 388.758 119.649Z" fill="#999999"/>
<path d="M244.009 185.729C244.624 186.344 245.429 186.651 246.234 186.651C247.039 186.651 247.844 186.344 248.459 185.729L252.015 182.174L255.57 185.729C256.185 186.344 256.99 186.651 257.795 186.651C258.6 186.651 259.405 186.344 260.02 185.729C261.248 184.501 261.248 182.509 260.02 181.28L256.464 177.724L260.02 174.169C261.248 172.94 261.248 170.948 260.02 169.719C258.791 168.49 256.799 168.49 255.57 169.719L252.015 173.275L248.459 169.719C247.23 168.49 245.238 168.49 244.009 169.719C242.781 170.948 242.781 172.94 244.009 174.169L247.565 177.724L244.009 181.28C242.781 182.509 242.781 184.5 244.009 185.729Z" fill="#999999"/>
<path d="M351.135 187.164C352.873 187.164 354.282 185.755 354.282 184.018C354.282 182.28 352.873 180.871 351.135 180.871C349.397 180.871 347.988 182.28 347.988 184.018C347.988 185.755 349.397 187.164 351.135 187.164Z" fill="#999999"/>
<path d="M319.668 187.164C321.406 187.164 322.815 185.755 322.815 184.018C322.815 182.28 321.406 180.871 319.668 180.871C317.93 180.871 316.521 182.28 316.521 184.018C316.521 185.755 317.93 187.164 319.668 187.164Z" fill="#999999"/>
<path d="M422.25 234.994C418.258 231.998 417.923 227.158 417.536 221.556C416.93 212.823 416.178 201.957 398.727 199.775C389.834 198.672 381.017 201.521 373.889 207.811C367.963 213.044 363.779 220.181 361.83 227.901L349.563 222.327V219.789C349.563 219.76 349.548 219.735 349.547 219.706C361.59 213.952 370.746 203.23 374.461 190.305C376.553 190.36 378.48 189.797 380.382 188.612C383.301 186.79 385.277 183.827 385.664 180.681C386.054 177.528 385.077 174.366 382.991 172.003C381.556 170.383 379.694 169.237 377.647 168.675C377.641 168.122 377.619 166.111 377.612 165.902C377.769 165.525 377.884 151.877 377.884 151.877C378.613 151.79 379.322 151.658 379.992 151.426C382.352 150.612 384.153 148.94 385.339 146.46H385.343C389.436 137.906 382.121 125.788 368.224 116.458C369.198 113.992 369.299 111.304 368.411 108.783C367.431 106.009 365.434 103.781 362.782 102.511C360.13 101.236 357.143 101.076 354.362 102.053C351.838 102.944 349.806 104.708 348.497 107.01C332.517 102.03 318.489 103.925 314.39 112.48C313.467 114.407 313.268 116.421 313.716 118.371C300.249 124.528 292.869 136.169 292.926 151.361L292.966 156.557C292.997 159.498 293.074 165.007 293.133 165.253C293.132 165.299 293.165 167.9 293.165 168.668C291.272 169.181 289.548 170.198 288.147 171.649C286.054 173.822 284.96 176.68 285.068 179.696C285.184 183.064 287.096 186.315 290.175 188.393C292.12 189.705 294.071 190.347 296.191 190.313C299.483 202.337 307.464 212.428 318.113 218.555C318.112 218.581 318.098 218.603 318.098 218.63V222.327L293.02 233.724C281.494 238.963 274.045 250.671 274.045 263.546V289.429C274.045 291.169 275.452 292.576 277.192 292.576H390.472C392.211 292.576 393.618 291.169 393.618 289.429V274.941C395.168 275.136 396.737 275.269 398.338 275.269C412.237 275.269 426.975 266.275 430.524 255.63C431.96 251.318 432.796 242.904 422.25 234.994ZM356.452 107.991C357.645 107.573 358.923 107.646 360.057 108.184C361.949 109.093 362.94 111.101 362.675 113.074C361.387 112.366 360.067 111.676 358.698 111.02C357.343 110.371 355.99 109.779 354.643 109.224C355.151 108.69 355.738 108.242 356.452 107.991ZM320.063 115.197C321.479 112.244 325.901 110.526 332.102 110.526C338.583 110.526 347.009 112.4 355.982 116.696C373.54 125.11 382.553 137.703 379.662 143.744C379.085 144.952 378.436 145.305 377.935 145.48C374.273 146.734 365.585 142.435 356.366 137.887C354.102 136.769 351.727 135.595 349.243 134.406C346.806 133.238 344.391 132.116 342.049 131.028C331.887 126.305 321.383 121.419 319.893 117.268C319.648 116.582 319.697 115.961 320.063 115.197ZM316.914 123.82C321.328 128.327 329.566 132.166 339.394 136.735C341.717 137.813 344.111 138.926 346.526 140.085C348.984 141.261 351.338 142.423 353.582 143.529C360.723 147.057 366.654 149.978 371.589 151.267V163.165C362.174 170.245 351.526 172.928 341.462 170.728C332.44 168.758 324.958 163.04 320.938 155.041C320.48 154.131 319.61 153.498 318.606 153.345C317.595 153.182 316.578 153.529 315.87 154.26C311.811 158.439 305.884 160.95 299.292 161.362C299.289 159.843 299.271 158.19 299.255 156.497L299.215 151.337C299.156 135.121 308.618 127.443 316.914 123.82ZM301.647 186.089C301.466 185.207 300.915 184.445 300.135 183.993C299.354 183.545 298.417 183.458 297.56 183.738C296.343 184.153 295.218 184.209 293.694 183.176C292.3 182.236 291.402 180.816 291.352 179.473C291.306 178.177 291.776 176.95 292.674 176.019C293.572 175.09 294.776 174.578 296.069 174.578C296.92 174.578 297.768 174.215 298.362 173.607C299.236 172.708 299.505 171.937 299.451 167.643C306.183 167.265 312.428 165.07 317.322 161.352C322.469 169.222 330.584 174.796 340.119 176.876C342.873 177.479 345.654 177.777 348.441 177.777C356.267 177.775 364.116 175.392 371.422 170.855C371.541 172.293 371.828 172.981 372.465 173.625C373.055 174.224 373.893 174.578 374.736 174.578C376.088 174.578 377.378 175.158 378.273 176.172C379.182 177.199 379.588 178.526 379.419 179.912C379.259 181.19 378.374 182.444 377.053 183.271C375.725 184.098 374.601 184.224 373.178 183.723C372.329 183.412 371.386 183.501 370.6 183.937C369.81 184.377 369.247 185.135 369.054 186.018C365.99 200.086 355.592 211.578 341.914 216.01L340.525 216.464C336.612 217.733 332.615 217.78 328.97 216.603C315.057 212.126 304.587 200.433 301.647 186.089ZM327.041 222.595C329.425 223.363 331.906 223.744 334.422 223.744C337.093 223.744 339.8 223.314 342.468 222.45L343.27 222.188V223.351C343.27 228.556 339.035 232.791 333.83 232.791C328.625 232.791 324.39 228.556 324.39 223.351V221.552C325.274 221.898 326.129 222.301 327.041 222.595ZM387.323 286.284H368.443V270.551C368.443 268.812 367.035 267.404 365.296 267.404C363.557 267.404 362.149 268.812 362.149 270.551V286.284H302.363V270.551C302.363 268.812 300.955 267.404 299.216 267.404C297.477 267.404 296.069 268.812 296.069 270.551V286.284H280.336V263.548C280.336 253.134 286.337 243.675 295.624 239.453L319.119 228.776C321.339 234.774 327.069 239.084 333.829 239.084C340.591 239.084 346.319 234.774 348.54 228.775L360.751 234.323C360.662 235.384 360.576 236.445 360.576 237.511C360.576 254.502 371.858 268.897 387.323 273.623V286.284ZM424.551 253.641C421.875 261.667 409.38 268.978 398.336 268.978C380.986 268.978 366.869 254.861 366.869 237.511C366.869 228.05 371.051 218.711 378.055 212.531C383.008 208.158 388.93 205.835 394.989 205.835C395.973 205.835 396.959 205.896 397.946 206.019C410.259 207.559 410.677 213.612 411.258 221.989C411.688 228.231 412.177 235.304 418.476 240.027C424.109 244.253 426.152 248.835 424.551 253.641Z" fill="#999999"/>
<path d="M410.922 240.787C405.788 240.787 401.611 244.963 401.611 250.098C401.611 255.229 405.788 259.405 410.922 259.405C416.057 259.405 420.233 255.229 420.233 250.098C420.233 244.963 416.058 240.787 410.922 240.787ZM410.922 253.112C409.26 253.112 407.905 251.76 407.905 250.098C407.905 248.435 409.26 247.08 410.922 247.08C412.585 247.08 413.94 248.435 413.94 250.098C413.94 251.76 412.585 253.112 410.922 253.112Z" fill="#999999"/>
<path d="M392.042 210.396C387.501 210.396 383.807 214.089 383.807 218.631C383.807 223.173 387.5 226.867 392.042 226.867C396.584 226.867 400.278 223.173 400.278 218.631C400.278 214.089 396.584 210.396 392.042 210.396ZM392.042 220.573C390.973 220.573 390.1 219.701 390.1 218.631C390.1 217.561 390.972 216.689 392.042 216.689C393.112 216.689 393.985 217.561 393.985 218.631C393.985 219.701 393.112 220.573 392.042 220.573Z" fill="#999999"/>
<path d="M386.118 235.938C386.118 231.396 382.424 227.702 377.882 227.702C373.34 227.702 369.646 231.395 369.646 235.938C369.646 240.48 373.34 244.173 377.882 244.173C382.424 244.173 386.118 240.48 386.118 235.938ZM377.882 237.88C376.813 237.88 375.94 237.007 375.94 235.938C375.94 234.868 376.812 233.995 377.882 233.995C378.952 233.995 379.824 234.868 379.824 235.938C379.824 237.007 378.952 237.88 377.882 237.88Z" fill="#999999"/>
<path d="M388.896 248.155C384.354 248.155 380.66 251.849 380.66 256.391C380.66 260.933 384.354 264.626 388.896 264.626C393.438 264.626 397.131 260.933 397.131 256.391C397.131 251.849 393.438 248.155 388.896 248.155ZM388.896 258.333C387.827 258.333 386.953 257.461 386.953 256.391C386.953 255.321 387.826 254.449 388.896 254.449C389.966 254.449 390.838 255.321 390.838 256.391C390.838 257.461 389.966 258.333 388.896 258.333Z" fill="#999999"/>
<path d="M265.302 215.131C264.719 214.554 264.126 213.967 263.548 213.361C263.547 213.36 263.547 213.36 263.547 213.359C263.546 213.359 263.546 213.359 263.546 213.358C261.134 210.835 259.527 208.536 259.527 205.528C259.527 201.53 257.452 200.433 256.214 200.136C251.307 198.894 245.56 208.525 242.573 214.348C240.779 217.847 238.637 222.746 238.637 226.209C238.637 232.315 242.004 237.599 246.944 240.459L245.124 280.882C244.976 284.148 246.119 287.308 248.261 289.545C250.129 291.502 252.581 292.578 255.162 292.578C257.743 292.578 260.195 291.502 262.064 289.545C264.206 287.308 265.349 284.149 265.201 280.882L263.381 240.459C268.32 237.598 271.689 232.314 271.689 226.209C271.688 221.455 268.295 218.094 265.302 215.131ZM253.564 208.622C254.147 211.256 255.429 213.447 256.913 215.333C255.801 216.16 254.704 216.596 253.631 216.639C252.187 216.633 250.62 215.966 249.342 215.041C250.865 212.334 252.362 210.15 253.564 208.622ZM258.914 281.165C258.985 282.722 258.474 284.195 257.516 285.196C257.042 285.694 256.247 286.284 255.162 286.284C254.077 286.284 253.281 285.694 252.809 285.196C251.85 284.195 251.34 282.722 251.411 281.165L253.15 242.531C253.817 242.613 254.473 242.735 255.162 242.735C255.851 242.735 256.507 242.614 257.175 242.531L258.914 281.165ZM255.161 236.442C249.519 236.442 244.928 231.851 244.928 226.209C244.928 225.317 245.396 223.42 246.549 220.686C248.815 222.136 251.12 222.936 253.447 222.936C253.588 222.936 253.729 222.932 253.874 222.926C256.451 222.827 258.908 221.815 261.216 219.941C263.49 222.2 265.394 224.181 265.394 226.208C265.394 231.851 260.803 236.442 255.161 236.442Z" fill="#999999"/>
</g>
<defs>
<clipPath id="clip0_191243_2305">
<rect width="668" height="419" fill="white"/>
</clipPath>
</defs>
</svg>
