<svg width="290" height="181" viewBox="0 0 290 181" fill="none" xmlns="http://www.w3.org/2000/svg">
<rect width="290" height="181" fill="#ECECEC"/>
<path d="M91.6055 153H89.1885L85.9717 147.744L82.7285 153H80.4785L84.7412 146.338L80.751 140.15H83.0889L86.0596 145.011L89.0303 140.15H91.2979L87.2812 146.373L91.6055 153ZM97.0371 149.001V147.331H113.596V149.001H97.0371ZM130.154 153H127.737L124.521 147.744L121.277 153H119.027L123.29 146.338L119.3 140.15H121.638L124.608 145.011L127.579 140.15H129.847L125.83 146.373L130.154 153ZM130.189 143.279H132.439L134.417 148.79C134.716 149.575 134.915 150.313 135.015 151.005H135.085C135.138 150.683 135.234 150.293 135.375 149.836C135.516 149.373 136.26 147.188 137.607 143.279H139.84L135.683 154.292C134.927 156.313 133.667 157.324 131.903 157.324C131.446 157.324 131.001 157.274 130.567 157.175V155.54C130.878 155.61 131.232 155.646 131.631 155.646C132.627 155.646 133.327 155.068 133.731 153.914L134.092 153L130.189 143.279ZM150.642 156.437H148.717V153H142.055V156.437H140.147V151.4H140.938C141.63 150.41 142.178 149.215 142.582 147.814C142.992 146.408 143.235 144.896 143.312 143.279H149.218V151.4H150.642V156.437ZM147.188 151.4V144.861H145.096C144.984 146.068 144.75 147.258 144.393 148.43C144.041 149.602 143.61 150.592 143.101 151.4H147.188ZM161.065 148.122C161.065 149.71 160.658 150.949 159.844 151.84C159.029 152.73 157.896 153.176 156.442 153.176C155.534 153.176 154.731 152.971 154.034 152.561C153.337 152.15 152.801 151.562 152.426 150.794C152.051 150.026 151.863 149.136 151.863 148.122C151.863 146.546 152.268 145.315 153.076 144.431C153.885 143.546 155.024 143.104 156.495 143.104C157.901 143.104 159.015 143.558 159.835 144.466C160.655 145.368 161.065 146.587 161.065 148.122ZM153.99 148.122C153.99 150.366 154.819 151.488 156.478 151.488C158.118 151.488 158.938 150.366 158.938 148.122C158.938 145.901 158.112 144.791 156.46 144.791C155.593 144.791 154.963 145.078 154.57 145.652C154.184 146.227 153.99 147.05 153.99 148.122ZM168.237 147.999V143.279H170.162V147.999L173.906 143.279H176.086L172.263 147.981L176.429 153H174.152L170.162 148.069V153H168.237V148.069L164.256 153H161.988L166.146 147.981L162.331 143.279H164.511L168.237 147.999ZM179.997 143.279V147.182H184.576V143.279H186.642V153H184.576V148.808H179.997V153H177.932V143.279H179.997ZM191.581 143.279V148.263C191.581 148.843 191.534 149.695 191.44 150.82L196.318 143.279H198.841V153H196.854V148.104C196.854 147.835 196.869 147.398 196.898 146.795C196.934 146.191 196.963 145.752 196.986 145.477L192.126 153H189.604V143.279H191.581ZM207.814 143.279H210.082L206.065 147.964L210.425 153H208.052L203.851 148.069V153H201.785V143.279H203.851V147.999L207.814 143.279Z" fill="#666666"/>
<path d="M110.015 44.2206C112.768 44.2206 115.008 41.9803 115.008 39.2272C115.008 36.4741 112.768 34.2339 110.015 34.2339C107.262 34.2339 105.021 36.4741 105.021 39.2272C105.021 41.9803 107.262 44.2206 110.015 44.2206ZM110.015 37.0872C111.195 37.0872 112.155 38.047 112.155 39.2272C112.155 40.4074 111.195 41.3672 110.015 41.3672C108.835 41.3672 107.875 40.4074 107.875 39.2272C107.875 38.047 108.835 37.0872 110.015 37.0872Z" fill="#999999"/>
<path d="M174.93 63.4806C174.93 66.2337 177.17 68.474 179.923 68.474C182.676 68.474 184.916 66.2337 184.916 63.4806C184.916 60.7275 182.676 58.4873 179.923 58.4873C177.17 58.4873 174.93 60.7275 174.93 63.4806ZM179.923 61.3406C181.103 61.3406 182.063 62.3004 182.063 63.4806C182.063 64.6608 181.103 65.6206 179.923 65.6206C178.743 65.6206 177.783 64.6608 177.783 63.4806C177.783 62.3004 178.743 61.3406 179.923 61.3406Z" fill="#999999"/>
<path d="M185.629 47.9759C186.521 47.9759 187.244 47.2527 187.244 46.3606C187.244 45.4685 186.521 44.7452 185.629 44.7452C184.737 44.7452 184.014 45.4685 184.014 46.3606C184.014 47.2527 184.737 47.9759 185.629 47.9759Z" fill="#999999"/>
<path d="M117.149 53.6826C118.041 53.6826 118.764 52.9594 118.764 52.0672C118.764 51.1751 118.041 50.4519 117.149 50.4519C116.256 50.4519 115.533 51.1751 115.533 52.0672C115.533 52.9594 116.256 53.6826 117.149 53.6826Z" fill="#999999"/>
<path d="M169.873 41.43C170.151 41.7086 170.517 41.848 170.882 41.848C171.246 41.848 171.612 41.7086 171.89 41.43L173.502 39.8179L175.114 41.43C175.393 41.7086 175.758 41.848 176.123 41.848C176.488 41.848 176.853 41.7086 177.132 41.43C177.689 40.8729 177.689 39.9698 177.132 39.4127L175.52 37.8006L177.132 36.1884C177.689 35.6313 177.689 34.7282 177.132 34.1711C176.575 33.614 175.672 33.614 175.114 34.1711L173.502 35.7833L171.89 34.1711C171.333 33.614 170.43 33.614 169.873 34.1711C169.316 34.7282 169.316 35.6313 169.873 36.1884L171.485 37.8006L169.873 39.4127C169.316 39.9698 169.316 40.8725 169.873 41.43Z" fill="#999999"/>
<path d="M104.246 71.3901C104.525 71.6686 104.89 71.8081 105.255 71.8081C105.619 71.8081 105.985 71.6686 106.263 71.3901L107.875 69.778L109.488 71.3901C109.766 71.6686 110.131 71.8081 110.496 71.8081C110.861 71.8081 111.226 71.6686 111.505 71.3901C112.062 70.833 112.062 69.9299 111.505 69.3728L109.893 67.7607L111.505 66.1485C112.062 65.5914 112.062 64.6883 111.505 64.1312C110.948 63.5741 110.045 63.5741 109.488 64.1312L107.875 65.7433L106.263 64.1312C105.706 63.5741 104.803 63.5741 104.246 64.1312C103.689 64.6883 103.689 65.5914 104.246 66.1485L105.858 67.7607L104.246 69.3728C103.689 69.9299 103.689 70.8326 104.246 71.3901Z" fill="#999999"/>
<path d="M152.815 72.0406C153.603 72.0406 154.242 71.4018 154.242 70.6139C154.242 69.826 153.603 69.1873 152.815 69.1873C152.027 69.1873 151.389 69.826 151.389 70.6139C151.389 71.4018 152.027 72.0406 152.815 72.0406Z" fill="#999999"/>
<path d="M138.55 72.0406C139.338 72.0406 139.976 71.4018 139.976 70.6139C139.976 69.826 139.338 69.1873 138.55 69.1873C137.762 69.1873 137.123 69.826 137.123 70.6139C137.123 71.4018 137.762 72.0406 138.55 72.0406Z" fill="#999999"/>
<path d="M185.058 93.7263C183.248 92.3677 183.096 90.1735 182.921 87.6337C182.646 83.674 182.305 78.7477 174.393 77.7583C170.361 77.2583 166.364 78.5498 163.131 81.4017C160.445 83.7742 158.548 87.0102 157.664 90.5102L152.103 87.9832V86.8323C152.103 86.8191 152.095 86.808 152.095 86.7948C157.555 84.1858 161.707 79.3248 163.391 73.4644C164.339 73.4894 165.213 73.2344 166.075 72.6969C167.399 71.8708 168.295 70.5276 168.47 69.1009C168.647 67.6714 168.204 66.238 167.258 65.1665C166.608 64.4322 165.764 63.9125 164.836 63.6579C164.833 63.4071 164.823 62.4955 164.82 62.4006C164.891 62.2294 164.943 56.0416 164.943 56.0416C165.273 56.0024 165.595 55.9424 165.899 55.8372C166.969 55.4681 167.785 54.7101 168.323 53.5859H168.324C170.181 49.7075 166.864 44.2131 160.563 39.983C161.005 38.8652 161.051 37.6461 160.648 36.5034C160.204 35.2454 159.298 34.2353 158.096 33.6597C156.893 33.0815 155.539 33.0091 154.278 33.4521C153.134 33.8562 152.213 34.6559 151.619 35.6995C144.374 33.4414 138.014 34.301 136.155 38.1794C135.737 39.0532 135.647 39.9663 135.85 40.8504C129.744 43.6421 126.398 48.92 126.424 55.808L126.442 58.1638C126.456 59.497 126.491 61.9947 126.517 62.1063C126.517 62.127 126.532 63.3062 126.532 63.6546C125.674 63.8872 124.892 64.3484 124.257 65.0061C123.308 65.9912 122.812 67.2869 122.861 68.6548C122.914 70.1816 123.78 71.6557 125.176 72.5977C126.058 73.1926 126.943 73.4837 127.904 73.4683C129.396 78.92 133.015 83.4949 137.843 86.2727C137.843 86.2848 137.837 86.2948 137.837 86.3069V87.9829L126.466 93.1503C121.241 95.5257 117.863 100.834 117.863 106.671V118.407C117.863 119.195 118.501 119.833 119.29 119.833H170.65C171.439 119.833 172.077 119.195 172.077 118.407V111.838C172.779 111.926 173.49 111.987 174.217 111.987C180.518 111.987 187.2 107.908 188.809 103.082C189.46 101.127 189.839 97.3126 185.058 93.7263ZM155.226 36.1442C155.767 35.9548 156.346 35.988 156.86 36.232C157.718 36.6439 158.167 37.5545 158.047 38.449C157.463 38.1276 156.865 37.8148 156.244 37.5177C155.63 37.2235 155.017 36.9549 154.406 36.7035C154.636 36.4613 154.902 36.258 155.226 36.1442ZM138.727 39.4113C139.37 38.0724 141.374 37.2934 144.186 37.2934C147.124 37.2934 150.944 38.1433 155.013 40.0911C162.973 43.9056 167.06 49.6152 165.749 52.3544C165.487 52.9019 165.193 53.062 164.966 53.1415C163.305 53.7101 159.367 51.7609 155.187 49.699C154.16 49.1918 153.083 48.6597 151.957 48.1204C150.852 47.5911 149.757 47.0825 148.696 46.5892C144.088 44.4478 139.326 42.2325 138.651 40.3504C138.539 40.0394 138.561 39.758 138.727 39.4113ZM137.299 43.3211C139.301 45.3644 143.036 47.1049 147.492 49.1765C148.545 49.6655 149.631 50.1698 150.725 50.6952C151.84 51.2287 152.907 51.7555 153.924 52.257C157.162 53.8563 159.852 55.1806 162.089 55.7652V61.1598C157.82 64.3698 152.992 65.586 148.43 64.5884C144.339 63.6953 140.947 61.1027 139.124 57.4761C138.917 57.0638 138.522 56.7767 138.067 56.7071C137.608 56.6333 137.147 56.7906 136.827 57.1223C134.986 59.0169 132.299 60.1554 129.31 60.3419C129.309 59.6536 129.301 58.9042 129.293 58.1363L129.275 55.7969C129.248 48.4446 133.538 44.9635 137.299 43.3211ZM130.378 71.553C130.296 71.1532 130.046 70.8076 129.692 70.6029C129.338 70.3996 128.913 70.3603 128.525 70.4873C127.973 70.6753 127.463 70.7006 126.772 70.2323C126.14 69.8061 125.733 69.1623 125.71 68.5535C125.689 67.9657 125.903 67.4096 126.31 66.9873C126.716 66.5665 127.263 66.3339 127.849 66.3339C128.235 66.3339 128.619 66.1695 128.888 65.8938C129.284 65.4865 129.407 65.1369 129.382 63.1899C132.434 63.0187 135.266 62.0232 137.485 60.3376C139.818 63.9057 143.498 66.4331 147.821 67.3761C149.069 67.6493 150.33 67.7845 151.594 67.7845C155.142 67.7834 158.701 66.7031 162.013 64.6462C162.067 65.2982 162.197 65.6102 162.486 65.902C162.753 66.1738 163.134 66.3339 163.516 66.3339C164.129 66.3339 164.714 66.5971 165.119 67.0569C165.531 67.5223 165.715 68.124 165.639 68.7525C165.566 69.3321 165.165 69.9006 164.566 70.2754C163.964 70.6503 163.454 70.7074 162.809 70.4802C162.425 70.3393 161.997 70.3799 161.64 70.5775C161.282 70.7769 161.027 71.1207 160.939 71.5209C159.55 77.8992 154.836 83.1097 148.634 85.1188L148.004 85.325C146.231 85.9003 144.418 85.9213 142.766 85.3878C136.458 83.358 131.711 78.0565 130.378 71.553ZM141.891 88.1045C142.972 88.453 144.097 88.6256 145.238 88.6256C146.449 88.6256 147.676 88.4305 148.885 88.0389L149.249 87.9201V88.4473C149.249 90.8073 147.329 92.7273 144.969 92.7273C142.609 92.7273 140.689 90.8073 140.689 88.4473V87.6316C141.09 87.7885 141.478 87.9715 141.891 88.1045ZM169.222 116.981H160.662V109.847C160.662 109.059 160.024 108.421 159.236 108.421C158.447 108.421 157.809 109.059 157.809 109.847V116.981H130.702V109.847C130.702 109.059 130.064 108.421 129.276 108.421C128.487 108.421 127.849 109.059 127.849 109.847V116.981H120.716V106.672C120.716 101.951 123.437 97.6621 127.647 95.7479L138.299 90.9068C139.306 93.6264 141.904 95.5806 144.969 95.5806C148.034 95.5806 150.632 93.6264 151.639 90.9065L157.175 93.422C157.135 93.9028 157.096 94.384 157.096 94.8673C157.096 102.571 162.211 109.098 169.222 111.24V116.981ZM186.101 102.18C184.888 105.819 179.223 109.134 174.216 109.134C166.349 109.134 159.949 102.734 159.949 94.8673C159.949 90.5776 161.845 86.3436 165.02 83.5417C167.266 81.5589 169.951 80.5057 172.698 80.5057C173.144 80.5057 173.591 80.5335 174.039 80.5892C179.621 81.2872 179.811 84.0317 180.074 87.8299C180.269 90.6597 180.491 93.8668 183.347 96.0082C185.901 97.9239 186.827 100.001 186.101 102.18Z" fill="#999999"/>
<path d="M179.923 96.3524C177.595 96.3524 175.701 98.246 175.701 100.574C175.701 102.9 177.595 104.794 179.923 104.794C182.251 104.794 184.144 102.9 184.144 100.574C184.144 98.246 182.251 96.3524 179.923 96.3524ZM179.923 101.941C179.169 101.941 178.555 101.328 178.555 100.574C178.555 99.8203 179.169 99.2058 179.923 99.2058C180.676 99.2058 181.291 99.8203 181.291 100.574C181.291 101.328 180.676 101.941 179.923 101.941Z" fill="#999999"/>
<path d="M171.363 82.5734C169.304 82.5734 167.629 84.2479 167.629 86.3073C167.629 88.3667 169.303 90.0413 171.363 90.0413C173.422 90.0413 175.097 88.3667 175.097 86.3073C175.097 84.2479 173.422 82.5734 171.363 82.5734ZM171.363 87.1879C170.878 87.1879 170.482 86.7924 170.482 86.3073C170.482 85.8222 170.878 85.4267 171.363 85.4267C171.848 85.4267 172.243 85.8222 172.243 86.3073C172.243 86.7924 171.848 87.1879 171.363 87.1879Z" fill="#999999"/>
<path d="M168.677 94.1539C168.677 92.0948 167.002 90.4199 164.943 90.4199C162.884 90.4199 161.209 92.0945 161.209 94.1539C161.209 96.2133 162.884 97.8878 164.943 97.8878C167.002 97.8878 168.677 96.2133 168.677 94.1539ZM164.943 95.0345C164.458 95.0345 164.062 94.6389 164.062 94.1539C164.062 93.6688 164.458 93.2733 164.943 93.2733C165.428 93.2733 165.824 93.6688 165.824 94.1539C165.824 94.6389 165.428 95.0345 164.943 95.0345Z" fill="#999999"/>
<path d="M169.935 99.6934C167.876 99.6934 166.201 101.368 166.201 103.427C166.201 105.487 167.876 107.161 169.935 107.161C171.995 107.161 173.669 105.487 173.669 103.427C173.669 101.368 171.995 99.6934 169.935 99.6934ZM169.935 104.308C169.45 104.308 169.055 103.912 169.055 103.427C169.055 102.942 169.45 102.547 169.935 102.547C170.42 102.547 170.816 102.942 170.816 103.427C170.816 103.912 170.42 104.308 169.935 104.308Z" fill="#999999"/>
<path d="M113.9 84.7205C113.636 84.4587 113.367 84.1926 113.105 83.918C113.105 83.9176 113.104 83.9176 113.104 83.9173C113.104 83.9173 113.104 83.9169 113.104 83.9166C112.01 82.7727 111.282 81.7306 111.282 80.3667C111.282 78.5541 110.341 78.0565 109.78 77.9217C107.555 77.3589 104.95 81.7252 103.595 84.3652C102.782 85.9521 101.811 88.173 101.811 89.7431C101.811 92.5115 103.337 94.9072 105.577 96.2041L104.752 114.531C104.685 116.012 105.203 117.445 106.174 118.459C107.021 119.346 108.133 119.834 109.303 119.834C110.473 119.834 111.585 119.346 112.432 118.459C113.403 117.445 113.922 116.013 113.854 114.531L113.029 96.2041C115.269 94.9069 116.796 92.5112 116.796 89.7431C116.796 87.5877 115.257 86.0637 113.9 84.7205ZM108.578 81.7694C108.843 82.9635 109.424 83.9569 110.097 84.8121C109.593 85.187 109.095 85.3846 108.609 85.4042C107.954 85.4014 107.244 85.0993 106.664 84.6798C107.355 83.4525 108.034 82.4621 108.578 81.7694ZM111.004 114.659C111.036 115.366 110.805 116.033 110.37 116.487C110.155 116.713 109.795 116.981 109.303 116.981C108.811 116.981 108.45 116.713 108.236 116.487C107.801 116.033 107.57 115.366 107.602 114.659L108.391 97.1435C108.693 97.1806 108.991 97.2359 109.303 97.2359C109.615 97.2359 109.913 97.181 110.215 97.1435L111.004 114.659ZM109.303 94.3826C106.745 94.3826 104.663 92.3011 104.663 89.7431C104.663 89.3386 104.875 88.4787 105.398 87.2393C106.425 87.8966 107.47 88.259 108.525 88.259C108.589 88.259 108.653 88.2576 108.719 88.2547C109.887 88.2098 111.001 87.7507 112.048 86.9015C113.079 87.9255 113.942 88.8236 113.942 89.7427C113.942 92.3011 111.861 94.3826 109.303 94.3826Z" fill="#999999"/>
</svg>
