<svg width="437" height="274" viewBox="0 0 437 274" fill="none" xmlns="http://www.w3.org/2000/svg">
<rect width="437" height="274" fill="#ECECEC"/>
<path d="M146.641 237H143.418L139.129 229.992L134.805 237H131.805L137.488 228.117L132.168 219.867H135.285L139.246 226.348L143.207 219.867H146.23L140.875 228.164L146.641 237ZM153.883 231.668V229.441H175.961V231.668H153.883ZM198.039 237H194.816L190.527 229.992L186.203 237H183.203L188.887 228.117L183.566 219.867H186.684L190.645 226.348L194.605 219.867H197.629L192.273 228.164L198.039 237ZM198.086 224.039H201.086L203.723 231.387C204.121 232.434 204.387 233.418 204.52 234.34H204.613C204.684 233.91 204.812 233.391 205 232.781C205.188 232.164 206.18 229.25 207.977 224.039H210.953L205.41 238.723C204.402 241.418 202.723 242.766 200.371 242.766C199.762 242.766 199.168 242.699 198.59 242.566V240.387C199.004 240.48 199.477 240.527 200.008 240.527C201.336 240.527 202.27 239.758 202.809 238.219L203.289 237L198.086 224.039ZM225.355 241.582H222.789V237H213.906V241.582H211.363V234.867H212.418C213.34 233.547 214.07 231.953 214.609 230.086C215.156 228.211 215.48 226.195 215.582 224.039H223.457V234.867H225.355V241.582ZM220.75 234.867V226.148H217.961C217.812 227.758 217.5 229.344 217.023 230.906C216.555 232.469 215.98 233.789 215.301 234.867H220.75ZM239.254 230.496C239.254 232.613 238.711 234.266 237.625 235.453C236.539 236.641 235.027 237.234 233.09 237.234C231.879 237.234 230.809 236.961 229.879 236.414C228.949 235.867 228.234 235.082 227.734 234.059C227.234 233.035 226.984 231.848 226.984 230.496C226.984 228.395 227.523 226.754 228.602 225.574C229.68 224.395 231.199 223.805 233.16 223.805C235.035 223.805 236.52 224.41 237.613 225.621C238.707 226.824 239.254 228.449 239.254 230.496ZM229.82 230.496C229.82 233.488 230.926 234.984 233.137 234.984C235.324 234.984 236.418 233.488 236.418 230.496C236.418 227.535 235.316 226.055 233.113 226.055C231.957 226.055 231.117 226.438 230.594 227.203C230.078 227.969 229.82 229.066 229.82 230.496ZM248.816 230.332V224.039H251.383V230.332L256.375 224.039H259.281L254.184 230.309L259.738 237H256.703L251.383 230.426V237H248.816V230.426L243.508 237H240.484L246.027 230.309L240.941 224.039H243.848L248.816 230.332ZM264.496 224.039V229.242H270.602V224.039H273.355V237H270.602V231.41H264.496V237H261.742V224.039H264.496ZM279.941 224.039V230.684C279.941 231.457 279.879 232.594 279.754 234.094L286.258 224.039H289.621V237H286.973V230.473C286.973 230.113 286.992 229.531 287.031 228.727C287.078 227.922 287.117 227.336 287.148 226.969L280.668 237H277.305V224.039H279.941ZM301.586 224.039H304.609L299.254 230.285L305.066 237H301.902L296.301 230.426V237H293.547V224.039H296.301V230.332L301.586 224.039Z" fill="#666666"/>
<path d="M162.623 69.7149C166.997 69.7149 170.556 66.1557 170.556 61.7816C170.556 57.4075 166.997 53.8483 162.623 53.8483C158.249 53.8483 154.689 57.4075 154.689 61.7816C154.689 66.1557 158.249 69.7149 162.623 69.7149ZM162.623 58.3816C164.498 58.3816 166.023 59.9065 166.023 61.7816C166.023 63.6567 164.498 65.1816 162.623 65.1816C160.748 65.1816 159.223 63.6567 159.223 61.7816C159.223 59.9065 160.748 58.3816 162.623 58.3816Z" fill="#999999"/>
<path d="M265.756 100.315C265.756 104.689 269.315 108.248 273.689 108.248C278.063 108.248 281.623 104.689 281.623 100.315C281.623 95.9409 278.063 92.3817 273.689 92.3817C269.315 92.3817 265.756 95.9409 265.756 100.315ZM273.689 96.915C275.564 96.915 277.089 98.4399 277.089 100.315C277.089 102.19 275.564 103.715 273.689 103.715C271.814 103.715 270.289 102.19 270.289 100.315C270.289 98.4399 271.815 96.915 273.689 96.915Z" fill="#999999"/>
<path d="M282.756 75.6814C284.173 75.6814 285.322 74.5324 285.322 73.115C285.322 71.6976 284.173 70.5486 282.756 70.5486C281.338 70.5486 280.189 71.6976 280.189 73.115C280.189 74.5324 281.338 75.6814 282.756 75.6814Z" fill="#999999"/>
<path d="M173.956 84.7481C175.373 84.7481 176.523 83.5991 176.523 82.1817C176.523 80.7643 175.373 79.6152 173.956 79.6152C172.539 79.6152 171.39 80.7643 171.39 82.1817C171.39 83.5991 172.539 84.7481 173.956 84.7481Z" fill="#999999"/>
<path d="M257.723 65.2814C258.166 65.7239 258.746 65.9455 259.326 65.9455C259.906 65.9455 260.486 65.7239 260.928 65.2814L263.49 62.72L266.051 65.2814C266.494 65.7239 267.074 65.9455 267.654 65.9455C268.233 65.9455 268.814 65.7239 269.256 65.2814C270.141 64.3962 270.141 62.9614 269.256 62.0763L266.695 59.515L269.256 56.9536C270.141 56.0685 270.141 54.6337 269.256 53.7486C268.371 52.8634 266.936 52.8634 266.051 53.7486L263.49 56.3099L260.928 53.7486C260.043 52.8634 258.609 52.8634 257.723 53.7486C256.838 54.6337 256.838 56.0685 257.723 56.9536L260.285 59.515L257.723 62.0763C256.838 62.9614 256.838 64.3957 257.723 65.2814Z" fill="#999999"/>
<path d="M153.457 112.881C153.899 113.324 154.48 113.545 155.059 113.545C155.639 113.545 156.219 113.324 156.662 112.881L159.223 110.32L161.785 112.881C162.227 113.324 162.807 113.545 163.387 113.545C163.967 113.545 164.547 113.324 164.99 112.881C165.875 111.996 165.875 110.561 164.99 109.676L162.428 107.115L164.99 104.554C165.875 103.668 165.875 102.234 164.99 101.349C164.104 100.463 162.67 100.463 161.785 101.349L159.223 103.91L156.662 101.349C155.777 100.463 154.342 100.463 153.457 101.349C152.572 102.234 152.572 103.668 153.457 104.554L156.018 107.115L153.457 109.676C152.572 110.561 152.572 111.996 153.457 112.881Z" fill="#999999"/>
<path d="M230.623 113.915C231.875 113.915 232.89 112.9 232.89 111.648C232.89 110.396 231.875 109.382 230.623 109.382C229.371 109.382 228.356 110.396 228.356 111.648C228.356 112.9 229.371 113.915 230.623 113.915Z" fill="#999999"/>
<path d="M207.956 113.915C209.208 113.915 210.223 112.9 210.223 111.648C210.223 110.396 209.208 109.382 207.956 109.382C206.704 109.382 205.689 110.396 205.689 111.648C205.689 112.9 206.704 113.915 207.956 113.915Z" fill="#999999"/>
<path d="M281.849 148.369C278.973 146.21 278.732 142.724 278.453 138.689C278.017 132.398 277.474 124.571 264.904 122.999C258.498 122.205 252.147 124.257 247.012 128.788C242.744 132.557 239.73 137.699 238.326 143.259L229.49 139.244V137.416C229.49 137.395 229.478 137.377 229.478 137.356C238.153 133.211 244.748 125.488 247.424 116.177C248.931 116.217 250.319 115.812 251.689 114.958C253.792 113.645 255.216 111.511 255.495 109.245C255.776 106.973 255.072 104.696 253.569 102.994C252.535 101.827 251.194 101.001 249.72 100.597C249.715 100.198 249.699 98.7498 249.694 98.5991C249.808 98.3271 249.89 88.496 249.89 88.496C250.415 88.4337 250.926 88.3385 251.409 88.1713C253.109 87.5848 254.406 86.3806 255.261 84.5945H255.263C258.212 78.4326 252.942 69.7031 242.932 62.9824C243.633 61.2065 243.706 59.2696 243.066 57.454C242.36 55.4554 240.922 53.8506 239.011 52.936C237.101 52.0174 234.95 51.9024 232.946 52.6062C231.128 53.2482 229.665 54.5187 228.722 56.1767C217.211 52.5892 207.106 53.9548 204.153 60.1168C203.488 61.5051 203.345 62.9558 203.667 64.3605C193.966 68.7958 188.651 77.1814 188.691 88.1248L188.72 91.8677C188.742 93.9859 188.798 97.9542 188.84 98.1316C188.84 98.1645 188.864 100.038 188.864 100.591C187.5 100.961 186.258 101.694 185.249 102.739C183.742 104.304 182.953 106.362 183.031 108.536C183.115 110.962 184.492 113.304 186.71 114.8C188.111 115.745 189.516 116.208 191.044 116.183C193.415 124.845 199.164 132.113 206.835 136.527C206.834 136.546 206.824 136.562 206.824 136.581V139.244L188.759 147.454C180.457 151.228 175.091 159.661 175.091 168.936V187.581C175.091 188.833 176.105 189.847 177.357 189.847H258.957C260.21 189.847 261.224 188.833 261.224 187.581V177.144C262.34 177.285 263.47 177.381 264.624 177.381C274.636 177.381 285.252 170.901 287.809 163.234C288.843 160.127 289.445 154.067 281.849 148.369ZM234.452 56.8834C235.311 56.5825 236.232 56.6352 237.048 57.0228C238.412 57.6773 239.125 59.124 238.934 60.5452C238.007 60.0346 237.056 59.5376 236.07 59.0656C235.093 58.5981 234.119 58.1714 233.149 57.7719C233.515 57.3871 233.937 57.0641 234.452 56.8834ZM208.239 62.074C209.26 59.9468 212.445 58.7092 216.912 58.7092C221.58 58.7092 227.65 60.0595 234.113 63.1541C246.761 69.2146 253.253 78.2858 251.171 82.6378C250.755 83.5076 250.287 83.7621 249.927 83.8884C247.289 84.7917 241.031 81.6949 234.39 78.419C232.759 77.6132 231.048 76.7677 229.259 75.9109C227.504 75.07 225.764 74.2619 224.077 73.4782C216.757 70.0759 209.191 66.5564 208.117 63.5661C207.94 63.0719 207.976 62.6248 208.239 62.074ZM205.971 68.2858C209.15 71.5323 215.085 74.2976 222.164 77.5888C223.838 78.3657 225.562 79.167 227.302 80.0017C229.073 80.8494 230.768 81.6864 232.384 82.4831C237.528 85.024 241.801 87.1281 245.356 88.0568V96.6277C238.573 101.728 230.904 103.66 223.654 102.075C217.155 100.656 211.765 96.537 208.87 90.7751C208.54 90.1201 207.913 89.6639 207.19 89.5534C206.461 89.4361 205.729 89.686 205.219 90.213C202.295 93.2231 198.026 95.0319 193.277 95.3283C193.275 94.2346 193.262 93.0441 193.251 91.824L193.222 88.1073C193.179 76.426 199.995 70.8953 205.971 68.2858ZM194.973 113.14C194.843 112.505 194.446 111.956 193.884 111.631C193.322 111.308 192.647 111.245 192.03 111.447C191.153 111.746 190.343 111.786 189.245 111.042C188.24 110.365 187.594 109.342 187.558 108.375C187.525 107.441 187.863 106.557 188.51 105.886C189.157 105.218 190.024 104.848 190.956 104.848C191.569 104.848 192.18 104.587 192.607 104.149C193.237 103.502 193.431 102.947 193.392 99.8531C198.241 99.5811 202.74 97.9996 206.265 95.3215C209.973 100.99 215.818 105.006 222.687 106.504C224.67 106.938 226.673 107.153 228.681 107.153C234.319 107.151 239.972 105.435 245.235 102.167C245.321 103.203 245.528 103.699 245.986 104.162C246.411 104.594 247.016 104.848 247.622 104.848C248.597 104.848 249.526 105.267 250.17 105.997C250.825 106.736 251.118 107.692 250.996 108.691C250.881 109.612 250.243 110.515 249.291 111.111C248.335 111.706 247.525 111.797 246.5 111.436C245.889 111.212 245.21 111.277 244.643 111.591C244.074 111.907 243.669 112.454 243.529 113.089C241.322 123.223 233.832 131.501 223.979 134.693L222.979 135.021C220.161 135.935 217.281 135.969 214.655 135.121C204.633 131.896 197.092 123.473 194.973 113.14ZM213.266 139.437C214.984 139.991 216.77 140.265 218.583 140.265C220.507 140.265 222.457 139.955 224.378 139.333L224.956 139.144V139.982C224.956 143.731 221.906 146.782 218.156 146.782C214.407 146.782 211.356 143.731 211.356 139.982V138.686C211.993 138.935 212.609 139.226 213.266 139.437ZM256.689 185.315H243.089V173.982C243.089 172.729 242.075 171.715 240.822 171.715C239.57 171.715 238.556 172.729 238.556 173.982V185.315H195.489V173.982C195.489 172.729 194.475 171.715 193.222 171.715C191.97 171.715 190.956 172.729 190.956 173.982V185.315H179.622V168.937C179.622 161.436 183.946 154.622 190.635 151.581L207.559 143.889C209.159 148.21 213.286 151.315 218.156 151.315C223.026 151.315 227.153 148.21 228.752 143.889L237.548 147.886C237.485 148.649 237.422 149.414 237.422 150.182C237.422 162.421 245.55 172.79 256.689 176.194V185.315ZM283.506 161.801C281.578 167.582 272.578 172.848 264.622 172.848C252.125 172.848 241.956 162.679 241.956 150.182C241.956 143.366 244.968 136.639 250.013 132.188C253.582 129.038 257.847 127.364 262.212 127.364C262.92 127.364 263.631 127.408 264.341 127.497C273.211 128.606 273.512 132.966 273.931 139.001C274.24 143.497 274.592 148.592 279.13 151.994C283.188 155.038 284.66 158.339 283.506 161.801Z" fill="#999999"/>
<path d="M273.689 152.541C269.991 152.541 266.982 155.55 266.982 159.248C266.982 162.945 269.991 165.953 273.689 165.953C277.388 165.953 280.397 162.945 280.397 159.248C280.397 155.55 277.389 152.541 273.689 152.541ZM273.689 161.42C272.492 161.42 271.516 160.446 271.516 159.248C271.516 158.051 272.492 157.075 273.689 157.075C274.887 157.075 275.863 158.051 275.863 159.248C275.863 160.446 274.887 161.42 273.689 161.42Z" fill="#999999"/>
<path d="M260.09 130.649C256.818 130.649 254.157 133.31 254.157 136.582C254.157 139.854 256.818 142.514 260.09 142.514C263.362 142.514 266.022 139.854 266.022 136.582C266.022 133.31 263.362 130.649 260.09 130.649ZM260.09 137.981C259.32 137.981 258.691 137.352 258.691 136.582C258.691 135.811 259.319 135.183 260.09 135.183C260.86 135.183 261.489 135.811 261.489 136.582C261.489 137.352 260.86 137.981 260.09 137.981Z" fill="#999999"/>
<path d="M255.822 149.048C255.822 145.777 253.161 143.116 249.889 143.116C246.618 143.116 243.957 145.776 243.957 149.048C243.957 152.32 246.618 154.981 249.889 154.981C253.161 154.981 255.822 152.32 255.822 149.048ZM249.889 150.447C249.119 150.447 248.49 149.819 248.49 149.048C248.49 148.278 249.119 147.649 249.889 147.649C250.66 147.649 251.289 148.278 251.289 149.048C251.289 149.819 250.66 150.447 249.889 150.447Z" fill="#999999"/>
<path d="M257.823 157.849C254.552 157.849 251.891 160.51 251.891 163.782C251.891 167.053 254.551 169.714 257.823 169.714C261.095 169.714 263.755 167.053 263.755 163.782C263.755 160.51 261.095 157.849 257.823 157.849ZM257.823 165.181C257.053 165.181 256.424 164.552 256.424 163.782C256.424 163.011 257.052 162.382 257.823 162.382C258.594 162.382 259.222 163.011 259.222 163.782C259.222 164.552 258.594 165.181 257.823 165.181Z" fill="#999999"/>
<path d="M168.794 134.061C168.374 133.645 167.947 133.222 167.531 132.786C167.53 132.785 167.529 132.785 167.529 132.784C167.529 132.784 167.529 132.784 167.529 132.783C165.791 130.966 164.634 129.31 164.634 127.143C164.634 124.263 163.139 123.473 162.248 123.259C158.713 122.365 154.573 129.302 152.422 133.496C151.129 136.017 149.586 139.546 149.586 142.04C149.586 146.439 152.012 150.245 155.57 152.305L154.259 181.424C154.152 183.776 154.976 186.052 156.519 187.664C157.864 189.074 159.631 189.848 161.49 189.848C163.349 189.848 165.115 189.074 166.461 187.664C168.004 186.052 168.828 183.777 168.721 181.424L167.41 152.305C170.968 150.245 173.394 146.438 173.394 142.04C173.394 138.616 170.95 136.195 168.794 134.061ZM160.338 129.372C160.759 131.269 161.682 132.847 162.751 134.206C161.95 134.802 161.16 135.116 160.387 135.147C159.347 135.142 158.218 134.662 157.297 133.996C158.395 132.046 159.473 130.472 160.338 129.372ZM164.192 181.627C164.243 182.749 163.876 183.81 163.185 184.531C162.844 184.89 162.271 185.315 161.49 185.315C160.708 185.315 160.135 184.89 159.794 184.531C159.104 183.81 158.736 182.749 158.787 181.627L160.04 153.798C160.521 153.857 160.994 153.945 161.49 153.945C161.986 153.945 162.459 153.858 162.939 153.798L164.192 181.627ZM161.489 149.412C157.425 149.412 154.118 146.104 154.118 142.04C154.118 141.398 154.455 140.031 155.285 138.062C156.917 139.107 158.578 139.682 160.254 139.682C160.356 139.682 160.457 139.68 160.562 139.676C162.418 139.604 164.188 138.875 165.85 137.526C167.489 139.153 168.861 140.579 168.861 142.04C168.861 146.104 165.553 149.412 161.489 149.412Z" fill="#999999"/>
</svg>
